Jost-SemiItalic.ufo
<glyph name="exclam" format="1">
  <advance width="321"/>
  <unicode hex="0021"/>
  <outline>
    <contour>
      <point x="173" y="700" type="line"/>
      <point x="333.5" y="700" type="line"/>
      <point x="224.5" y="222.5" type="line"/>
      <point x="119.5" y="222.5" type="line"/>
    </contour>
    <contour>
      <point x="61" y="56" type="curve" smooth="yes"/>
      <point x="61" y="100.5"/>
      <point x="96" y="133"/>
      <point x="144" y="133" type="curve" smooth="yes"/>
      <point x="192" y="133"/>
      <point x="227" y="100.5"/>
      <point x="227" y="56" type="curve" smooth="yes"/>
      <point x="227" y="11.5"/>
      <point x="192" y="-22"/>
      <point x="144" y="-22" type="curve" smooth="yes"/>
      <point x="96" y="-22"/>
      <point x="61" y="11.5"/>
    </contour>
  </outline>
</glyph>
<glyph name="quotedbl" format="1">
  <advance width="487"/>
  <unicode hex="0022"/>
  <outline>
    <contour>
      <point x="197.5" y="699.5" type="line"/>
      <point x="340.5" y="699.5" type="line"/>
      <point x="192.5" y="387" type="line"/>
      <point x="105" y="386.5" type="line"/>
    </contour>
    <contour>
      <point x="394" y="699.5" type="line"/>
      <point x="537" y="699.5" type="line"/>
      <point x="389" y="387" type="line"/>
      <point x="301.5" y="386.5" type="line"/>
    </contour>
  </outline>
</glyph>
<glyph name="numbersign" format="1">
  <advance width="629"/>
  <unicode hex="0023"/>
  <outline>
    <contour>
      <point x="118" y="420.5" type="line"/>
      <point x="134.5" y="524.5" type="line"/>
      <point x="660" y="524.5" type="line"/>
      <point x="642" y="420" type="line"/>
      <point x="499" y="420" type="line"/>
      <point x="475.5" y="424" type="line"/>
      <point x="280.5" y="424" type="line"/>
      <point x="258" y="420" type="line"/>
    </contour>
    <contour>
      <point x="36.5" y="180" type="line"/>
      <point x="54.5" y="284.5" type="line"/>
      <point x="185.5" y="284.5" type="line"/>
      <point x="211" y="280.5" type="line"/>
      <point x="426" y="280.5" type="line"/>
      <point x="453" y="284.5" type="line"/>
      <point x="580.5" y="284.5" type="line"/>
      <point x="562.5" y="180" type="line"/>
    </contour>
    <contour>
      <point x="543.5" y="699.5" type="line"/>
      <point x="661.5" y="699.5" type="line"/>
      <point x="375.5" y="0" type="line"/>
      <point x="259.5" y="0" type="line"/>
      <point x="351.5" y="225" type="line"/>
      <point x="365.5" y="248.5" type="line"/>
      <point x="450.5" y="457.5" type="line"/>
      <point x="457" y="484.5" type="line"/>
    </contour>
    <contour>
      <point x="319" y="699.5" type="line"/>
      <point x="436" y="699.5" type="line"/>
      <point x="348" y="486.5" type="line"/>
      <point x="333" y="459" type="line"/>
      <point x="247.5" y="249.5" type="line"/>
      <point x="242.5" y="226" type="line"/>
      <point x="150.5" y="0" type="line"/>
      <point x="35.5" y="0" type="line"/>
    </contour>
  </outline>
</glyph>
<glyph name="dollar" format="1">
  <advance width="590"/>
  <unicode hex="0024"/>
  <outline>
    <contour>
      <point x="361.5" y="817.5" type="line"/>
      <point x="470" y="817.5" type="line"/>
      <point x="438.5" y="646" type="line"/>
      <point x="339" y="646" type="line"/>
    </contour>
    <contour>
      <point x="249.5" y="57.5" type="line"/>
      <point x="348.5" y="57.5" type="line"/>
      <point x="325.5" y="-111.5" type="line"/>
      <point x="217.5" y="-111.5" type="line"/>
    </contour>
    <contour>
      <point x="495" y="496" type="line"/>
      <point x="473.5" y="548.5"/>
      <point x="444" y="597"/>
      <point x="385.5" y="597.5" type="curve" smooth="yes"/>
      <point x="332" y="598"/>
      <point x="293" y="569"/>
      <point x="285.5" y="525" type="curve" smooth="yes"/>
      <point x="273" y="459"/>
      <point x="354.5" y="435.5"/>
      <point x="420" y="408.5" type="curve" smooth="yes"/>
      <point x="507.5" y="372"/>
      <point x="577" y="303"/>
      <point x="564" y="194" type="curve" smooth="yes"/>
      <point x="546.5" y="65.5"/>
      <point x="432.5" y="-10"/>
      <point x="290" y="-9.5" type="curve" smooth="yes"/>
      <point x="171" y="-9"/>
      <point x="83" y="70.5"/>
      <point x="47" y="173" type="curve"/>
      <point x="158" y="244" type="line"/>
      <point x="189" y="168"/>
      <point x="227.5" y="109.5"/>
      <point x="305.5" y="109.5" type="curve" smooth="yes"/>
      <point x="363.5" y="109.5"/>
      <point x="405.5" y="141"/>
      <point x="413.5" y="191.5" type="curve" smooth="yes"/>
      <point x="424.5" y="257.5"/>
      <point x="355" y="285.5"/>
      <point x="290" y="312.5" type="curve" smooth="yes"/>
      <point x="212" y="346"/>
      <point x="125" y="410.5"/>
      <point x="139" y="526.5" type="curve" smooth="yes"/>
      <point x="155" y="633"/>
      <point x="267.5" y="709.5"/>
      <point x="391.5" y="709.5" type="curve" smooth="yes"/>
      <point x="509.5" y="709.5"/>
      <point x="576.5" y="643"/>
      <point x="611" y="560.5" type="curve"/>
    </contour>
  </outline>
</glyph>
<glyph name="percent" format="1">
  <advance width="844"/>
  <unicode hex="0025"/>
  <outline>
    <contour>
      <point x="89" y="539.5" type="curve" smooth="yes"/>
      <point x="103" y="635"/>
      <point x="189" y="716.5"/>
      <point x="291" y="716.5" type="curve" smooth="yes"/>
      <point x="392" y="716.5"/>
      <point x="454.5" y="631.5"/>
      <point x="441.5" y="538.5" type="curve" smooth="yes"/>
      <point x="427.5" y="443"/>
      <point x="340.5" y="361.5"/>
      <point x="238.5" y="361.5" type="curve" smooth="yes"/>
      <point x="137.5" y="361.5"/>
      <point x="76" y="446.5"/>
    </contour>
    <contour>
      <point x="195.5" y="538" type="curve" smooth="yes"/>
      <point x="190.5" y="503"/>
      <point x="210" y="466"/>
      <point x="252" y="465" type="curve" smooth="yes"/>
      <point x="293" y="464"/>
      <point x="328.5" y="502"/>
      <point x="334" y="539.5" type="curve" smooth="yes"/>
      <point x="339" y="574.5"/>
      <point x="320.5" y="612"/>
      <point x="278.5" y="613" type="curve" smooth="yes"/>
      <point x="237.5" y="614"/>
      <point x="201" y="575.5"/>
    </contour>
    <contour>
      <point x="470.5" y="162" type="curve" smooth="yes"/>
      <point x="484.5" y="257.5"/>
      <point x="570" y="338.5"/>
      <point x="672" y="338.5" type="curve" smooth="yes"/>
      <point x="773" y="338.5"/>
      <point x="834.5" y="254"/>
      <point x="821.5" y="161" type="curve" smooth="yes"/>
      <point x="807.5" y="65.5"/>
      <point x="721.5" y="-15.5"/>
      <point x="619.5" y="-15.5" type="curve" smooth="yes"/>
      <point x="518.5" y="-15.5"/>
      <point x="457.5" y="69"/>
    </contour>
    <contour>
      <point x="577" y="160.5" type="curve" smooth="yes"/>
      <point x="572" y="125.5"/>
      <point x="592" y="88.5"/>
      <point x="632" y="87.5" type="curve" smooth="yes"/>
      <point x="673" y="86.5"/>
      <point x="707.5" y="122.5"/>
      <point x="714.5" y="162" type="curve" smooth="yes"/>
      <point x="719.5" y="197"/>
      <point x="700" y="234.5"/>
      <point x="660" y="235.5" type="curve" smooth="yes"/>
      <point x="619" y="236.5"/>
      <point x="584" y="200"/>
    </contour>
    <contour>
      <point x="696" y="699.5" type="line"/>
      <point x="832" y="699.5" type="line"/>
      <point x="214" y="0" type="line"/>
      <point x="80" y="0" type="line"/>
    </contour>
  </outline>
</glyph>
<glyph name="ampersand" format="1">
  <advance width="708"/>
  <unicode hex="0026"/>
  <outline>
    <contour>
      <point x="258.5" y="375.5" type="line" smooth="yes"/>
      <point x="223" y="427"/>
      <point x="177.5" y="479.5"/>
      <point x="186" y="548" type="curve" smooth="yes"/>
      <point x="199" y="643"/>
      <point x="294" y="716"/>
      <point x="406" y="715.5" type="curve" smooth="yes"/>
      <point x="513.5" y="715"/>
      <point x="584.5" y="638.5"/>
      <point x="572" y="549" type="curve" smooth="yes"/>
      <point x="559.5" y="458.5"/>
      <point x="478" y="407"/>
      <point x="384" y="351.5" type="curve" smooth="yes"/>
      <point x="311.5" y="310"/>
      <point x="199.5" y="284.5"/>
      <point x="186" y="197" type="curve" smooth="yes"/>
      <point x="177.5" y="141.5"/>
      <point x="218" y="102"/>
      <point x="281" y="100.5" type="curve" smooth="yes"/>
      <point x="412" y="95.5"/>
      <point x="531.5" y="225"/>
      <point x="619.5" y="333.5" type="curve"/>
      <point x="701" y="266" type="line"/>
      <point x="593.5" y="136.5"/>
      <point x="446" y="-13.5"/>
      <point x="255.5" y="-12" type="curve" smooth="yes"/>
      <point x="135.5" y="-11"/>
      <point x="33" y="65"/>
      <point x="49" y="186.5" type="curve" smooth="yes"/>
      <point x="67.5" y="332.5"/>
      <point x="224" y="376"/>
      <point x="316" y="419" type="curve" smooth="yes"/>
      <point x="379" y="450"/>
      <point x="443.5" y="490"/>
      <point x="451.5" y="540" type="curve" smooth="yes"/>
      <point x="455.5" y="575"/>
      <point x="434" y="607.5"/>
      <point x="392" y="608" type="curve" smooth="yes"/>
      <point x="349" y="608.5"/>
      <point x="317.5" y="578.5"/>
      <point x="311.5" y="540" type="curve" smooth="yes"/>
      <point x="303.5" y="495"/>
      <point x="342.5" y="455.5"/>
      <point x="376.5" y="407.5" type="curve" smooth="yes"/>
      <point x="673" y="0" type="line"/>
      <point x="530" y="0" type="line"/>
    </contour>
  </outline>
</glyph>
<glyph name="quotesingle" format="2">
  <advance width="291"/>
  <unicode hex="0027"/>
  <outline>
    <contour>
      <point x="198" y="700" type="line"/>
      <point x="340" y="700" type="line"/>
      <point x="193" y="387" type="line"/>
      <point x="105" y="387" type="line"/>
    </contour>
  </outline>
</glyph>
<glyph name="parenleft" format="1">
  <advance width="321"/>
  <unicode hex="0028"/>
  <outline>
    <contour>
      <point x="288" y="779" type="curve"/>
      <point x="407.5" y="779" type="line"/>
      <point x="320" y="628.5"/>
      <point x="256.5" y="463"/>
      <point x="229" y="290" type="curve" smooth="yes"/>
      <point x="204" y="125.5"/>
      <point x="211.5" y="-42.5"/>
      <point x="258" y="-200.5" type="curve"/>
      <point x="142" y="-200.5" type="line"/>
      <point x="87" y="-43"/>
      <point x="74.5" y="125.5"/>
      <point x="98.5" y="290" type="curve" smooth="yes"/>
      <point x="125.5" y="464"/>
      <point x="190" y="631.5"/>
    </contour>
  </outline>
</glyph>
<glyph name="parenright" format="2">
  <advance width="321"/>
  <unicode hex="0029"/>
  <outline>
    <contour>
      <point x="89" y="-199" type="curve"/>
      <point x="-30" y="-199" type="line"/>
      <point x="57" y="-49"/>
      <point x="120" y="117"/>
      <point x="148" y="290" type="curve" smooth="yes"/>
      <point x="173" y="454"/>
      <point x="167" y="622"/>
      <point x="120" y="780" type="curve"/>
      <point x="236" y="780" type="line"/>
      <point x="291" y="623"/>
      <point x="303" y="455"/>
      <point x="279" y="290" type="curve" smooth="yes"/>
      <point x="252" y="116"/>
      <point x="187" y="-52"/>
    </contour>
  </outline>
</glyph>
<glyph name="asterisk" format="1">
  <advance width="574"/>
  <unicode hex="002A"/>
  <outline>
    <contour>
      <point x="550" y="602" type="line"/>
      <point x="568" y="488" type="line"/>
      <point x="346" y="443.5" type="line"/>
      <point x="335.5" y="509.5" type="line"/>
    </contour>
    <contour>
      <point x="492" y="328.5" type="line"/>
      <point x="386" y="259" type="line"/>
      <point x="311.5" y="458.5" type="line"/>
      <point x="367.5" y="495.5" type="line"/>
    </contour>
    <contour>
      <point x="226.5" y="261" type="line"/>
      <point x="140.5" y="333.5" type="line"/>
      <point x="316" y="495" type="line"/>
      <point x="365" y="454" type="line"/>
    </contour>
    <contour>
      <point x="118.5" y="490" type="line"/>
      <point x="171.5" y="601" type="line"/>
      <point x="358.5" y="506.5" type="line"/>
      <point x="328" y="444.5" type="line"/>
    </contour>
    <contour>
      <point x="320" y="699.5" type="line"/>
      <point x="440" y="699.5" type="line"/>
      <point x="375" y="476" type="line"/>
      <point x="308.5" y="476" type="line"/>
    </contour>
  </outline>
</glyph>
<glyph name="plus" format="1">
  <advance width="637"/>
  <unicode hex="002B"/>
  <outline>
    <contour>
      <point x="69.5" y="202" type="line"/>
      <point x="91.5" y="328.5" type="line"/>
      <point x="606" y="328.5" type="line"/>
      <point x="583.5" y="201.5" type="line"/>
    </contour>
    <contour>
      <point x="314.5" y="528.5" type="line"/>
      <point x="450.5" y="529" type="line"/>
      <point x="358.5" y="1.5" type="line"/>
      <point x="224.5" y="1.5" type="line"/>
    </contour>
  </outline>
</glyph>
<glyph name="comma" format="2">
  <advance width="309"/>
  <unicode hex="002C"/>
  <outline>
    <contour>
      <point x="113" y="109" type="line"/>
      <point x="240" y="76" type="line"/>
      <point x="80" y="-171" type="line"/>
      <point x="-16" y="-148" type="line"/>
    </contour>
  </outline>
</glyph>
<glyph name="hyphen" format="1">
  <advance width="211"/>
  <unicode hex="002D"/>
  <outline>
    <contour>
      <point x="7.5" y="180" type="line"/>
      <point x="27.5" y="294.5" type="line"/>
      <point x="233" y="294.5" type="line"/>
      <point x="212.5" y="180" type="line"/>
    </contour>
  </outline>
</glyph>
<glyph name="period" format="1">
  <advance width="306"/>
  <unicode hex="002E"/>
  <outline>
    <contour>
      <point x="56" y="60" type="curve" smooth="yes"/>
      <point x="56" y="104.5"/>
      <point x="91" y="141"/>
      <point x="139" y="141" type="curve" smooth="yes"/>
      <point x="187" y="141"/>
      <point x="221.5" y="104.5"/>
      <point x="221.5" y="60" type="curve" smooth="yes"/>
      <point x="221.5" y="15.5"/>
      <point x="187" y="-21.5"/>
      <point x="139" y="-21.5" type="curve" smooth="yes"/>
      <point x="91" y="-21.5"/>
      <point x="56" y="15.5"/>
    </contour>
  </outline>
</glyph>
<glyph name="slash" format="2">
  <advance width="563"/>
  <unicode hex="002F"/>
  <outline>
    <contour>
      <point x="516" y="700" type="line"/>
      <point x="646" y="700" type="line"/>
      <point x="91" y="-150" type="line"/>
      <point x="-40" y="-149" type="line"/>
    </contour>
  </outline>
</glyph>
<glyph name="zero" format="1">
  <advance width="624"/>
  <unicode hex="0030"/>
  <outline>
    <contour>
      <point x="209" y="350" type="curve" smooth="yes"/>
      <point x="197.5" y="248"/>
      <point x="202.5" y="117"/>
      <point x="301.5" y="115" type="curve" smooth="yes"/>
      <point x="401" y="113"/>
      <point x="466" y="235"/>
      <point x="482" y="350" type="curve" smooth="yes"/>
      <point x="493.5" y="452"/>
      <point x="488.5" y="583"/>
      <point x="389.5" y="585" type="curve" smooth="yes"/>
      <point x="290" y="587"/>
      <point x="225" y="465"/>
    </contour>
    <contour>
      <point x="70.5" y="350" type="curve" smooth="yes"/>
      <point x="97.5" y="544"/>
      <point x="222" y="712.5"/>
      <point x="403" y="712" type="curve" smooth="yes"/>
      <point x="588.5" y="711.5"/>
      <point x="644" y="532"/>
      <point x="621" y="350" type="curve" smooth="yes"/>
      <point x="594" y="155.5"/>
      <point x="471.5" y="-12.5"/>
      <point x="288" y="-12" type="curve" smooth="yes"/>
      <point x="105.5" y="-11.5"/>
      <point x="47.5" y="168.5"/>
    </contour>
  </outline>
</glyph>
<glyph name="one" format="1">
  <advance width="477"/>
  <unicode hex="0031"/>
  <outline>
    <contour>
      <point x="128" y="515" type="line"/>
      <point x="152" y="647" type="line"/>
      <point x="465.5" y="713" type="line"/>
      <point x="342.5" y="0" type="line"/>
      <point x="204" y="0" type="line"/>
      <point x="299.5" y="557.5" type="line"/>
    </contour>
  </outline>
</glyph>
<glyph name="two" format="1">
  <advance width="612"/>
  <unicode hex="0032"/>
  <outline>
    <contour>
      <point x="0" y="0" type="line"/>
      <point x="358" y="331.5" type="line" smooth="yes"/>
      <point x="409.5" y="380.5"/>
      <point x="458" y="427"/>
      <point x="467.5" y="488" type="curve" smooth="yes"/>
      <point x="474.5" y="537"/>
      <point x="447.5" y="584.5"/>
      <point x="385.5" y="585.5" type="curve" smooth="yes"/>
      <point x="310" y="587"/>
      <point x="260.5" y="519.5"/>
      <point x="246.5" y="446.5" type="curve"/>
      <point x="105.5" y="446.5" type="line"/>
      <point x="130" y="591.5"/>
      <point x="235" y="713.5"/>
      <point x="400.5" y="713" type="curve" smooth="yes"/>
      <point x="544.5" y="712.5"/>
      <point x="633.5" y="607.5"/>
      <point x="616.5" y="493.5" type="curve" smooth="yes"/>
      <point x="605.5" y="416.5"/>
      <point x="553.5" y="353"/>
      <point x="492.5" y="302" type="curve" smooth="yes"/>
      <point x="292.5" y="134" type="line"/>
      <point x="573.5" y="133.5" type="line"/>
      <point x="552.5" y="0" type="line"/>
    </contour>
  </outline>
</glyph>
<glyph name="three" format="1">
  <advance width="581"/>
  <unicode hex="0033"/>
  <outline>
    <contour>
      <point x="296" y="340.5" type="curve"/>
      <point x="305.5" y="410" type="line"/>
      <point x="376.5" y="415"/>
      <point x="442.5" y="451"/>
      <point x="451.5" y="512" type="curve" smooth="yes"/>
      <point x="457.5" y="556"/>
      <point x="434.5" y="592"/>
      <point x="383" y="593" type="curve" smooth="yes"/>
      <point x="326.5" y="594"/>
      <point x="285" y="552"/>
      <point x="272" y="504" type="curve"/>
      <point x="139" y="504.5" type="line"/>
      <point x="161.5" y="623"/>
      <point x="258" y="712"/>
      <point x="393.5" y="712" type="curve" smooth="yes"/>
      <point x="521" y="712"/>
      <point x="609.5" y="630"/>
      <point x="593.5" y="519.5" type="curve" smooth="yes"/>
      <point x="574.5" y="393.5"/>
      <point x="436" y="343.5"/>
    </contour>
    <contour>
      <point x="283.5" y="-14" type="curve" smooth="yes"/>
      <point x="136" y="-13.5"/>
      <point x="54" y="87.5"/>
      <point x="64" y="211.5" type="curve"/>
      <point x="203.5" y="211" type="line"/>
      <point x="200.5" y="149"/>
      <point x="234" y="107"/>
      <point x="298.5" y="106" type="curve" smooth="yes"/>
      <point x="360" y="105"/>
      <point x="413.5" y="144"/>
      <point x="422.5" y="204.5" type="curve" smooth="yes"/>
      <point x="435.5" y="277"/>
      <point x="371.5" y="308"/>
      <point x="291.5" y="311.5" type="curve"/>
      <point x="302" y="388" type="line"/>
      <point x="446.5" y="385"/>
      <point x="582" y="334.5"/>
      <point x="562" y="189.5" type="curve" smooth="yes"/>
      <point x="544.5" y="64.5"/>
      <point x="426" y="-14.5"/>
    </contour>
  </outline>
</glyph>
<glyph name="four" format="1">
  <advance width="645"/>
  <unicode hex="0034"/>
  <outline>
    <contour>
      <point x="8" y="129.5" type="line"/>
      <point x="493.5" y="699" type="line"/>
      <point x="594.5" y="699.5" type="line"/>
      <point x="475" y="0" type="line"/>
      <point x="327" y="0" type="line"/>
      <point x="357" y="170.5" type="line"/>
      <point x="372.5" y="181.5" type="line"/>
      <point x="419.5" y="463" type="line"/>
      <point x="225.918" y="238" type="line"/>
      <point x="450" y="237.5" type="line"/>
      <point x="469" y="253" type="line"/>
      <point x="626" y="253" type="line"/>
      <point x="604" y="129" type="line"/>
    </contour>
  </outline>
</glyph>
<glyph name="five" format="1">
  <advance width="602"/>
  <unicode hex="0035"/>
  <outline>
    <contour>
      <point x="583" y="225.5" type="curve" smooth="yes"/>
      <point x="563.5" y="73"/>
      <point x="425.5" y="-11.5"/>
      <point x="286" y="-12" type="curve" smooth="yes"/>
      <point x="172.5" y="-12"/>
      <point x="93" y="34.5"/>
      <point x="34" y="96" type="curve"/>
      <point x="115.5" y="208" type="line"/>
      <point x="155.5" y="158.5"/>
      <point x="211.5" y="122"/>
      <point x="273.5" y="121.5" type="curve" smooth="yes"/>
      <point x="354.5" y="121"/>
      <point x="420" y="165"/>
      <point x="431.5" y="239" type="curve" smooth="yes"/>
      <point x="441.5" y="310"/>
      <point x="385" y="352.5"/>
      <point x="316" y="354" type="curve" smooth="yes"/>
      <point x="252" y="355.5"/>
      <point x="186.5" y="337.5"/>
      <point x="119" y="305.5" type="curve"/>
      <point x="271" y="700" type="line"/>
      <point x="646.5" y="700" type="line"/>
      <point x="626" y="573.5" type="line"/>
      <point x="357.5" y="573.5" type="line"/>
      <point x="294.791" y="435.494" type="line"/>
      <point x="330.221" y="449.417"/>
      <point x="368.832" y="456"/>
      <point x="408.5" y="456" type="curve" smooth="yes"/>
      <point x="528" y="455"/>
      <point x="598" y="351"/>
    </contour>
  </outline>
</glyph>
<glyph name="six" format="1">
  <advance width="623"/>
  <unicode hex="0036"/>
  <outline>
    <contour>
      <point x="207.5" y="241" type="curve" smooth="yes"/>
      <point x="197.5" y="172"/>
      <point x="236.5" y="112"/>
      <point x="309" y="111.5" type="curve" smooth="yes"/>
      <point x="383" y="111"/>
      <point x="445.5" y="169"/>
      <point x="457" y="241.5" type="curve" smooth="yes"/>
      <point x="467" y="310"/>
      <point x="428" y="372.5"/>
      <point x="355.5" y="373" type="curve" smooth="yes"/>
      <point x="281.5" y="373.5"/>
      <point x="219" y="313.5"/>
    </contour>
    <contour>
      <point x="409.5" y="697.5" type="line"/>
      <point x="594.5" y="697.5" type="line"/>
      <point x="335.5" y="435.5" type="line"/>
      <point x="305.5" y="427" type="line"/>
      <point x="340" y="455.5"/>
      <point x="374.5" y="469"/>
      <point x="419.5" y="468.5" type="curve" smooth="yes"/>
      <point x="534" y="467.5"/>
      <point x="611" y="362.5"/>
      <point x="596.5" y="241" type="curve" smooth="yes"/>
      <point x="577" y="87"/>
      <point x="446.5" y="-14"/>
      <point x="296.5" y="-14" type="curve" smooth="yes"/>
      <point x="149" y="-14"/>
      <point x="48" y="90"/>
      <point x="67.5" y="241" type="curve" smooth="yes"/>
      <point x="77.5" y="311.5"/>
      <point x="116.5" y="371"/>
      <point x="162" y="421.5" type="curve" smooth="yes"/>
    </contour>
  </outline>
</glyph>
<glyph name="seven" format="1">
  <advance width="562"/>
  <unicode hex="0037"/>
  <outline>
    <contour>
      <point x="97" y="564.5" type="line"/>
      <point x="119" y="700" type="line"/>
      <point x="654" y="699.5" type="line"/>
      <point x="219" y="0" type="line"/>
      <point x="62" y="0" type="line"/>
      <point x="420.5" y="564.5" type="line"/>
    </contour>
  </outline>
</glyph>
<glyph name="eight" format="1">
  <advance width="585"/>
  <unicode hex="0038"/>
  <outline>
    <contour>
      <point x="138" y="531.5" type="curve" smooth="yes"/>
      <point x="155" y="643"/>
      <point x="265.5" y="714.5"/>
      <point x="383.5" y="714" type="curve" smooth="yes"/>
      <point x="497.5" y="713.5"/>
      <point x="591" y="641.5"/>
      <point x="575" y="530.5" type="curve" smooth="yes"/>
      <point x="558.5" y="413"/>
      <point x="443.5" y="346"/>
      <point x="329.5" y="346" type="curve" smooth="yes"/>
      <point x="219" y="346"/>
      <point x="121.5" y="415"/>
    </contour>
    <contour>
      <point x="269.5" y="516" type="curve" smooth="yes"/>
      <point x="263" y="471"/>
      <point x="288.5" y="429"/>
      <point x="336" y="428.5" type="curve" smooth="yes"/>
      <point x="386.5" y="428"/>
      <point x="431.5" y="469"/>
      <point x="439.5" y="516.5" type="curve" smooth="yes"/>
      <point x="446.5" y="562"/>
      <point x="422" y="604.5"/>
      <point x="372.5" y="605" type="curve" smooth="yes"/>
      <point x="319.5" y="605.5"/>
      <point x="277.5" y="564"/>
    </contour>
    <contour>
      <point x="55.5" y="190.5" type="curve" smooth="yes"/>
      <point x="74" y="323.5"/>
      <point x="208.5" y="394.5"/>
      <point x="329" y="394" type="curve" smooth="yes"/>
      <point x="444.5" y="394"/>
      <point x="560" y="322"/>
      <point x="541.5" y="189.5" type="curve" smooth="yes"/>
      <point x="523" y="67"/>
      <point x="397" y="-14.5"/>
      <point x="268" y="-14" type="curve" smooth="yes"/>
      <point x="143.5" y="-13.5"/>
      <point x="37.5" y="69.5"/>
    </contour>
    <contour>
      <point x="199.5" y="210.5" type="curve" smooth="yes"/>
      <point x="190.5" y="152.5"/>
      <point x="224.5" y="106.5"/>
      <point x="281" y="106" type="curve" smooth="yes"/>
      <point x="340.5" y="105.5"/>
      <point x="395.5" y="150.5"/>
      <point x="405" y="211.5" type="curve" smooth="yes"/>
      <point x="413" y="263.5"/>
      <point x="378" y="314.5"/>
      <point x="323" y="315" type="curve" smooth="yes"/>
      <point x="264" y="315.5"/>
      <point x="209.5" y="265"/>
    </contour>
  </outline>
</glyph>
<glyph name="nine" format="1">
  <advance width="623"/>
  <unicode hex="0039"/>
  <outline>
    <contour>
      <point x="490" y="459" type="curve" smooth="yes"/>
      <point x="500" y="528"/>
      <point x="461.5" y="588"/>
      <point x="389" y="588.5" type="curve" smooth="yes"/>
      <point x="315" y="589"/>
      <point x="252.5" y="531"/>
      <point x="241" y="458.5" type="curve" smooth="yes"/>
      <point x="231" y="390"/>
      <point x="269.5" y="327.5"/>
      <point x="342" y="327" type="curve" smooth="yes"/>
      <point x="416" y="326.5"/>
      <point x="478.5" y="386.5"/>
    </contour>
    <contour>
      <point x="287.5" y="2.5" type="line"/>
      <point x="102.5" y="2.5" type="line"/>
      <point x="362" y="264.5" type="line"/>
      <point x="392" y="273" type="line"/>
      <point x="357.5" y="244.5"/>
      <point x="323" y="231"/>
      <point x="278" y="231.5" type="curve" smooth="yes"/>
      <point x="163.5" y="232.5"/>
      <point x="86.5" y="337.5"/>
      <point x="101" y="459" type="curve" smooth="yes"/>
      <point x="120.5" y="613"/>
      <point x="251" y="714"/>
      <point x="401" y="714" type="curve" smooth="yes"/>
      <point x="548.5" y="714"/>
      <point x="649.5" y="610"/>
      <point x="630" y="459" type="curve" smooth="yes"/>
      <point x="620" y="388.5"/>
      <point x="580.5" y="329"/>
      <point x="535" y="278.5" type="curve" smooth="yes"/>
    </contour>
  </outline>
</glyph>
<glyph name="colon" format="2">
  <advance width="306"/>
  <unicode hex="003A"/>
  <outline>
    <contour>
      <point x="54" y="60" type="curve" smooth="yes"/>
      <point x="54" y="105"/>
      <point x="88" y="141"/>
      <point x="136" y="141" type="curve" smooth="yes"/>
      <point x="184" y="141"/>
      <point x="219" y="105"/>
      <point x="219" y="60" type="curve" smooth="yes"/>
      <point x="219" y="15"/>
      <point x="184" y="-21"/>
      <point x="136" y="-21" type="curve" smooth="yes"/>
      <point x="88" y="-21"/>
      <point x="54" y="15"/>
    </contour>
    <contour>
      <point x="118" y="435" type="curve" smooth="yes"/>
      <point x="118" y="480"/>
      <point x="152" y="517"/>
      <point x="200" y="517" type="curve" smooth="yes"/>
      <point x="248" y="517"/>
      <point x="283" y="480"/>
      <point x="283" y="435" type="curve" smooth="yes"/>
      <point x="283" y="390"/>
      <point x="248" y="354"/>
      <point x="200" y="354" type="curve" smooth="yes"/>
      <point x="152" y="354"/>
      <point x="118" y="390"/>
    </contour>
  </outline>
</glyph>
<glyph name="semicolon" format="1">
  <advance width="363"/>
  <unicode hex="003B"/>
  <outline>
    <contour>
      <point x="161" y="431" type="curve" smooth="yes"/>
      <point x="161" y="475.5"/>
      <point x="196" y="512.5"/>
      <point x="244" y="512.5" type="curve" smooth="yes"/>
      <point x="292" y="512.5"/>
      <point x="327.5" y="475.5"/>
      <point x="327.5" y="431" type="curve" smooth="yes"/>
      <point x="327.5" y="386.5"/>
      <point x="292" y="349.5"/>
      <point x="244" y="349.5" type="curve" smooth="yes"/>
      <point x="196" y="349.5"/>
      <point x="161" y="386.5"/>
    </contour>
    <contour>
      <point x="129" y="109" type="line"/>
      <point x="255" y="76" type="line"/>
      <point x="95.5" y="-171" type="line"/>
      <point x="-0.5" y="-147.5" type="line"/>
    </contour>
  </outline>
</glyph>
<glyph name="less" format="2">
  <advance width="621"/>
  <unicode hex="003C"/>
  <outline>
    <contour>
      <point x="267" y="262" type="line"/>
      <point x="555" y="128" type="line"/>
      <point x="533" y="5" type="line"/>
      <point x="73" y="221" type="line"/>
      <point x="87" y="305" type="line"/>
      <point x="623" y="522" type="line"/>
      <point x="599" y="388" type="line"/>
    </contour>
  </outline>
</glyph>
<glyph name="equal" format="1">
  <advance width="603"/>
  <unicode hex="003D"/>
  <outline>
    <contour>
      <point x="45.5" y="100.5" type="line"/>
      <point x="65.5" y="215" type="line"/>
      <point x="559.5" y="215" type="line"/>
      <point x="539" y="100" type="line"/>
    </contour>
    <contour>
      <point x="78" y="290.5" type="line"/>
      <point x="98" y="405.5" type="line"/>
      <point x="592" y="405.5" type="line"/>
      <point x="572" y="290" type="line"/>
    </contour>
  </outline>
</glyph>
<glyph name="greater" format="1">
  <advance width="621"/>
  <unicode hex="003E"/>
  <outline>
    <contour>
      <point x="389" y="262" type="line"/>
      <point x="102" y="395.5" type="line"/>
      <point x="123.5" y="519" type="line"/>
      <point x="583.5" y="303" type="line"/>
      <point x="569" y="218.5" type="line"/>
      <point x="34" y="2" type="line"/>
      <point x="57.5" y="136" type="line"/>
    </contour>
  </outline>
</glyph>
<glyph name="question" format="1">
  <advance width="588"/>
  <unicode hex="003F"/>
  <outline>
    <contour>
      <point x="464.5" y="500" type="curve" smooth="yes"/>
      <point x="475" y="562"/>
      <point x="435.5" y="603"/>
      <point x="367.5" y="603.5" type="curve" smooth="yes"/>
      <point x="303" y="604.5"/>
      <point x="245" y="565.5"/>
      <point x="203" y="518" type="curve"/>
      <point x="122.5" y="592.5" type="line"/>
      <point x="193.5" y="665"/>
      <point x="275.5" y="717.5"/>
      <point x="388.5" y="716.5" type="curve" smooth="yes"/>
      <point x="514" y="715.5"/>
      <point x="613.5" y="625.5"/>
      <point x="595" y="499.5" type="curve" smooth="yes"/>
      <point x="576.5" y="378.587"/>
      <point x="463.259" y="308.063"/>
      <point x="353.147" y="286.12" type="curve"/>
      <point x="330.5" y="192.5" type="line"/>
      <point x="226" y="192.5" type="line"/>
      <point x="235.5" y="370" type="line"/>
      <point x="264" y="370" type="line"/>
      <point x="365" y="372"/>
      <point x="449.5" y="429"/>
    </contour>
    <contour>
      <point x="171" y="54.5" type="curve" smooth="yes"/>
      <point x="171" y="95.5"/>
      <point x="207" y="128"/>
      <point x="253" y="128" type="curve" smooth="yes"/>
      <point x="299.5" y="128"/>
      <point x="334.5" y="95"/>
      <point x="334.5" y="54.5" type="curve" smooth="yes"/>
      <point x="334.5" y="13"/>
      <point x="299" y="-21.5"/>
      <point x="253" y="-21.5" type="curve" smooth="yes"/>
      <point x="206.5" y="-21.5"/>
      <point x="171" y="13"/>
    </contour>
  </outline>
</glyph>
<glyph name="at" format="1">
  <advance width="747"/>
  <unicode hex="0040"/>
  <outline>
    <contour>
      <point x="320" y="320" type="curve" smooth="yes"/>
      <point x="315.5" y="283"/>
      <point x="324" y="249.5"/>
      <point x="359" y="246.5" type="curve" smooth="yes"/>
      <point x="405" y="241.5"/>
      <point x="458.5" y="304.5"/>
      <point x="466" y="366" type="curve" smooth="yes"/>
      <point x="470.5" y="403.5"/>
      <point x="459" y="439.5"/>
      <point x="424.5" y="442" type="curve" smooth="yes"/>
      <point x="376" y="446.5"/>
      <point x="327.5" y="375"/>
    </contour>
    <contour>
      <point x="213" y="314.5" type="curve" smooth="yes"/>
      <point x="226.5" y="430.5"/>
      <point x="320.5" y="532"/>
      <point x="415" y="529.5" type="curve" smooth="yes"/>
      <point x="495.5" y="528"/>
      <point x="516" y="444"/>
      <point x="506.5" y="370.5" type="curve" smooth="yes"/>
      <point x="493" y="254.5"/>
      <point x="419" y="155.5"/>
      <point x="321.5" y="156" type="curve" smooth="yes"/>
      <point x="238" y="156.5"/>
      <point x="202.5" y="230"/>
    </contour>
    <contour>
      <point x="46.5" y="320" type="curve" smooth="yes"/>
      <point x="79.5" y="535.5"/>
      <point x="266" y="721"/>
      <point x="493.5" y="720.5" type="curve" smooth="yes"/>
      <point x="690" y="720"/>
      <point x="794" y="553"/>
      <point x="768" y="390" type="curve" smooth="yes"/>
      <point x="751" y="248"/>
      <point x="649.5" y="135"/>
      <point x="541.5" y="138.5" type="curve" smooth="yes"/>
      <point x="469" y="140.5"/>
      <point x="444.5" y="200"/>
      <point x="454" y="262" type="curve"/>
      <point x="450" y="288.5" type="line"/>
      <point x="516.5" y="519.5" type="line"/>
      <point x="621.5" y="519.5" type="line"/>
      <point x="551" y="297.5" type="line" smooth="yes"/>
      <point x="548.5" y="289.5"/>
      <point x="545.5" y="279.5"/>
      <point x="544" y="271" type="curve" smooth="yes"/>
      <point x="542" y="252"/>
      <point x="543" y="234.5"/>
      <point x="562.5" y="231.5" type="curve" smooth="yes"/>
      <point x="603.5" y="221.5"/>
      <point x="660" y="312"/>
      <point x="667" y="390" type="curve" smooth="yes"/>
      <point x="687.5" y="509.5"/>
      <point x="634" y="629"/>
      <point x="487" y="630" type="curve" smooth="yes"/>
      <point x="308.5" y="631"/>
      <point x="175.5" y="487"/>
      <point x="147.5" y="320" type="curve" smooth="yes"/>
      <point x="125" y="180.5"/>
      <point x="185" y="68.5"/>
      <point x="338" y="66.5" type="curve" smooth="yes"/>
      <point x="407.5" y="65.5"/>
      <point x="477" y="80.5"/>
      <point x="538.5" y="111.5" type="curve"/>
      <point x="571" y="31.5" type="line"/>
      <point x="504" y="-2"/>
      <point x="421.5" y="-23"/>
      <point x="328" y="-22.5" type="curve" smooth="yes"/>
      <point x="118.5" y="-21"/>
      <point x="18.5" y="133"/>
    </contour>
  </outline>
</glyph>
<glyph name="A" format="1">
  <advance width="691"/>
  <unicode hex="0041"/>
  <outline>
    <contour>
      <point x="167" y="156.5" type="line"/>
      <point x="202.5" y="271" type="line"/>
      <point x="532.5" y="271" type="line"/>
      <point x="528" y="156.5" type="line"/>
    </contour>
    <contour>
      <point x="400" y="470.5" type="line"/>
      <point x="259.5" y="230" type="line"/>
      <point x="257.5" y="197.5" type="line"/>
      <point x="135" y="0" type="line"/>
      <point x="-30.5" y="0" type="line"/>
      <point x="445" y="744" type="line"/>
      <point x="664" y="0" type="line"/>
      <point x="506" y="0" type="line"/>
      <point x="454" y="191.5" type="line"/>
      <point x="460" y="228.5" type="line"/>
    </contour>
  </outline>
</glyph>
<glyph name="B" format="1">
  <advance width="614"/>
  <unicode hex="0042"/>
  <outline>
    <contour>
      <point x="210.5" y="354.5" type="line"/>
      <point x="222" y="420" type="line"/>
      <point x="330" y="420.5" type="line" smooth="yes"/>
      <point x="387" y="421"/>
      <point x="435.5" y="451.5"/>
      <point x="445" y="504" type="curve" smooth="yes"/>
      <point x="453.5" y="554.5"/>
      <point x="419" y="584"/>
      <point x="365" y="584.5" type="curve" smooth="yes"/>
      <point x="289" y="584.5" type="line"/>
      <point x="207.5" y="115" type="line"/>
      <point x="292" y="115.5" type="line" smooth="yes"/>
      <point x="360.5" y="116"/>
      <point x="424" y="148.5"/>
      <point x="435.5" y="217.5" type="curve" smooth="yes"/>
      <point x="446" y="282.5"/>
      <point x="397.5" y="314.5"/>
      <point x="333" y="315" type="curve" smooth="yes"/>
      <point x="203.5" y="315.5" type="line"/>
      <point x="217.5" y="394" type="line"/>
      <point x="352" y="394.5" type="line" smooth="yes"/>
      <point x="477" y="393.5"/>
      <point x="597.5" y="334"/>
      <point x="578.5" y="199" type="curve" smooth="yes"/>
      <point x="558.5" y="61.5"/>
      <point x="437" y="0"/>
      <point x="293" y="0" type="curve" smooth="yes"/>
      <point x="45" y="0" type="line"/>
      <point x="165" y="700" type="line"/>
      <point x="389.5" y="700" type="line" smooth="yes"/>
      <point x="510.5" y="700"/>
      <point x="613.5" y="642.5"/>
      <point x="595" y="522.5" type="curve" smooth="yes"/>
      <point x="577.5" y="410"/>
      <point x="464" y="355.5"/>
      <point x="339" y="354.5" type="curve" smooth="yes"/>
    </contour>
  </outline>
</glyph>
<glyph name="D" format="1">
  <advance width="696"/>
  <unicode hex="0044"/>
  <outline>
    <contour>
      <point x="164.5" y="699.5" type="line"/>
      <point x="312" y="700" type="line"/>
      <point x="191.5" y="0" type="line"/>
      <point x="46" y="0" type="line"/>
    </contour>
    <contour>
      <point x="282.5" y="0" type="curve" smooth="yes"/>
      <point x="135.5" y="0" type="line"/>
      <point x="158.5" y="131.5" type="line"/>
      <point x="292.5" y="131.5" type="line" smooth="yes"/>
      <point x="420.5" y="131.5"/>
      <point x="525.5" y="211"/>
      <point x="548.5" y="350" type="curve" smooth="yes"/>
      <point x="569.5" y="483"/>
      <point x="499.5" y="569"/>
      <point x="374.5" y="569" type="curve" smooth="yes"/>
      <point x="232" y="569" type="line"/>
      <point x="255.5" y="700" type="line"/>
      <point x="393" y="700" type="line" smooth="yes"/>
      <point x="604" y="700"/>
      <point x="726" y="550.5"/>
      <point x="696" y="350" type="curve" smooth="yes"/>
      <point x="664.5" y="143"/>
      <point x="498.5" y="0"/>
    </contour>
  </outline>
</glyph>
<glyph name="E" format="1">
  <advance width="570"/>
  <unicode hex="0045"/>
  <outline>
    <contour>
      <point x="136" y="0" type="line"/>
      <point x="157.5" y="122.5" type="line"/>
      <point x="503" y="122.5" type="line"/>
      <point x="481.5" y="0" type="line"/>
    </contour>
    <contour>
      <point x="235" y="577.5" type="line"/>
      <point x="256" y="700" type="line"/>
      <point x="601" y="700" type="line"/>
      <point x="580" y="577.5" type="line"/>
    </contour>
    <contour>
      <point x="189" y="311.5" type="line"/>
      <point x="210" y="431" type="line"/>
      <point x="536" y="431" type="line"/>
      <point x="515" y="311.5" type="line"/>
    </contour>
    <contour>
      <point x="164.5" y="700" type="line"/>
      <point x="304.5" y="700" type="line"/>
      <point x="184" y="0" type="line"/>
      <point x="46" y="0" type="line"/>
    </contour>
  </outline>
</glyph>
<glyph name="F" format="1">
  <advance width="521"/>
  <unicode hex="0046"/>
  <outline>
    <contour>
      <point x="234" y="573" type="line"/>
      <point x="256" y="700" type="line"/>
      <point x="562.5" y="700" type="line"/>
      <point x="540.5" y="573" type="line"/>
    </contour>
    <contour>
      <point x="187" y="297.5" type="line"/>
      <point x="208" y="418" type="line"/>
      <point x="504.5" y="418" type="line"/>
      <point x="483.5" y="297.5" type="line"/>
    </contour>
    <contour>
      <point x="164.5" y="700" type="line"/>
      <point x="304.5" y="700" type="line"/>
      <point x="184" y="0" type="line"/>
      <point x="46" y="0" type="line"/>
    </contour>
  </outline>
</glyph>
<glyph name="G" format="1">
  <advance width="778"/>
  <unicode hex="0047"/>
  <outline>
    <contour>
      <point x="419" y="259.5" type="line"/>
      <point x="440" y="374" type="line"/>
      <point x="776" y="374" type="line"/>
      <point x="749" y="166.5"/>
      <point x="608.5" y="-18.5"/>
      <point x="375" y="-18.5" type="curve" smooth="yes"/>
      <point x="162.5" y="-18.5"/>
      <point x="36.5" y="149.5"/>
      <point x="66" y="350" type="curve" smooth="yes"/>
      <point x="98" y="559"/>
      <point x="276.5" y="714"/>
      <point x="493" y="714.5" type="curve" smooth="yes"/>
      <point x="622" y="715"/>
      <point x="715.5" y="653"/>
      <point x="771" y="552.5" type="curve"/>
      <point x="640" y="482" type="line"/>
      <point x="611" y="544"/>
      <point x="559.5" y="584.5"/>
      <point x="479.5" y="584" type="curve" smooth="yes"/>
      <point x="349" y="583.5"/>
      <point x="238" y="483"/>
      <point x="215.5" y="350" type="curve" smooth="yes"/>
      <point x="196" y="224"/>
      <point x="258.5" y="111.5"/>
      <point x="390" y="111" type="curve" smooth="yes"/>
      <point x="500.37" y="110.5"/>
      <point x="566.497" y="175.384"/>
      <point x="607.735" y="259.5" type="curve"/>
    </contour>
  </outline>
</glyph>
<glyph name="H" format="2">
  <advance width="742"/>
  <unicode hex="0048"/>
  <outline>
    <contour>
      <point x="143" y="307" type="line"/>
      <point x="166" y="438" type="line"/>
      <point x="669" y="438" type="line"/>
      <point x="646" y="307" type="line"/>
    </contour>
    <contour>
      <point x="620" y="700" type="line"/>
      <point x="765" y="700" type="line"/>
      <point x="644" y="0" type="line"/>
      <point x="502" y="0" type="line"/>
    </contour>
    <contour>
      <point x="164" y="700" type="line"/>
      <point x="308" y="700" type="line"/>
      <point x="188" y="0" type="line"/>
      <point x="46" y="0" type="line"/>
    </contour>
  </outline>
</glyph>
<glyph name="I" format="2">
  <advance width="289"/>
  <unicode hex="0049"/>
  <outline>
    <contour>
      <point x="164" y="700" type="line"/>
      <point x="310" y="700" type="line"/>
      <point x="190" y="0" type="line"/>
      <point x="46" y="0" type="line"/>
    </contour>
  </outline>
</glyph>
<glyph name="J" format="1">
  <advance width="295"/>
  <unicode hex="004A"/>
  <outline>
    <contour>
      <point x="-111.5" y="-71.5" type="line"/>
      <point x="-94" y="-90.5"/>
      <point x="-69.5" y="-106.5"/>
      <point x="-40" y="-105.5" type="curve" smooth="yes"/>
      <point x="-2.5" y="-104"/>
      <point x="33.5" y="-72"/>
      <point x="40.5" y="-21.5" type="curve" smooth="yes"/>
      <point x="165" y="700" type="line"/>
      <point x="316.5" y="700" type="line"/>
      <point x="188" y="-56" type="line" smooth="yes"/>
      <point x="168.5" y="-173"/>
      <point x="72.5" y="-234"/>
      <point x="-43.5" y="-233.5" type="curve" smooth="yes"/>
      <point x="-107.5" y="-233"/>
      <point x="-164.5" y="-206"/>
      <point x="-203" y="-177" type="curve"/>
    </contour>
  </outline>
</glyph>
<glyph name="K" format="1">
  <advance width="641"/>
  <unicode hex="004B"/>
  <outline>
    <contour>
      <point x="164.5" y="700" type="line"/>
      <point x="312.5" y="700" type="line"/>
      <point x="192" y="0" type="line"/>
      <point x="46" y="0" type="line"/>
    </contour>
    <contour>
      <point x="548.5" y="699.5" type="line"/>
      <point x="723" y="699.5" type="line"/>
      <point x="381.5" y="369" type="line"/>
      <point x="612" y="0" type="line"/>
      <point x="445" y="0" type="line"/>
      <point x="213" y="371.5" type="line"/>
    </contour>
  </outline>
</glyph>
<glyph name="L" format="1">
  <advance width="490"/>
  <unicode hex="004C"/>
  <outline>
    <contour>
      <point x="165" y="700" type="line"/>
      <point x="308.5" y="700" type="line"/>
      <point x="210.5" y="127" type="line"/>
      <point x="481.5" y="127" type="line"/>
      <point x="459" y="0" type="line"/>
      <point x="45" y="0" type="line"/>
    </contour>
  </outline>
</glyph>
<glyph name="M" format="1">
  <advance width="841"/>
  <unicode hex="004D"/>
  <outline>
    <contour>
      <point x="266.385" y="386.717" type="line"/>
      <point x="156" y="0" type="line"/>
      <point x="5.5" y="0" type="line"/>
      <point x="233.5" y="735.5" type="line"/>
      <point x="441" y="287" type="line"/>
      <point x="806" y="739.5" type="line"/>
      <point x="781.5" y="0" type="line"/>
      <point x="631.5" y="0" type="line"/>
      <point x="654.663" y="380.803" type="line"/>
      <point x="407" y="64" type="line"/>
    </contour>
  </outline>
</glyph>
<glyph name="N" format="1">
  <advance width="764"/>
  <unicode hex="004E"/>
  <outline>
    <contour>
      <point x="647" y="700" type="line"/>
      <point x="785.5" y="700" type="line"/>
      <point x="660" y="-33.5" type="line"/>
      <point x="258" y="426.272" type="line"/>
      <point x="184" y="0" type="line"/>
      <point x="44.5" y="0" type="line"/>
      <point x="170.5" y="733.5" type="line"/>
      <point x="572.5" y="273.267" type="line"/>
    </contour>
  </outline>
</glyph>
<glyph name="O" format="1">
  <advance width="787"/>
  <unicode hex="004F"/>
  <outline>
    <contour>
      <point x="217" y="350" type="curve" smooth="yes"/>
      <point x="198.5" y="232.5"/>
      <point x="255.5" y="122.5"/>
      <point x="383.5" y="121.5" type="curve" smooth="yes"/>
      <point x="513" y="120.5"/>
      <point x="615" y="225.5"/>
      <point x="636.5" y="350" type="curve" smooth="yes"/>
      <point x="655" y="467.5"/>
      <point x="599.5" y="577.5"/>
      <point x="470" y="578.5" type="curve" smooth="yes"/>
      <point x="340.5" y="579.5"/>
      <point x="238" y="474.5"/>
    </contour>
    <contour>
      <point x="66" y="350" type="curve" smooth="yes"/>
      <point x="97" y="554"/>
      <point x="273.5" y="715"/>
      <point x="484.5" y="714.5" type="curve" smooth="yes"/>
      <point x="692.5" y="714"/>
      <point x="816" y="546.5"/>
      <point x="787.5" y="350" type="curve" smooth="yes"/>
      <point x="756.5" y="145.5"/>
      <point x="582" y="-19"/>
      <point x="368" y="-18.5" type="curve" smooth="yes"/>
      <point x="157.5" y="-18"/>
      <point x="37.5" y="153.5"/>
    </contour>
  </outline>
</glyph>
<glyph name="P" format="1">
  <advance width="583"/>
  <unicode hex="0050"/>
  <outline>
    <contour>
      <point x="164.5" y="699.5" type="line"/>
      <point x="308.5" y="700" type="line"/>
      <point x="188" y="0" type="line"/>
      <point x="46" y="0" type="line"/>
    </contour>
    <contour>
      <point x="230" y="577.5" type="line"/>
      <point x="251.5" y="700" type="line"/>
      <point x="382.5" y="700" type="line" smooth="yes"/>
      <point x="530.5" y="699"/>
      <point x="620.5" y="613.5"/>
      <point x="604" y="476" type="curve" smooth="yes"/>
      <point x="587" y="336"/>
      <point x="468" y="254.5"/>
      <point x="315" y="253.5" type="curve" smooth="yes"/>
      <point x="174" y="253.5" type="line"/>
      <point x="196" y="376" type="line"/>
      <point x="327.5" y="376" type="line" smooth="yes"/>
      <point x="396.5" y="377"/>
      <point x="454" y="411.5"/>
      <point x="466" y="476.5" type="curve" smooth="yes"/>
      <point x="477" y="539.5"/>
      <point x="435.5" y="577"/>
      <point x="369.5" y="577.5" type="curve" smooth="yes"/>
    </contour>
  </outline>
</glyph>
<glyph name="Q" format="1">
  <advance width="817"/>
  <unicode hex="0051"/>
  <outline>
    <contour>
      <point x="217" y="350" type="curve" smooth="yes"/>
      <point x="197.5" y="226.5"/>
      <point x="263" y="114"/>
      <point x="393" y="113" type="curve" smooth="yes"/>
      <point x="522" y="112"/>
      <point x="625.5" y="211.5"/>
      <point x="647" y="336" type="curve" smooth="yes"/>
      <point x="666.5" y="455.5"/>
      <point x="609" y="577.5"/>
      <point x="472" y="578.5" type="curve" smooth="yes"/>
      <point x="342.5" y="579.5"/>
      <point x="238.5" y="475"/>
    </contour>
    <contour>
      <point x="66" y="350" type="curve" smooth="yes"/>
      <point x="97" y="554"/>
      <point x="275.5" y="715"/>
      <point x="486.5" y="714.5" type="curve" smooth="yes"/>
      <point x="694.5" y="714"/>
      <point x="816" y="546"/>
      <point x="787.5" y="350" type="curve" smooth="yes"/>
      <point x="756.5" y="146"/>
      <point x="584.5" y="-19"/>
      <point x="370.5" y="-18.5" type="curve" smooth="yes"/>
      <point x="160" y="-18"/>
      <point x="37.5" y="153.5"/>
    </contour>
    <contour>
      <point x="378.5" y="300" type="line"/>
      <point x="526" y="300" type="line"/>
      <point x="791" y="-8.5" type="line"/>
      <point x="639" y="-8.5" type="line"/>
    </contour>
  </outline>
</glyph>
<glyph name="R" format="1">
  <advance width="603"/>
  <unicode hex="0052"/>
  <outline>
    <contour>
      <point x="258" y="325.5" type="line"/>
      <point x="405" y="325.5" type="line"/>
      <point x="570" y="0" type="line"/>
      <point x="406.5" y="0" type="line"/>
    </contour>
    <contour>
      <point x="164.5" y="700" type="line"/>
      <point x="308.5" y="700" type="line"/>
      <point x="188" y="0" type="line"/>
      <point x="46" y="0" type="line"/>
    </contour>
    <contour>
      <point x="230" y="575.5" type="line"/>
      <point x="251.5" y="700" type="line"/>
      <point x="391.5" y="700" type="line" smooth="yes"/>
      <point x="539" y="700"/>
      <point x="632" y="610.5"/>
      <point x="613.5" y="476" type="curve" smooth="yes"/>
      <point x="594.5" y="339"/>
      <point x="475.5" y="253.5"/>
      <point x="323.5" y="253.5" type="curve" smooth="yes"/>
      <point x="174" y="253.5" type="line"/>
      <point x="195" y="368.5" type="line"/>
      <point x="326.5" y="368.5" type="line" smooth="yes"/>
      <point x="396" y="368.5"/>
      <point x="453.5" y="407"/>
      <point x="465.5" y="472" type="curve" smooth="yes"/>
      <point x="476.5" y="534.5"/>
      <point x="435.5" y="575.5"/>
      <point x="369" y="575.5" type="curve" smooth="yes"/>
    </contour>
  </outline>
</glyph>
<glyph name="S" format="1">
  <advance width="585"/>
  <unicode hex="0053"/>
  <outline>
    <contour>
      <point x="148.5" y="244" type="line"/>
      <point x="178.5" y="168.5"/>
      <point x="215" y="109.5"/>
      <point x="293" y="109.5" type="curve" smooth="yes"/>
      <point x="349.5" y="109"/>
      <point x="393.5" y="140"/>
      <point x="403" y="190.5" type="curve" smooth="yes"/>
      <point x="415.5" y="257.5"/>
      <point x="346" y="285.5"/>
      <point x="282" y="312.5" type="curve" smooth="yes"/>
      <point x="204" y="346"/>
      <point x="117.5" y="408"/>
      <point x="132.5" y="523" type="curve" smooth="yes"/>
      <point x="150.5" y="639.5"/>
      <point x="264" y="714"/>
      <point x="392" y="714" type="curve" smooth="yes"/>
      <point x="512" y="714"/>
      <point x="580" y="642"/>
      <point x="606.5" y="560.5" type="curve"/>
      <point x="490" y="496.5" type="line"/>
      <point x="467.5" y="547"/>
      <point x="438" y="587.5"/>
      <point x="379.5" y="588" type="curve" smooth="yes"/>
      <point x="330" y="588.5"/>
      <point x="287" y="560"/>
      <point x="279" y="517.5" type="curve" smooth="yes"/>
      <point x="267" y="460"/>
      <point x="350.5" y="433"/>
      <point x="413" y="408" type="curve" smooth="yes"/>
      <point x="502" y="371.5"/>
      <point x="567.5" y="303"/>
      <point x="553" y="194" type="curve" smooth="yes"/>
      <point x="533.5" y="63"/>
      <point x="421" y="-18.5"/>
      <point x="277.5" y="-18.5" type="curve" smooth="yes"/>
      <point x="156.5" y="-18.5"/>
      <point x="68.5" y="61"/>
      <point x="36" y="173" type="curve"/>
    </contour>
  </outline>
</glyph>
<glyph name="T" format="1">
  <advance width="517"/>
  <unicode hex="0054"/>
  <outline>
    <contour>
      <point x="73.5" y="569" type="line"/>
      <point x="97" y="700" type="line"/>
      <point x="606.5" y="700" type="line"/>
      <point x="583.5" y="569" type="line"/>
      <point x="400.5" y="569" type="line"/>
      <point x="303" y="0" type="line"/>
      <point x="160" y="0" type="line"/>
      <point x="257" y="569" type="line"/>
    </contour>
  </outline>
</glyph>
<glyph name="U" format="1">
  <advance width="658"/>
  <unicode hex="0055"/>
  <outline>
    <contour>
      <point x="160" y="700" type="line"/>
      <point x="303" y="700" type="line"/>
      <point x="222.5" y="238.5" type="line" smooth="yes"/>
      <point x="213.5" y="169.5"/>
      <point x="238" y="109"/>
      <point x="317" y="108.5" type="curve" smooth="yes"/>
      <point x="402.5" y="108"/>
      <point x="450" y="166.5"/>
      <point x="462.5" y="239" type="curve"/>
      <point x="542" y="700" type="line"/>
      <point x="685" y="700" type="line"/>
      <point x="605" y="230" type="line" smooth="yes"/>
      <point x="580" y="76"/>
      <point x="467" y="-23.5"/>
      <point x="303.5" y="-23.5" type="curve" smooth="yes"/>
      <point x="152" y="-23.5"/>
      <point x="58" y="79"/>
      <point x="79.5" y="230" type="curve"/>
    </contour>
  </outline>
</glyph>
<glyph name="V" format="2">
  <advance width="691"/>
  <unicode hex="0056"/>
  <outline>
    <contour>
      <point x="365" y="249" type="line"/>
      <point x="617" y="700" type="line"/>
      <point x="785" y="700" type="line"/>
      <point x="323" y="-44" type="line"/>
      <point x="92" y="700" type="line"/>
      <point x="254" y="700" type="line"/>
    </contour>
  </outline>
</glyph>
<glyph name="W" format="1">
  <advance width="1012"/>
  <unicode hex="0057"/>
  <outline>
    <contour>
      <point x="722.246" y="256.887" type="line"/>
      <point x="930.5" y="699.5" type="line"/>
      <point x="1100.5" y="699.5" type="line"/>
      <point x="698.5" y="-41.5" type="line"/>
      <point x="555" y="415" type="line"/>
      <point x="268.5" y="-42" type="line"/>
      <point x="96.5" y="700" type="line"/>
      <point x="262" y="700" type="line"/>
      <point x="333.036" y="259.058" type="line"/>
      <point x="602" y="737.5" type="line"/>
    </contour>
  </outline>
</glyph>
<glyph name="X" format="2">
  <advance width="628"/>
  <unicode hex="0058"/>
  <outline>
    <contour>
      <point x="525" y="700" type="line"/>
      <point x="703" y="700" type="line"/>
      <point x="438" y="358" type="line"/>
      <point x="606" y="0" type="line"/>
      <point x="435" y="0" type="line"/>
      <point x="340" y="248" type="line"/>
      <point x="163" y="0" type="line"/>
      <point x="-15" y="0" type="line"/>
      <point x="274" y="364" type="line"/>
      <point x="121" y="700" type="line"/>
      <point x="292" y="700" type="line"/>
      <point x="373" y="483" type="line"/>
    </contour>
  </outline>
</glyph>
<glyph name="Y" format="1">
  <advance width="612"/>
  <unicode hex="0059"/>
  <outline>
    <contour>
      <point x="540.5" y="699.5" type="line"/>
      <point x="708.5" y="699.5" type="line"/>
      <point x="400.5" y="285.876" type="line"/>
      <point x="352" y="0" type="line"/>
      <point x="206.5" y="0" type="line"/>
      <point x="258" y="293.376" type="line"/>
      <point x="93.5" y="700" type="line"/>
      <point x="254" y="700" type="line"/>
      <point x="349.5" y="421.5" type="line"/>
    </contour>
  </outline>
</glyph>
<glyph name="Z" format="2">
  <advance width="580"/>
  <unicode hex="005A"/>
  <outline>
    <contour>
      <point x="118" y="569" type="line"/>
      <point x="141" y="700" type="line"/>
      <point x="661" y="700" type="line"/>
      <point x="232" y="127" type="line"/>
      <point x="532" y="127" type="line"/>
      <point x="509" y="0" type="line"/>
      <point x="-20" y="0" type="line"/>
      <point x="406" y="568" type="line"/>
    </contour>
  </outline>
</glyph>
<glyph name="bracketleft" format="1">
  <advance width="333"/>
  <unicode hex="005B"/>
  <outline>
    <contour>
      <point x="304" y="664.5" type="line"/>
      <point x="185" y="-104.5" type="line"/>
      <point x="283.5" y="-104.5" type="line"/>
      <point x="265" y="-220" type="line"/>
      <point x="38" y="-220" type="line"/>
      <point x="192.5" y="780" type="line"/>
      <point x="419.5" y="780" type="line"/>
      <point x="401.5" y="665" type="line"/>
    </contour>
  </outline>
</glyph>
<glyph name="backslash" format="2">
  <advance width="520"/>
  <unicode hex="005C"/>
  <outline>
    <contour>
      <point x="107" y="700" type="line"/>
      <point x="232" y="700" type="line"/>
      <point x="479" y="0" type="line"/>
      <point x="355" y="0" type="line"/>
    </contour>
  </outline>
</glyph>
<glyph name="bracketright" format="2">
  <advance width="334"/>
  <unicode hex="005D"/>
  <outline>
    <contour>
      <point x="83" y="-105" type="line"/>
      <point x="202" y="665" type="line"/>
      <point x="103" y="665" type="line"/>
      <point x="122" y="780" type="line"/>
      <point x="348" y="780" type="line"/>
      <point x="194" y="-220" type="line"/>
      <point x="-33" y="-220" type="line"/>
      <point x="-15" y="-105" type="line"/>
    </contour>
  </outline>
</glyph>
<glyph name="asciicircum" format="1">
  <advance width="494"/>
  <unicode hex="005E"/>
  <outline>
    <contour>
      <point x="324" y="590" type="line"/>
      <point x="215" y="452" type="line"/>
      <point x="92" y="452" type="line"/>
      <point x="302" y="709.5" type="line"/>
      <point x="376.5" y="710" type="line"/>
      <point x="498" y="451" type="line"/>
      <point x="383.5" y="451" type="line"/>
    </contour>
  </outline>
</glyph>
<glyph name="underscore" format="1">
  <advance width="506"/>
  <unicode hex="005F"/>
  <outline>
    <contour>
      <point x="-53.5" y="-147.5" type="line"/>
      <point x="-39" y="-64" type="line"/>
      <point x="470" y="-64" type="line"/>
      <point x="455.5" y="-147.5" type="line"/>
    </contour>
  </outline>
</glyph>
<glyph name="grave" format="1">
  <advance width="363"/>
  <unicode hex="0060"/>
  <outline>
    <contour>
      <point x="141.5" y="657.5" type="line"/>
      <point x="248" y="704.5" type="line"/>
      <point x="371.5" y="542.5" type="line"/>
      <point x="296" y="506" type="line"/>
    </contour>
  </outline>
</glyph>
<glyph name="b" format="1">
  <advance width="584"/>
  <unicode hex="0062"/>
  <outline>
    <contour>
      <point x="294.5" y="780" type="line"/>
      <point x="160.5" y="0" type="line"/>
      <point x="31" y="0" type="line"/>
      <point x="164.5" y="780" type="line"/>
    </contour>
    <contour>
      <point x="567" y="230" type="curve" smooth="yes"/>
      <point x="548.5" y="93"/>
      <point x="439" y="-10.5"/>
      <point x="314.5" y="-10" type="curve" smooth="yes"/>
      <point x="191" y="-9.5"/>
      <point x="143" y="105.5"/>
      <point x="159" y="230" type="curve" smooth="yes"/>
      <point x="177" y="361.5"/>
      <point x="265" y="469"/>
      <point x="387.5" y="469.5" type="curve" smooth="yes"/>
      <point x="512" y="470"/>
      <point x="584" y="361.5"/>
    </contour>
    <contour>
      <point x="433" y="230" type="curve" smooth="yes"/>
      <point x="443.5" y="298.5"/>
      <point x="408.5" y="360.5"/>
      <point x="339" y="361" type="curve" smooth="yes"/>
      <point x="275.5" y="361.5"/>
      <point x="211.5" y="303"/>
      <point x="200" y="230" type="curve" smooth="yes"/>
      <point x="190.5" y="161.5"/>
      <point x="225.5" y="101"/>
      <point x="287.5" y="99" type="curve" smooth="yes"/>
      <point x="358" y="97"/>
      <point x="421" y="157.5"/>
    </contour>
  </outline>
</glyph>
<glyph name="c" format="1">
  <advance width="473"/>
  <unicode hex="0063"/>
  <outline>
    <contour>
      <point x="178.5" y="230" type="curve" smooth="yes"/>
      <point x="168" y="158.5"/>
      <point x="209.5" y="99.5"/>
      <point x="282.5" y="98" type="curve" smooth="yes"/>
      <point x="343" y="97"/>
      <point x="399" y="129.5"/>
      <point x="434.5" y="169.5" type="curve"/>
      <point x="417" y="36.5" type="line"/>
      <point x="377.5" y="8"/>
      <point x="327" y="-9.5"/>
      <point x="265" y="-9.5" type="curve" smooth="yes"/>
      <point x="123.5" y="-9"/>
      <point x="28.5" y="93.5"/>
      <point x="46.5" y="230" type="curve" smooth="yes"/>
      <point x="65" y="370"/>
      <point x="186.5" y="469"/>
      <point x="331" y="469.5" type="curve" smooth="yes"/>
      <point x="390.5" y="469.5"/>
      <point x="438.5" y="452"/>
      <point x="474.5" y="424" type="curve"/>
      <point x="456" y="290" type="line"/>
      <point x="432" y="334"/>
      <point x="384.5" y="363"/>
      <point x="330.5" y="362.5" type="curve" smooth="yes"/>
      <point x="254" y="362"/>
      <point x="190" y="303"/>
    </contour>
  </outline>
</glyph>
<glyph name="d" format="1">
  <advance width="584"/>
  <unicode hex="0064"/>
  <outline>
    <contour>
      <point x="504" y="779.5" type="line"/>
      <point x="634.5" y="780" type="line"/>
      <point x="500" y="0" type="line"/>
      <point x="371.5" y="0" type="line"/>
    </contour>
    <contour>
      <point x="42.5" y="230" type="curve" smooth="yes"/>
      <point x="61" y="367"/>
      <point x="171" y="470.5"/>
      <point x="295.5" y="470" type="curve" smooth="yes"/>
      <point x="419" y="469.5"/>
      <point x="467" y="354.5"/>
      <point x="451" y="230" type="curve" smooth="yes"/>
      <point x="433" y="98.5"/>
      <point x="344.5" y="-9"/>
      <point x="222" y="-9.5" type="curve" smooth="yes"/>
      <point x="97.5" y="-10"/>
      <point x="25.5" y="98.5"/>
    </contour>
    <contour>
      <point x="176.5" y="230" type="curve" smooth="yes"/>
      <point x="166" y="161.5"/>
      <point x="201" y="99.5"/>
      <point x="270.5" y="99" type="curve" smooth="yes"/>
      <point x="334" y="98.5"/>
      <point x="399" y="157"/>
      <point x="410.5" y="230" type="curve" smooth="yes"/>
      <point x="420" y="298.5"/>
      <point x="384" y="359"/>
      <point x="322" y="361" type="curve" smooth="yes"/>
      <point x="251.5" y="363"/>
      <point x="188.5" y="302.5"/>
    </contour>
  </outline>
</glyph>
<glyph name="e" format="1">
  <advance width="537"/>
  <unicode hex="0065"/>
  <outline>
    <contour>
      <point x="118.5" y="201.5" type="line"/>
      <point x="130" y="282" type="line"/>
      <point x="399.935" y="282" type="line"/>
      <point x="399.889" y="333.202"/>
      <point x="375.551" y="374.5"/>
      <point x="316" y="375" type="curve" smooth="yes"/>
      <point x="246" y="375.5"/>
      <point x="196" y="321.5"/>
      <point x="183" y="255.5" type="curve"/>
      <point x="176.5" y="230" type="line"/>
      <point x="167" y="155"/>
      <point x="197.5" y="93.5"/>
      <point x="272.5" y="91.5" type="curve" smooth="yes"/>
      <point x="325.5" y="90"/>
      <point x="363" y="119"/>
      <point x="393" y="155.5" type="curve"/>
      <point x="502" y="116.5" type="line"/>
      <point x="447.5" y="42.5"/>
      <point x="377" y="-10"/>
      <point x="261" y="-9.5" type="curve" smooth="yes"/>
      <point x="120.5" y="-8.5"/>
      <point x="33.5" y="96.5"/>
      <point x="50.5" y="230" type="curve" smooth="yes"/>
      <point x="53" y="247"/>
      <point x="56.5" y="263.5"/>
      <point x="61.5" y="279.5" type="curve" smooth="yes"/>
      <point x="96" y="391.5"/>
      <point x="198.5" y="470"/>
      <point x="325.5" y="469.5" type="curve" smooth="yes"/>
      <point x="462.5" y="469"/>
      <point x="539" y="371.5"/>
      <point x="523.5" y="236" type="curve" smooth="yes"/>
      <point x="522" y="226"/>
      <point x="520" y="214.5"/>
      <point x="517.5" y="201.5" type="curve"/>
    </contour>
  </outline>
</glyph>
<glyph name="f" format="2">
  <advance width="317"/>
  <unicode hex="0066"/>
  <outline>
    <contour>
      <point x="74" y="460" type="line"/>
      <point x="358" y="460" type="line"/>
      <point x="339" y="349" type="line"/>
      <point x="54" y="349" type="line"/>
    </contour>
    <contour>
      <point x="378" y="649" type="line"/>
      <point x="367" y="664"/>
      <point x="354" y="675"/>
      <point x="337" y="675" type="curve" smooth="yes"/>
      <point x="303" y="675"/>
      <point x="282" y="641"/>
      <point x="276" y="600" type="curve" smooth="yes"/>
      <point x="173" y="0" type="line"/>
      <point x="47" y="0" type="line"/>
      <point x="154" y="630" type="line" smooth="yes"/>
      <point x="170" y="726"/>
      <point x="235" y="795"/>
      <point x="338" y="794" type="curve" smooth="yes"/>
      <point x="390" y="794"/>
      <point x="423" y="770"/>
      <point x="447" y="745" type="curve"/>
    </contour>
  </outline>
</glyph>
<glyph name="g" format="1">
  <advance width="580"/>
  <unicode hex="0067"/>
  <outline>
    <contour>
      <point x="6.5" y="-32" type="curve"/>
      <point x="130.5" y="-32.5" type="line"/>
      <point x="130.5" y="-89"/>
      <point x="160.5" y="-127.5"/>
      <point x="225" y="-128" type="curve" smooth="yes"/>
      <point x="297.5" y="-129"/>
      <point x="360" y="-71"/>
      <point x="372" y="10" type="curve" smooth="yes"/>
      <point x="449.5" y="460" type="line"/>
      <point x="575" y="460" type="line"/>
      <point x="498" y="10" type="line" smooth="yes"/>
      <point x="474.5" y="-143.5"/>
      <point x="367.5" y="-236"/>
      <point x="224" y="-236.5" type="curve" smooth="yes"/>
      <point x="79" y="-237"/>
      <point x="2" y="-155"/>
    </contour>
    <contour>
      <point x="43.5" y="234.5" type="curve" smooth="yes"/>
      <point x="62" y="371.5"/>
      <point x="171.5" y="470.5"/>
      <point x="295.5" y="470" type="curve" smooth="yes"/>
      <point x="418.5" y="469.5"/>
      <point x="468" y="359"/>
      <point x="452" y="234" type="curve" smooth="yes"/>
      <point x="434.5" y="103"/>
      <point x="345.5" y="-0.5"/>
      <point x="223.5" y="-1" type="curve" smooth="yes"/>
      <point x="99.5" y="-1.5"/>
      <point x="26.5" y="102.5"/>
    </contour>
    <contour>
      <point x="177.5" y="234" type="curve" smooth="yes"/>
      <point x="167" y="164.5"/>
      <point x="203.5" y="108.5"/>
      <point x="272" y="107.5" type="curve" smooth="yes"/>
      <point x="335" y="106.5"/>
      <point x="400.5" y="162"/>
      <point x="411.5" y="234.5" type="curve" smooth="yes"/>
      <point x="421" y="303.5"/>
      <point x="383.5" y="360"/>
      <point x="322" y="361" type="curve" smooth="yes"/>
      <point x="250" y="362"/>
      <point x="189" y="306.5"/>
    </contour>
  </outline>
</glyph>
<glyph name="h" format="1">
  <advance width="539"/>
  <unicode hex="0068"/>
  <outline>
    <contour>
      <point x="297.5" y="780" type="line"/>
      <point x="163.5" y="0" type="line"/>
      <point x="33.5" y="0" type="line"/>
      <point x="167" y="780" type="line"/>
    </contour>
    <contour>
      <point x="372" y="280" type="line" smooth="yes"/>
      <point x="378" y="328"/>
      <point x="370" y="370"/>
      <point x="317.5" y="372.5" type="curve" smooth="yes"/>
      <point x="263" y="375"/>
      <point x="224" y="329.5"/>
      <point x="211.5" y="280.5" type="curve"/>
      <point x="184.5" y="281" type="line"/>
      <point x="203" y="382"/>
      <point x="265" y="474"/>
      <point x="374.5" y="474.5" type="curve" smooth="yes"/>
      <point x="482" y="475"/>
      <point x="516" y="398.5"/>
      <point x="502.5" y="298.5" type="curve"/>
      <point x="451.5" y="0" type="line"/>
      <point x="323" y="0" type="line"/>
    </contour>
  </outline>
</glyph>
<glyph name="i" format="2">
  <advance width="263"/>
  <unicode hex="0069"/>
  <outline>
    <contour>
      <point x="135" y="637" type="curve" smooth="yes"/>
      <point x="135" y="680"/>
      <point x="171" y="711"/>
      <point x="214" y="711" type="curve" smooth="yes"/>
      <point x="257" y="711"/>
      <point x="292" y="680"/>
      <point x="292" y="637" type="curve" smooth="yes"/>
      <point x="292" y="594"/>
      <point x="257" y="563"/>
      <point x="214" y="563" type="curve" smooth="yes"/>
      <point x="171" y="563"/>
      <point x="135" y="594"/>
    </contour>
    <contour>
      <point x="119" y="460" type="line"/>
      <point x="247" y="460" type="line"/>
      <point x="168" y="0" type="line"/>
      <point x="42" y="0" type="line"/>
    </contour>
  </outline>
</glyph>
<glyph name="j" format="1">
  <advance width="257"/>
  <unicode hex="006A"/>
  <outline>
    <contour>
      <point x="129.5" y="637.5" type="curve" smooth="yes"/>
      <point x="129.5" y="680"/>
      <point x="164" y="711.5"/>
      <point x="208" y="711.5" type="curve" smooth="yes"/>
      <point x="252" y="711.5"/>
      <point x="286" y="680"/>
      <point x="286" y="637.5" type="curve" smooth="yes"/>
      <point x="286" y="595"/>
      <point x="252" y="563.5"/>
      <point x="208" y="563.5" type="curve" smooth="yes"/>
      <point x="164" y="563.5"/>
      <point x="129.5" y="595"/>
    </contour>
    <contour>
      <point x="-73.5" y="-88" type="line"/>
      <point x="-62.5" y="-104"/>
      <point x="-47" y="-113.5"/>
      <point x="-30" y="-114" type="curve" smooth="yes"/>
      <point x="3" y="-115"/>
      <point x="24" y="-78"/>
      <point x="29" y="-38.5" type="curve" smooth="yes"/>
      <point x="114.5" y="460" type="line"/>
      <point x="241" y="460" type="line"/>
      <point x="151" y="-69" type="line" smooth="yes"/>
      <point x="134.5" y="-164.5"/>
      <point x="74" y="-235"/>
      <point x="-29" y="-233.5" type="curve" smooth="yes"/>
      <point x="-81" y="-233"/>
      <point x="-116.5" y="-209"/>
      <point x="-141.5" y="-184.5" type="curve"/>
    </contour>
  </outline>
</glyph>
<glyph name="k" format="1">
  <advance width="521"/>
  <unicode hex="006B"/>
  <outline>
    <contour>
      <point x="164" y="779.5" type="line"/>
      <point x="290" y="780" type="line"/>
      <point x="156" y="0" type="line"/>
      <point x="32" y="0" type="line"/>
    </contour>
    <contour>
      <point x="393" y="459.5" type="line"/>
      <point x="554" y="459.5" type="line"/>
      <point x="323.5" y="265" type="line"/>
      <point x="489" y="0" type="line"/>
      <point x="341.5" y="0" type="line"/>
      <point x="173" y="273.5" type="line"/>
    </contour>
  </outline>
</glyph>
<glyph name="l" format="1">
  <advance width="250"/>
  <unicode hex="006C"/>
  <outline>
    <contour>
      <point x="166.5" y="779.5" type="line"/>
      <point x="297.5" y="780" type="line"/>
      <point x="163" y="0" type="line"/>
      <point x="34" y="0" type="line"/>
    </contour>
  </outline>
</glyph>
<glyph name="m" format="1">
  <advance width="784"/>
  <unicode hex="006D"/>
  <outline>
    <contour>
      <point x="347.5" y="280" type="line" smooth="yes"/>
      <point x="352.5" y="326"/>
      <point x="350" y="370"/>
      <point x="301" y="372.5" type="curve" smooth="yes"/>
      <point x="250.5" y="375.5"/>
      <point x="217" y="329"/>
      <point x="206.5" y="281" type="curve"/>
      <point x="179" y="276.5" type="line"/>
      <point x="197" y="376"/>
      <point x="255" y="469.5"/>
      <point x="361.5" y="470" type="curve" smooth="yes"/>
      <point x="466" y="470.5"/>
      <point x="490" y="396"/>
      <point x="478.5" y="298.5" type="curve"/>
      <point x="427.5" y="0" type="line"/>
      <point x="298" y="0" type="line"/>
    </contour>
    <contour>
      <point x="238" y="460" type="line"/>
      <point x="158.5" y="0" type="line"/>
      <point x="33" y="0" type="line"/>
      <point x="112.5" y="460" type="line"/>
    </contour>
    <contour>
      <point x="747" y="294.5" type="curve" smooth="yes"/>
      <point x="697.5" y="0" type="line"/>
      <point x="567" y="0" type="line"/>
      <point x="617" y="280" type="line" smooth="yes"/>
      <point x="622" y="326"/>
      <point x="619" y="370"/>
      <point x="570" y="372.5" type="curve" smooth="yes"/>
      <point x="519.5" y="375.5"/>
      <point x="486" y="329"/>
      <point x="475.5" y="281" type="curve"/>
      <point x="427" y="276.5" type="line"/>
      <point x="446.5" y="377.5"/>
      <point x="522.5" y="470"/>
      <point x="630.5" y="470" type="curve" smooth="yes"/>
      <point x="735.5" y="470"/>
      <point x="759" y="392"/>
    </contour>
  </outline>
</glyph>
<glyph name="n" format="1">
  <advance width="543"/>
  <unicode hex="006E"/>
  <outline>
    <contour>
      <point x="242.5" y="460" type="line"/>
      <point x="163.5" y="0" type="line"/>
      <point x="33" y="0" type="line"/>
      <point x="112.5" y="460" type="line"/>
    </contour>
    <contour>
      <point x="372" y="280" type="line" smooth="yes"/>
      <point x="378" y="328"/>
      <point x="369.5" y="370"/>
      <point x="317" y="372.5" type="curve" smooth="yes"/>
      <point x="262.5" y="375"/>
      <point x="224" y="330"/>
      <point x="211.5" y="281" type="curve"/>
      <point x="184" y="276.5" type="line"/>
      <point x="202.5" y="377.5"/>
      <point x="264" y="469.5"/>
      <point x="373.5" y="470" type="curve" smooth="yes"/>
      <point x="480.5" y="470.5"/>
      <point x="519.5" y="395"/>
      <point x="506" y="294.5" type="curve"/>
      <point x="455.5" y="0" type="line"/>
      <point x="323" y="0" type="line"/>
    </contour>
  </outline>
</glyph>
<glyph name="o" format="1">
  <advance width="559"/>
  <unicode hex="006F"/>
  <outline>
    <contour>
      <point x="49" y="230" type="curve" smooth="yes"/>
      <point x="67.5" y="369"/>
      <point x="188" y="470"/>
      <point x="331" y="470" type="curve" smooth="yes"/>
      <point x="471.5" y="470"/>
      <point x="565.5" y="365.5"/>
      <point x="548" y="230" type="curve" smooth="yes"/>
      <point x="529.5" y="91"/>
      <point x="408.5" y="-9.5"/>
      <point x="265.5" y="-9.5" type="curve" smooth="yes"/>
      <point x="125.5" y="-9.5"/>
      <point x="31.5" y="94.5"/>
    </contour>
    <contour>
      <point x="181" y="230" type="curve" smooth="yes"/>
      <point x="171.5" y="163"/>
      <point x="206.5" y="102"/>
      <point x="275" y="101" type="curve" smooth="yes"/>
      <point x="344.5" y="100"/>
      <point x="404.5" y="159.5"/>
      <point x="415.5" y="230" type="curve" smooth="yes"/>
      <point x="425" y="297"/>
      <point x="389.5" y="358"/>
      <point x="321" y="359" type="curve" smooth="yes"/>
      <point x="251.5" y="360"/>
      <point x="192" y="300.5"/>
    </contour>
  </outline>
</glyph>
<glyph name="p" format="1">
  <advance width="584"/>
  <unicode hex="0070"/>
  <outline>
    <contour>
      <point x="123.5" y="-219.5" type="line"/>
      <point x="-7" y="-220" type="line"/>
      <point x="110.5" y="460" type="line"/>
      <point x="239" y="459.5" type="line"/>
    </contour>
    <contour>
      <point x="567" y="230" type="curve" smooth="yes"/>
      <point x="548" y="90.5"/>
      <point x="439" y="-15.5"/>
      <point x="313.5" y="-14.5" type="curve" smooth="yes"/>
      <point x="186" y="-13.5"/>
      <point x="147.5" y="106"/>
      <point x="163.5" y="230" type="curve" smooth="yes"/>
      <point x="181.5" y="361.5"/>
      <point x="262.5" y="473.5"/>
      <point x="388.5" y="474" type="curve" smooth="yes"/>
      <point x="514" y="474.5"/>
      <point x="584" y="363.5"/>
    </contour>
    <contour>
      <point x="433" y="230.5" type="curve" smooth="yes"/>
      <point x="443.5" y="300"/>
      <point x="407" y="355.5"/>
      <point x="338.5" y="356.5" type="curve" smooth="yes"/>
      <point x="275.5" y="357.5"/>
      <point x="211" y="302"/>
      <point x="200" y="229.5" type="curve" smooth="yes"/>
      <point x="190.5" y="160.5"/>
      <point x="227" y="105.5"/>
      <point x="288.5" y="103.5" type="curve" smooth="yes"/>
      <point x="358.5" y="101.5"/>
      <point x="421.5" y="158"/>
    </contour>
  </outline>
</glyph>
<glyph name="q" format="1">
  <advance width="584"/>
  <unicode hex="0071"/>
  <outline>
    <contour>
      <point x="333" y="-220" type="line"/>
      <point x="449.5" y="460" type="line"/>
      <point x="579.5" y="460" type="line"/>
      <point x="462.5" y="-220" type="line"/>
    </contour>
    <contour>
      <point x="42.5" y="230" type="curve" smooth="yes"/>
      <point x="61.5" y="369.5"/>
      <point x="170.5" y="475.5"/>
      <point x="296" y="474.5" type="curve" smooth="yes"/>
      <point x="423.5" y="473.5"/>
      <point x="463" y="354"/>
      <point x="447" y="230" type="curve" smooth="yes"/>
      <point x="429" y="98.5"/>
      <point x="347.5" y="-13.5"/>
      <point x="221.5" y="-14" type="curve" smooth="yes"/>
      <point x="96" y="-14.5"/>
      <point x="25.5" y="96.5"/>
    </contour>
    <contour>
      <point x="176.5" y="229.5" type="curve" smooth="yes"/>
      <point x="166" y="160"/>
      <point x="202.5" y="104.5"/>
      <point x="271" y="103.5" type="curve" smooth="yes"/>
      <point x="334" y="102.5"/>
      <point x="399.5" y="158"/>
      <point x="410.5" y="230.5" type="curve" smooth="yes"/>
      <point x="420" y="299.5"/>
      <point x="382.5" y="354.5"/>
      <point x="321" y="356.5" type="curve" smooth="yes"/>
      <point x="251" y="358.5"/>
      <point x="188" y="302"/>
    </contour>
  </outline>
</glyph>
<glyph name="r" format="1">
  <advance width="381"/>
  <unicode hex="0072"/>
  <outline>
    <contour>
      <point x="240" y="460" type="line"/>
      <point x="160.5" y="0" type="line"/>
      <point x="33" y="0" type="line"/>
      <point x="112.5" y="460" type="line"/>
    </contour>
    <contour>
      <point x="351.5" y="323.5" type="line"/>
      <point x="335.5" y="337.5"/>
      <point x="321" y="348"/>
      <point x="298" y="348.5" type="curve" smooth="yes"/>
      <point x="245" y="349.5"/>
      <point x="211" y="297"/>
      <point x="202" y="242.5" type="curve"/>
      <point x="176" y="281" type="line"/>
      <point x="192.5" y="375"/>
      <point x="266.5" y="469.5"/>
      <point x="346.5" y="470" type="curve" smooth="yes"/>
      <point x="379.5" y="470.5"/>
      <point x="406" y="455.5"/>
      <point x="426" y="432.5" type="curve"/>
    </contour>
  </outline>
</glyph>
<glyph name="s" format="1">
  <advance width="425"/>
  <unicode hex="0073"/>
  <outline>
    <contour>
      <point x="88" y="170.5" type="line"/>
      <point x="127.5" y="127.5"/>
      <point x="172" y="85.5"/>
      <point x="217" y="87" type="curve" smooth="yes"/>
      <point x="246.5" y="87"/>
      <point x="274" y="101.5"/>
      <point x="277.5" y="127" type="curve" smooth="yes"/>
      <point x="283" y="164.5"/>
      <point x="234.5" y="182"/>
      <point x="194.5" y="198.5" type="curve" smooth="yes"/>
      <point x="132.5" y="224.5"/>
      <point x="76.5" y="264.5"/>
      <point x="86" y="343" type="curve" smooth="yes"/>
      <point x="97" y="422.5"/>
      <point x="175" y="469.5"/>
      <point x="263" y="469.5" type="curve" smooth="yes"/>
      <point x="335" y="469.5"/>
      <point x="396" y="438"/>
      <point x="437" y="393.5" type="curve"/>
      <point x="371.5" y="315.5" type="line"/>
      <point x="340.5" y="347"/>
      <point x="304.5" y="372"/>
      <point x="265" y="372.5" type="curve" smooth="yes"/>
      <point x="236" y="373"/>
      <point x="208" y="361"/>
      <point x="204" y="338" type="curve" smooth="yes"/>
      <point x="197" y="301"/>
      <point x="260" y="288"/>
      <point x="300" y="271" type="curve" smooth="yes"/>
      <point x="361.5" y="244.5"/>
      <point x="413.5" y="203.5"/>
      <point x="405" y="128" type="curve" smooth="yes"/>
      <point x="394" y="34.5"/>
      <point x="319.5" y="-16"/>
      <point x="220" y="-16" type="curve" smooth="yes"/>
      <point x="131.5" y="-16"/>
      <point x="62.5" y="30"/>
      <point x="16" y="91" type="curve"/>
    </contour>
  </outline>
</glyph>
<glyph name="t" format="1">
  <advance width="286"/>
  <unicode hex="0074"/>
  <outline>
    <contour>
      <point x="56.5" y="460" type="line"/>
      <point x="336" y="460" type="line"/>
      <point x="316" y="349.5" type="line"/>
      <point x="36" y="349.5" type="line"/>
    </contour>
    <contour>
      <point x="159" y="619.5" type="line"/>
      <point x="285.5" y="620" type="line"/>
      <point x="178.5" y="0" type="line"/>
      <point x="54" y="0" type="line"/>
    </contour>
  </outline>
</glyph>
<glyph name="u" format="1">
  <advance width="543"/>
  <unicode hex="0075"/>
  <outline>
    <contour>
      <point x="326" y="0" type="line"/>
      <point x="405.5" y="460" type="line"/>
      <point x="535" y="460" type="line"/>
      <point x="456" y="0" type="line"/>
    </contour>
    <contour>
      <point x="197" y="180" type="line"/>
      <point x="191.5" y="131.5"/>
      <point x="199" y="90"/>
      <point x="251.5" y="87.5" type="curve" smooth="yes"/>
      <point x="306" y="85"/>
      <point x="345" y="130"/>
      <point x="357.5" y="179" type="curve"/>
      <point x="385" y="183.5" type="line"/>
      <point x="366.5" y="82.5"/>
      <point x="304" y="-9.5"/>
      <point x="194.5" y="-10" type="curve" smooth="yes"/>
      <point x="87.5" y="-10.5"/>
      <point x="50" y="65"/>
      <point x="62.5" y="165.5" type="curve"/>
      <point x="113" y="460" type="line"/>
      <point x="246" y="459.5" type="line"/>
    </contour>
  </outline>
</glyph>
<glyph name="v" format="1">
  <advance width="487"/>
  <unicode hex="0076"/>
  <outline>
    <contour>
      <point x="52.5" y="460" type="line"/>
      <point x="189.5" y="460" type="line"/>
      <point x="255.5" y="188.5" type="line"/>
      <point x="405.5" y="459.5" type="line"/>
      <point x="546.5" y="459.5" type="line"/>
      <point x="220" y="-50.5" type="line"/>
    </contour>
  </outline>
</glyph>
<glyph name="w" format="1">
  <advance width="715"/>
  <unicode hex="0077"/>
  <outline>
    <contour>
      <point x="48.5" y="460" type="line"/>
      <point x="182.5" y="460" type="line"/>
      <point x="235.727" y="210.196" type="line"/>
      <point x="412" y="497" type="line"/>
      <point x="492.484" y="207.968" type="line"/>
      <point x="634" y="459.5" type="line"/>
      <point x="774.5" y="459.5" type="line"/>
      <point x="468.5" y="-32" type="line"/>
      <point x="374.798" y="258.585" type="line"/>
      <point x="184" y="-32.5" type="line"/>
    </contour>
  </outline>
</glyph>
<glyph name="x" format="2">
  <advance width="484"/>
  <unicode hex="0078"/>
  <outline>
    <contour>
      <point x="385" y="460" type="line"/>
      <point x="533" y="460" type="line"/>
      <point x="330" y="233" type="line"/>
      <point x="467" y="0" type="line"/>
      <point x="328" y="0" type="line"/>
      <point x="249" y="147" type="line"/>
      <point x="131" y="0" type="line"/>
      <point x="-21" y="0" type="line"/>
      <point x="195" y="243" type="line"/>
      <point x="65" y="460" type="line"/>
      <point x="207" y="460" type="line"/>
      <point x="277" y="329" type="line"/>
    </contour>
  </outline>
</glyph>
<glyph name="y" format="1">
  <advance width="482"/>
  <unicode hex="0079"/>
  <outline>
    <contour>
      <point x="544.5" y="459.5" type="line"/>
      <point x="136" y="-219.5" type="line"/>
      <point x="0.5" y="-219.5" type="line"/>
      <point x="162" y="49" type="line"/>
      <point x="45.5" y="460" type="line"/>
      <point x="184.5" y="460" type="line"/>
      <point x="267" y="93" type="line"/>
      <point x="202.5" y="96" type="line"/>
      <point x="406.5" y="459.5" type="line"/>
    </contour>
  </outline>
</glyph>
<glyph name="z" format="2">
  <advance width="489"/>
  <unicode hex="007A"/>
  <outline>
    <contour>
      <point x="289" y="341" type="line"/>
      <point x="82" y="341" type="line"/>
      <point x="103" y="460" type="line"/>
      <point x="530" y="460" type="line"/>
      <point x="233" y="119" type="line"/>
      <point x="442" y="119" type="line"/>
      <point x="421" y="0" type="line"/>
      <point x="-16" y="0" type="line"/>
    </contour>
  </outline>
</glyph>
<glyph name="braceleft" format="1">
  <advance width="362"/>
  <unicode hex="007B"/>
  <outline>
    <contour>
      <point x="314.5" y="624" type="curve" smooth="yes"/>
      <point x="293.5" y="490" type="line" smooth="yes"/>
      <point x="276.5" y="392"/>
      <point x="252" y="291"/>
      <point x="128" y="280.5" type="curve"/>
      <point x="130.5" y="300" type="line"/>
      <point x="251" y="287"/>
      <point x="244.5" y="179.5"/>
      <point x="231" y="90" type="curve" smooth="yes"/>
      <point x="209.5" y="-44.5" type="line" smooth="yes"/>
      <point x="205" y="-71.5"/>
      <point x="218" y="-93.5"/>
      <point x="247.5" y="-94" type="curve" smooth="yes"/>
      <point x="283" y="-94" type="line"/>
      <point x="267" y="-200" type="line"/>
      <point x="190" y="-200" type="line" smooth="yes"/>
      <point x="116" y="-199.5"/>
      <point x="57" y="-146.5"/>
      <point x="68.5" y="-60" type="curve" smooth="yes"/>
      <point x="98" y="132" type="line" smooth="yes"/>
      <point x="105" y="194"/>
      <point x="98.5" y="221"/>
      <point x="59.5" y="242" type="curve"/>
      <point x="73.5" y="338" type="line"/>
      <point x="116.5" y="355.5"/>
      <point x="137" y="385"/>
      <point x="145.5" y="448.5" type="curve" smooth="yes"/>
      <point x="174.5" y="640.5" type="line" smooth="yes"/>
      <point x="187.5" y="729"/>
      <point x="258" y="778.5"/>
      <point x="334" y="779.5" type="curve" smooth="yes"/>
      <point x="417.5" y="779.5" type="line"/>
      <point x="402.5" y="674.5" type="line"/>
      <point x="369.5" y="674.5" type="line" smooth="yes"/>
      <point x="338.5" y="674.5"/>
      <point x="319.5" y="652.5"/>
    </contour>
  </outline>
</glyph>
<glyph name="bar" format="1">
  <advance width="319"/>
  <unicode hex="007C"/>
  <outline>
    <contour>
      <point x="200" y="784.5" type="line"/>
      <point x="328.5" y="784.5" type="line"/>
      <point x="175" y="-214.5" type="line"/>
      <point x="46" y="-214.5" type="line"/>
    </contour>
  </outline>
</glyph>
<glyph name="braceright" format="1">
  <advance width="362"/>
  <unicode hex="007D"/>
  <outline>
    <contour>
      <point x="108.5" y="-44.5" type="curve" smooth="yes"/>
      <point x="129" y="90" type="line" smooth="yes"/>
      <point x="146" y="188"/>
      <point x="170" y="289"/>
      <point x="294" y="299.5" type="curve"/>
      <point x="291.5" y="280" type="line"/>
      <point x="171" y="293"/>
      <point x="178" y="400.5"/>
      <point x="191.5" y="490" type="curve" smooth="yes"/>
      <point x="213" y="625" type="line" smooth="yes"/>
      <point x="217.5" y="652"/>
      <point x="204.5" y="673.5"/>
      <point x="175" y="674" type="curve" smooth="yes"/>
      <point x="140" y="674" type="line"/>
      <point x="155.5" y="780" type="line"/>
      <point x="232.5" y="780" type="line" smooth="yes"/>
      <point x="306.5" y="779.5"/>
      <point x="365.5" y="726.5"/>
      <point x="354" y="640" type="curve" smooth="yes"/>
      <point x="324.5" y="448" type="line" smooth="yes"/>
      <point x="317.5" y="386"/>
      <point x="324" y="359"/>
      <point x="363" y="338" type="curve"/>
      <point x="349.5" y="242" type="line"/>
      <point x="306.5" y="224.5"/>
      <point x="285.5" y="195"/>
      <point x="277" y="131.5" type="curve" smooth="yes"/>
      <point x="248" y="-60.5" type="line" smooth="yes"/>
      <point x="235.5" y="-149"/>
      <point x="164" y="-198.5"/>
      <point x="88" y="-199.5" type="curve" smooth="yes"/>
      <point x="5" y="-199.5" type="line"/>
      <point x="20.5" y="-94.5" type="line"/>
      <point x="53" y="-94.5" type="line" smooth="yes"/>
      <point x="84" y="-94.5"/>
      <point x="103.5" y="-73"/>
    </contour>
  </outline>
</glyph>
<glyph name="asciitilde" format="1">
  <advance width="558"/>
  <unicode hex="007E"/>
  <outline>
    <contour>
      <point x="158" y="167" type="curve"/>
      <point x="54" y="172" type="line"/>
      <point x="53.5" y="179.5"/>
      <point x="52.5" y="188"/>
      <point x="53.5" y="196.5" type="curve" smooth="yes"/>
      <point x="57.5" y="227.5"/>
      <point x="72" y="258"/>
      <point x="94.5" y="284" type="curve" smooth="yes"/>
      <point x="124.5" y="318"/>
      <point x="165.5" y="340.5"/>
      <point x="219.5" y="340" type="curve" smooth="yes"/>
      <point x="262" y="340"/>
      <point x="296" y="320.5"/>
      <point x="334" y="292" type="curve" smooth="yes"/>
      <point x="356" y="275"/>
      <point x="377.5" y="258"/>
      <point x="397" y="258.5" type="curve" smooth="yes"/>
      <point x="419.5" y="259"/>
      <point x="435.5" y="279"/>
      <point x="439.5" y="300.5" type="curve" smooth="yes"/>
      <point x="441.5" y="310.5"/>
      <point x="441" y="322.5"/>
      <point x="439" y="332.5" type="curve"/>
      <point x="545.5" y="326.5" type="line"/>
      <point x="546" y="318"/>
      <point x="547.5" y="307.5"/>
      <point x="546" y="298" type="curve" smooth="yes"/>
      <point x="542.5" y="268"/>
      <point x="530.5" y="235.5"/>
      <point x="508" y="209.5" type="curve" smooth="yes"/>
      <point x="480.5" y="177.5"/>
      <point x="443.5" y="158"/>
      <point x="397.5" y="158.5" type="curve" smooth="yes"/>
      <point x="358.5" y="159"/>
      <point x="325.5" y="180"/>
      <point x="286.5" y="208" type="curve" smooth="yes"/>
      <point x="262" y="226.5"/>
      <point x="237" y="242"/>
      <point x="211.5" y="241.5" type="curve" smooth="yes"/>
      <point x="181.5" y="241"/>
      <point x="162" y="218.5"/>
      <point x="157" y="193.5" type="curve" smooth="yes"/>
      <point x="155" y="183.5"/>
      <point x="157" y="175.5"/>
    </contour>
  </outline>
</glyph>
<glyph name="exclamdown" format="1">
  <advance width="321"/>
  <unicode hex="00A1"/>
  <outline>
    <contour>
      <point x="173.5" y="-234" type="line"/>
      <point x="13" y="-234" type="line"/>
      <point x="123" y="243.5" type="line"/>
      <point x="227" y="243.5" type="line"/>
    </contour>
    <contour>
      <point x="285" y="409.5" type="curve" smooth="yes"/>
      <point x="279.5" y="367"/>
      <point x="237.5" y="333"/>
      <point x="193" y="334" type="curve" smooth="yes"/>
      <point x="148" y="335"/>
      <point x="117" y="368"/>
      <point x="122.5" y="411.5" type="curve" smooth="yes"/>
      <point x="128" y="454"/>
      <point x="169.5" y="488.5"/>
      <point x="214" y="487.5" type="curve" smooth="yes"/>
      <point x="259" y="486.5"/>
      <point x="290.5" y="453"/>
    </contour>
  </outline>
</glyph>
<glyph name="cent" format="2">
  <advance width="562"/>
  <unicode hex="00A2"/>
  <outline>
    <contour>
      <point x="220" y="38" type="line"/>
      <point x="317" y="38" type="line"/>
      <point x="297" y="-112" type="line"/>
      <point x="187" y="-112" type="line"/>
    </contour>
    <contour>
      <point x="200" y="230" type="curve" smooth="yes"/>
      <point x="189" y="158"/>
      <point x="230" y="100"/>
      <point x="302" y="98" type="curve" smooth="yes"/>
      <point x="365" y="97"/>
      <point x="419" y="132"/>
      <point x="455" y="170" type="curve"/>
      <point x="435" y="35" type="line"/>
      <point x="395" y="7"/>
      <point x="342" y="-10"/>
      <point x="283" y="-10" type="curve" smooth="yes"/>
      <point x="141" y="-10"/>
      <point x="48" y="94"/>
      <point x="68" y="230" type="curve" smooth="yes"/>
      <point x="89" y="369"/>
      <point x="211" y="470"/>
      <point x="356" y="470" type="curve" smooth="yes"/>
      <point x="413" y="470"/>
      <point x="463" y="453"/>
      <point x="499" y="424" type="curve"/>
      <point x="478" y="289" type="line"/>
      <point x="455" y="332"/>
      <point x="414" y="362"/>
      <point x="355" y="362" type="curve" smooth="yes"/>
      <point x="281" y="362"/>
      <point x="213" y="304"/>
    </contour>
    <contour>
      <point x="306" y="578" type="line"/>
      <point x="416" y="578" type="line"/>
      <point x="383" y="428" type="line"/>
      <point x="286" y="428" type="line"/>
    </contour>
  </outline>
</glyph>
<glyph name="sterling" format="2">
  <advance width="583"/>
  <unicode hex="00A3"/>
  <outline>
    <contour>
      <point x="100" y="370" type="line"/>
      <point x="465" y="370" type="line"/>
      <point x="448" y="277" type="line"/>
      <point x="83" y="277" type="line"/>
    </contour>
    <contour>
      <point x="481" y="471" type="line"/>
      <point x="483" y="527"/>
      <point x="471" y="589"/>
      <point x="398" y="590" type="curve" smooth="yes"/>
      <point x="345" y="591"/>
      <point x="295" y="558"/>
      <point x="285" y="502" type="curve" smooth="yes"/>
      <point x="269" y="417"/>
      <point x="347" y="363"/>
      <point x="335" y="268" type="curve" smooth="yes"/>
      <point x="319" y="160"/>
      <point x="208" y="77"/>
      <point x="120" y="51" type="curve"/>
      <point x="167" y="122" type="line"/>
      <point x="512" y="122" type="line"/>
      <point x="491" y="0" type="line"/>
      <point x="26" y="0" type="line"/>
      <point x="117" y="92"/>
      <point x="193" y="169"/>
      <point x="211" y="276" type="curve" smooth="yes"/>
      <point x="224" y="365"/>
      <point x="139" y="417"/>
      <point x="151" y="521" type="curve" smooth="yes"/>
      <point x="167" y="638"/>
      <point x="283" y="711"/>
      <point x="405" y="710" type="curve" smooth="yes"/>
      <point x="536" y="709"/>
      <point x="605" y="610"/>
      <point x="602" y="514" type="curve"/>
    </contour>
  </outline>
</glyph>
<glyph name="currency" format="1">
  <advance width="560"/>
  <unicode hex="00A4"/>
  <outline>
    <contour>
      <point x="84" y="504.5" type="line"/>
      <point x="150" y="562" type="line"/>
      <point x="230.5" y="460" type="line"/>
      <point x="167" y="406" type="line"/>
    </contour>
    <contour>
      <point x="65.5" y="38" type="line"/>
      <point x="15.5" y="100.5" type="line"/>
      <point x="126" y="194" type="line"/>
      <point x="175.5" y="134.5" type="line"/>
    </contour>
    <contour>
      <point x="484.5" y="406" type="line"/>
      <point x="433.5" y="467" type="line"/>
      <point x="544.5" y="562" type="line"/>
      <point x="593.5" y="501" type="line"/>
    </contour>
    <contour>
      <point x="377.5" y="138.5" type="line"/>
      <point x="443.5" y="194" type="line"/>
      <point x="523.5" y="93.5" type="line"/>
      <point x="460" y="38.5" type="line"/>
    </contour>
    <contour>
      <point x="72.5" y="300" type="curve" smooth="yes"/>
      <point x="92" y="432"/>
      <point x="205.5" y="539.5"/>
      <point x="341" y="539.5" type="curve" smooth="yes"/>
      <point x="475" y="539.5"/>
      <point x="555" y="428"/>
      <point x="537" y="300" type="curve" smooth="yes"/>
      <point x="517.5" y="168"/>
      <point x="403.5" y="60.5"/>
      <point x="268" y="60.5" type="curve" smooth="yes"/>
      <point x="134" y="60.5"/>
      <point x="54.5" y="172"/>
    </contour>
    <contour>
      <point x="191.5" y="299.5" type="curve" smooth="yes"/>
      <point x="181.5" y="237"/>
      <point x="214.5" y="181"/>
      <point x="281" y="180.5" type="curve" smooth="yes"/>
      <point x="349" y="179.5"/>
      <point x="407" y="234.5"/>
      <point x="418" y="300.5" type="curve" smooth="yes"/>
      <point x="428" y="363"/>
      <point x="395" y="419"/>
      <point x="328.5" y="419.5" type="curve" smooth="yes"/>
      <point x="260.5" y="420.5"/>
      <point x="202.5" y="365.5"/>
    </contour>
  </outline>
</glyph>
<glyph name="yen" format="1">
  <advance width="624"/>
  <unicode hex="00A5"/>
  <outline>
    <contour>
      <point x="62" y="272" type="line"/>
      <point x="78.5" y="365" type="line"/>
      <point x="614.5" y="365" type="line"/>
      <point x="598.5" y="272" type="line"/>
    </contour>
    <contour>
      <point x="36.5" y="122" type="line"/>
      <point x="52.5" y="215" type="line"/>
      <point x="589" y="215" type="line"/>
      <point x="573" y="122" type="line"/>
    </contour>
    <contour>
      <point x="547" y="699.5" type="line"/>
      <point x="713.5" y="699.5" type="line"/>
      <point x="408" y="289" type="line"/>
      <point x="359" y="0" type="line"/>
      <point x="212" y="0" type="line"/>
      <point x="263.5" y="294" type="line"/>
      <point x="99.5" y="700" type="line"/>
      <point x="259.5" y="700" type="line"/>
      <point x="355" y="422" type="line"/>
    </contour>
  </outline>
</glyph>
<glyph name="brokenbar" format="1">
  <advance width="320"/>
  <unicode hex="00A6"/>
  <outline>
    <contour>
      <point x="188" y="694.5" type="line"/>
      <point x="316.5" y="694.5" type="line"/>
      <point x="271.5" y="437" type="line"/>
      <point x="143" y="437" type="line"/>
    </contour>
    <contour>
      <point x="242.5" y="263" type="line"/>
      <point x="198" y="5.5" type="line"/>
      <point x="69.5" y="5.5" type="line"/>
      <point x="114" y="263" type="line"/>
    </contour>
  </outline>
</glyph>
<glyph name="section" format="1">
  <advance width="513"/>
  <unicode hex="00A7"/>
  <outline>
    <contour>
      <point x="435" y="558.5" type="line"/>
      <point x="412" y="588.5"/>
      <point x="377" y="608.5"/>
      <point x="342" y="608.5" type="curve" smooth="yes"/>
      <point x="313.5" y="608.5"/>
      <point x="281.5" y="596.5"/>
      <point x="278" y="573.5" type="curve" smooth="yes"/>
      <point x="273.5" y="542.5"/>
      <point x="329.5" y="529"/>
      <point x="366.5" y="515.5" type="curve" smooth="yes"/>
      <point x="432.5" y="492"/>
      <point x="485.5" y="444"/>
      <point x="476" y="375" type="curve" smooth="yes"/>
      <point x="461" y="271.5"/>
      <point x="357.5" y="236"/>
      <point x="256.5" y="233" type="curve"/>
      <point x="263" y="272" type="line"/>
      <point x="303" y="281"/>
      <point x="346" y="308"/>
      <point x="353" y="350" type="curve" smooth="yes"/>
      <point x="361.5" y="402.5"/>
      <point x="302.5" y="420.5"/>
      <point x="257.5" y="440.5" type="curve" smooth="yes"/>
      <point x="200" y="466.5"/>
      <point x="146" y="508"/>
      <point x="156" y="582" type="curve" smooth="yes"/>
      <point x="168.5" y="670.5"/>
      <point x="262" y="719"/>
      <point x="346.5" y="719.5" type="curve" smooth="yes"/>
      <point x="419" y="720"/>
      <point x="485" y="688.5"/>
      <point x="514" y="639" type="curve"/>
    </contour>
    <contour>
      <point x="114" y="169.5" type="line"/>
      <point x="143.5" y="123.5"/>
      <point x="188" y="91.5"/>
      <point x="237.5" y="92" type="curve" smooth="yes"/>
      <point x="271.5" y="92"/>
      <point x="304" y="106.5"/>
      <point x="308.5" y="134" type="curve" smooth="yes"/>
      <point x="315" y="171.5"/>
      <point x="265" y="185"/>
      <point x="225.5" y="200" type="curve" smooth="yes"/>
      <point x="159.5" y="223.5"/>
      <point x="94.5" y="267"/>
      <point x="105" y="341.5" type="curve" smooth="yes"/>
      <point x="119.5" y="438"/>
      <point x="225" y="476"/>
      <point x="328.5" y="479" type="curve"/>
      <point x="323" y="444.5" type="line"/>
      <point x="280" y="429"/>
      <point x="239" y="411"/>
      <point x="231.5" y="369" type="curve" smooth="yes"/>
      <point x="221.5" y="310"/>
      <point x="290" y="296"/>
      <point x="334.5" y="275.5" type="curve" smooth="yes"/>
      <point x="395.5" y="247.5"/>
      <point x="446" y="200"/>
      <point x="437" y="129.5" type="curve" smooth="yes"/>
      <point x="424" y="30.5"/>
      <point x="325.5" y="-19"/>
      <point x="230" y="-19" type="curve" smooth="yes"/>
      <point x="136.5" y="-19"/>
      <point x="68.5" y="26"/>
      <point x="34" y="90.5" type="curve"/>
    </contour>
  </outline>
</glyph>
<glyph name="dieresis" format="1">
  <advance width="484"/>
  <unicode hex="00A8"/>
  <outline>
    <contour>
      <point x="359" y="641" type="curve" smooth="yes"/>
      <point x="363.5" y="681"/>
      <point x="404.5" y="714.5"/>
      <point x="445" y="713.5" type="curve" smooth="yes"/>
      <point x="486.5" y="712.5"/>
      <point x="517.5" y="680"/>
      <point x="513" y="639" type="curve" smooth="yes"/>
      <point x="508.5" y="599"/>
      <point x="467.5" y="565"/>
      <point x="427" y="566" type="curve" smooth="yes"/>
      <point x="385.5" y="567"/>
      <point x="354.5" y="600"/>
    </contour>
    <contour>
      <point x="134.5" y="641" type="curve" smooth="yes"/>
      <point x="139" y="681"/>
      <point x="180" y="714.5"/>
      <point x="220.5" y="713.5" type="curve" smooth="yes"/>
      <point x="262" y="712.5"/>
      <point x="293" y="680"/>
      <point x="288.5" y="639" type="curve" smooth="yes"/>
      <point x="284" y="599"/>
      <point x="243" y="565"/>
      <point x="202.5" y="566" type="curve" smooth="yes"/>
      <point x="161" y="567"/>
      <point x="130" y="600"/>
    </contour>
  </outline>
</glyph>
<glyph name="copyright" format="1">
  <advance width="776"/>
  <unicode hex="00A9"/>
  <outline>
    <contour>
      <point x="304" y="350" type="curve" smooth="yes"/>
      <point x="293" y="276.5"/>
      <point x="335" y="216.5"/>
      <point x="410" y="215.5" type="curve" smooth="yes"/>
      <point x="466" y="214.5"/>
      <point x="510.5" y="241.5"/>
      <point x="545.5" y="271.5" type="curve"/>
      <point x="532.5" y="174.5" type="line"/>
      <point x="494.5" y="149"/>
      <point x="455" y="131.5"/>
      <point x="400" y="131.5" type="curve" smooth="yes"/>
      <point x="274.5" y="131.5"/>
      <point x="195" y="229.5"/>
      <point x="210.5" y="350" type="curve" smooth="yes"/>
      <point x="227" y="474"/>
      <point x="333" y="568"/>
      <point x="460" y="568.5" type="curve" smooth="yes"/>
      <point x="513.5" y="569"/>
      <point x="550.5" y="552"/>
      <point x="585.5" y="524.5" type="curve"/>
      <point x="572" y="427.5" type="line"/>
      <point x="545" y="460.5"/>
      <point x="510" y="485"/>
      <point x="458" y="485" type="curve" smooth="yes"/>
      <point x="381.5" y="485"/>
      <point x="316" y="427"/>
    </contour>
    <contour>
      <point x="130" y="350" type="curve" smooth="yes"/>
      <point x="106.5" y="189"/>
      <point x="202" y="41"/>
      <point x="373.5" y="40.5" type="curve" smooth="yes"/>
      <point x="548" y="40"/>
      <point x="693.5" y="180.5"/>
      <point x="720" y="350" type="curve" smooth="yes"/>
      <point x="743.5" y="511"/>
      <point x="648" y="659"/>
      <point x="476.5" y="659.5" type="curve" smooth="yes"/>
      <point x="302" y="660"/>
      <point x="156.5" y="519.5"/>
    </contour>
    <contour>
      <point x="74.5" y="350" type="curve" smooth="yes"/>
      <point x="102" y="550"/>
      <point x="271.5" y="710.5"/>
      <point x="476" y="710" type="curve" smooth="yes"/>
      <point x="677" y="709.5"/>
      <point x="800.5" y="543"/>
      <point x="775.5" y="350" type="curve" smooth="yes"/>
      <point x="748" y="150"/>
      <point x="578" y="-10.5"/>
      <point x="373.5" y="-10" type="curve" smooth="yes"/>
      <point x="172.5" y="-9.5"/>
      <point x="49.5" y="157"/>
    </contour>
  </outline>
</glyph>
<glyph name="ordfeminine" format="2">
  <advance width="252"/>
  <unicode hex="00AA"/>
  <outline>
    <contour>
      <point x="145" y="530" type="curve" smooth="yes"/>
      <point x="143" y="514"/>
      <point x="155" y="502"/>
      <point x="175" y="501" type="curve" smooth="yes"/>
      <point x="206" y="500"/>
      <point x="231" y="521"/>
      <point x="240" y="552" type="curve"/>
      <point x="243" y="524" type="line"/>
      <point x="231" y="484"/>
      <point x="199" y="455"/>
      <point x="151" y="456" type="curve" smooth="yes"/>
      <point x="107" y="457"/>
      <point x="74" y="486"/>
      <point x="80" y="530" type="curve" smooth="yes"/>
      <point x="87" y="576"/>
      <point x="137" y="606"/>
      <point x="187" y="606" type="curve" smooth="yes"/>
      <point x="220" y="606"/>
      <point x="245" y="593"/>
      <point x="261" y="580" type="curve"/>
      <point x="256" y="548" type="line"/>
      <point x="239" y="560"/>
      <point x="223" y="568"/>
      <point x="199" y="568" type="curve" smooth="yes"/>
      <point x="175" y="568"/>
      <point x="148" y="551"/>
    </contour>
    <contour>
      <point x="143" y="631" type="curve"/>
      <point x="127" y="679" type="line"/>
      <point x="154" y="691"/>
      <point x="188" y="705"/>
      <point x="226" y="705" type="curve" smooth="yes"/>
      <point x="278" y="705"/>
      <point x="319" y="679"/>
      <point x="315" y="631" type="curve"/>
      <point x="286" y="460" type="line"/>
      <point x="223" y="460" type="line"/>
      <point x="252" y="618" type="line"/>
      <point x="250" y="637"/>
      <point x="241" y="649"/>
      <point x="218" y="651" type="curve" smooth="yes"/>
      <point x="189" y="653"/>
      <point x="160" y="639"/>
    </contour>
  </outline>
</glyph>
<glyph name="guillemotleft" format="1">
  <advance width="516"/>
  <unicode hex="00AB"/>
  <outline>
    <contour>
      <point x="341.5" y="256.5" type="line"/>
      <point x="454" y="62.5" type="line"/>
      <point x="367.5" y="6" type="line"/>
      <point x="232" y="259" type="line"/>
      <point x="447.5" y="503" type="line"/>
      <point x="520" y="442" type="line"/>
    </contour>
    <contour>
      <point x="155.5" y="256.5" type="line"/>
      <point x="268.5" y="62.5" type="line"/>
      <point x="181.5" y="6" type="line"/>
      <point x="46.5" y="259" type="line"/>
      <point x="261.5" y="503" type="line"/>
      <point x="334.5" y="442" type="line"/>
    </contour>
  </outline>
</glyph>
<glyph name="logicalnot" format="1">
  <advance width="622"/>
  <unicode hex="00AC"/>
  <outline>
    <contour>
      <point x="83.5" y="280" type="line"/>
      <point x="102.5" y="395" type="line"/>
      <point x="602.5" y="395" type="line"/>
      <point x="563.5" y="175.5" type="line"/>
      <point x="467" y="175.5" type="line"/>
      <point x="487" y="280" type="line"/>
    </contour>
  </outline>
</glyph>
<glyph name="registered" format="2">
  <advance width="776"/>
  <unicode hex="00AE"/>
  <outline>
    <contour>
      <point x="392" y="336" type="line"/>
      <point x="472" y="336" type="line"/>
      <point x="568" y="150" type="line"/>
      <point x="469" y="150" type="line"/>
    </contour>
    <contour>
      <point x="322" y="570" type="line"/>
      <point x="408" y="570" type="line"/>
      <point x="343" y="150" type="line"/>
      <point x="257" y="150" type="line"/>
    </contour>
    <contour>
      <point x="362" y="496" type="line"/>
      <point x="373" y="570" type="line"/>
      <point x="457" y="570" type="line"/>
      <point x="544" y="568"/>
      <point x="604" y="518"/>
      <point x="594" y="440" type="curve" smooth="yes"/>
      <point x="583" y="359"/>
      <point x="513" y="309"/>
      <point x="423" y="307" type="curve"/>
      <point x="332" y="307" type="line"/>
      <point x="343" y="375" type="line"/>
      <point x="422" y="375" type="line"/>
      <point x="462" y="377"/>
      <point x="499" y="397"/>
      <point x="505" y="436" type="curve" smooth="yes"/>
      <point x="510" y="473"/>
      <point x="484" y="494"/>
      <point x="446" y="496" type="curve"/>
    </contour>
    <contour>
      <point x="130" y="350" type="curve" smooth="yes"/>
      <point x="106" y="189"/>
      <point x="201" y="41"/>
      <point x="373" y="40" type="curve" smooth="yes"/>
      <point x="548" y="39"/>
      <point x="694" y="181"/>
      <point x="720" y="350" type="curve" smooth="yes"/>
      <point x="744" y="511"/>
      <point x="648" y="659"/>
      <point x="477" y="660" type="curve" smooth="yes"/>
      <point x="303" y="661"/>
      <point x="156" y="519"/>
    </contour>
    <contour>
      <point x="74" y="350" type="curve" smooth="yes"/>
      <point x="101" y="550"/>
      <point x="272" y="710"/>
      <point x="476" y="710" type="curve" smooth="yes"/>
      <point x="677" y="710"/>
      <point x="800" y="543"/>
      <point x="775" y="350" type="curve" smooth="yes"/>
      <point x="748" y="150"/>
      <point x="578" y="-10"/>
      <point x="374" y="-10" type="curve" smooth="yes"/>
      <point x="173" y="-10"/>
      <point x="49" y="157"/>
    </contour>
  </outline>
</glyph>
<glyph name="macron" format="2">
  <advance width="509"/>
  <unicode hex="00AF"/>
  <outline>
    <contour>
      <point x="149" y="580" type="line"/>
      <point x="167" y="695" type="line"/>
      <point x="524" y="695" type="line"/>
      <point x="506" y="580" type="line"/>
    </contour>
  </outline>
</glyph>
<glyph name="degree" format="1">
  <advance width="282"/>
  <unicode hex="00B0"/>
  <outline>
    <contour>
      <point x="91" y="598.5" type="curve" smooth="yes"/>
      <point x="100.5" y="667"/>
      <point x="162.5" y="720"/>
      <point x="233" y="719.5" type="curve" smooth="yes"/>
      <point x="303.5" y="719"/>
      <point x="351" y="665"/>
      <point x="341.5" y="597" type="curve" smooth="yes"/>
      <point x="332" y="528.5"/>
      <point x="269.5" y="475.5"/>
      <point x="198.5" y="476" type="curve" smooth="yes"/>
      <point x="128" y="476.5"/>
      <point x="81.5" y="530.5"/>
    </contour>
    <contour>
      <point x="154.5" y="597.5" type="curve" smooth="yes"/>
      <point x="150" y="565"/>
      <point x="168" y="534"/>
      <point x="202" y="533.5" type="curve" smooth="yes"/>
      <point x="237.5" y="533"/>
      <point x="272" y="564"/>
      <point x="277.5" y="598.5" type="curve" smooth="yes"/>
      <point x="282" y="631"/>
      <point x="263.5" y="662.5"/>
      <point x="229.5" y="663" type="curve" smooth="yes"/>
      <point x="194" y="663.5"/>
      <point x="160" y="632"/>
    </contour>
  </outline>
</glyph>
<glyph name="plusminus" format="2">
  <advance width="608"/>
  <unicode hex="00B1"/>
  <outline>
    <contour>
      <point x="46" y="4" type="line"/>
      <point x="64" y="120" type="line"/>
      <point x="550" y="120" type="line"/>
      <point x="532" y="4" type="line"/>
    </contour>
    <contour>
      <point x="97" y="336" type="line"/>
      <point x="116" y="456" type="line"/>
      <point x="602" y="456" type="line"/>
      <point x="583" y="336" type="line"/>
    </contour>
    <contour>
      <point x="317" y="620" type="line"/>
      <point x="450" y="620" type="line"/>
      <point x="380" y="172" type="line"/>
      <point x="249" y="173" type="line"/>
    </contour>
  </outline>
</glyph>
<glyph name="uni00B2" format="1">
  <advance width="378"/>
  <unicode hex="00B2"/>
  <outline>
    <contour>
      <point x="42.5" y="283" type="line"/>
      <point x="261" y="481" type="line" smooth="yes"/>
      <point x="292" y="510"/>
      <point x="324" y="538"/>
      <point x="330" y="575" type="curve" smooth="yes"/>
      <point x="334" y="603"/>
      <point x="319.5" y="632.5"/>
      <point x="283.5" y="634" type="curve" smooth="yes"/>
      <point x="238" y="636.5"/>
      <point x="207" y="593"/>
      <point x="197" y="550.5" type="curve"/>
      <point x="111" y="551" type="line"/>
      <point x="128.5" y="636.5"/>
      <point x="191.5" y="710"/>
      <point x="291.5" y="709.5" type="curve" smooth="yes"/>
      <point x="379" y="709"/>
      <point x="429.5" y="645"/>
      <point x="418.5" y="576.5" type="curve" smooth="yes"/>
      <point x="411.5" y="531"/>
      <point x="379.5" y="494"/>
      <point x="343.5" y="463.5" type="curve" smooth="yes"/>
      <point x="223" y="363" type="line"/>
      <point x="389" y="362" type="line"/>
      <point x="375" y="282.5" type="line"/>
    </contour>
  </outline>
</glyph>
<glyph name="uni00B3" format="1">
  <advance width="339"/>
  <unicode hex="00B3"/>
  <outline>
    <contour>
      <point x="201.5" y="485" type="curve"/>
      <point x="208" y="526" type="line"/>
      <point x="251" y="530"/>
      <point x="291" y="551"/>
      <point x="297.5" y="588" type="curve" smooth="yes"/>
      <point x="301" y="613.5"/>
      <point x="287" y="635"/>
      <point x="257" y="636" type="curve" smooth="yes"/>
      <point x="223" y="637"/>
      <point x="199" y="611"/>
      <point x="190" y="583.5" type="curve"/>
      <point x="108.5" y="584" type="line"/>
      <point x="125" y="653"/>
      <point x="181.5" y="706.5"/>
      <point x="263" y="706.5" type="curve" smooth="yes"/>
      <point x="339.5" y="706"/>
      <point x="392.5" y="657.5"/>
      <point x="382" y="591.5" type="curve" smooth="yes"/>
      <point x="369.5" y="516.5"/>
      <point x="285" y="488"/>
    </contour>
    <contour>
      <point x="192" y="271.5" type="curve" smooth="yes"/>
      <point x="102" y="272"/>
      <point x="56" y="332.5"/>
      <point x="60" y="407" type="curve"/>
      <point x="144" y="407" type="line"/>
      <point x="144" y="371"/>
      <point x="160" y="345.5"/>
      <point x="199" y="344" type="curve" smooth="yes"/>
      <point x="235" y="343"/>
      <point x="270.5" y="368"/>
      <point x="275.5" y="403" type="curve" smooth="yes"/>
      <point x="283.5" y="446.5"/>
      <point x="244" y="463.5"/>
      <point x="197" y="467" type="curve"/>
      <point x="204.5" y="512.5" type="line"/>
      <point x="291" y="509.5"/>
      <point x="373.5" y="480"/>
      <point x="360.5" y="393" type="curve" smooth="yes"/>
      <point x="350" y="319"/>
      <point x="276.5" y="271"/>
    </contour>
  </outline>
</glyph>
<glyph name="acute" format="2">
  <advance width="363"/>
  <unicode hex="00B4"/>
  <outline>
    <contour>
      <point x="389" y="653" type="line"/>
      <point x="193" y="506" type="line"/>
      <point x="123" y="547" type="line"/>
      <point x="291" y="704" type="line"/>
    </contour>
  </outline>
</glyph>
<glyph name="paragraph" format="2">
  <advance width="624"/>
  <unicode hex="00B6"/>
  <outline>
    <contour>
      <point x="356" y="615" type="line"/>
      <point x="371" y="700" type="line"/>
      <point x="588" y="700" type="line"/>
      <point x="574" y="615" type="line"/>
    </contour>
    <contour>
      <point x="548" y="700" type="line"/>
      <point x="661" y="700" type="line"/>
      <point x="504" y="-220" type="line"/>
      <point x="391" y="-220" type="line"/>
    </contour>
    <contour>
      <point x="371" y="700" type="line"/>
      <point x="484" y="700" type="line"/>
      <point x="327" y="-220" type="line"/>
      <point x="214" y="-220" type="line"/>
    </contour>
    <contour>
      <point x="301" y="270" type="line"/>
      <point x="179" y="276"/>
      <point x="94" y="356"/>
      <point x="113" y="486" type="curve" smooth="yes"/>
      <point x="134" y="621"/>
      <point x="243" y="700"/>
      <point x="371" y="700" type="curve"/>
    </contour>
  </outline>
</glyph>
<glyph name="periodcentered" format="1">
  <advance width="306"/>
  <unicode hex="00B7"/>
  <outline>
    <contour>
      <point x="89" y="261" type="curve" smooth="yes"/>
      <point x="94.5" y="303.5"/>
      <point x="137" y="342.5"/>
      <point x="182" y="341.5" type="curve" smooth="yes"/>
      <point x="228" y="340.5"/>
      <point x="258" y="302"/>
      <point x="252.5" y="259" type="curve" smooth="yes"/>
      <point x="247" y="216.5"/>
      <point x="204.5" y="177.5"/>
      <point x="159.5" y="178.5" type="curve" smooth="yes"/>
      <point x="113.5" y="179.5"/>
      <point x="83.5" y="218"/>
    </contour>
  </outline>
</glyph>
<glyph name="cedilla" format="2">
  <advance width="369"/>
  <unicode hex="00B8"/>
  <outline>
    <contour>
      <point x="163" y="67" type="line"/>
      <point x="261" y="65" type="line"/>
      <point x="160" y="-54" type="line"/>
      <point x="168" y="-52"/>
      <point x="177" y="-51"/>
      <point x="186" y="-51" type="curve" smooth="yes"/>
      <point x="229" y="-54"/>
      <point x="264" y="-90"/>
      <point x="258" y="-143" type="curve" smooth="yes"/>
      <point x="250" y="-208"/>
      <point x="183" y="-245"/>
      <point x="123" y="-246" type="curve" smooth="yes"/>
      <point x="75" y="-247"/>
      <point x="39" y="-233"/>
      <point x="1" y="-206" type="curve"/>
      <point x="49" y="-148" type="line"/>
      <point x="70" y="-163"/>
      <point x="93" y="-172"/>
      <point x="115" y="-172" type="curve" smooth="yes"/>
      <point x="142" y="-172"/>
      <point x="173" y="-158"/>
      <point x="175" y="-135" type="curve" smooth="yes"/>
      <point x="177" y="-112"/>
      <point x="152" y="-102"/>
      <point x="128" y="-102" type="curve" smooth="yes"/>
      <point x="110" y="-101"/>
      <point x="78" y="-108"/>
      <point x="50" y="-118" type="curve"/>
    </contour>
  </outline>
</glyph>
<glyph name="uni00B9" format="1">
  <advance width="464"/>
  <unicode hex="00B9"/>
  <outline>
    <contour>
      <point x="206" y="583.5" type="line"/>
      <point x="219.5" y="662.5" type="line"/>
      <point x="409.5" y="702" type="line"/>
      <point x="335.5" y="274.5" type="line"/>
      <point x="251" y="274.5" type="line"/>
      <point x="308" y="608" type="line"/>
    </contour>
  </outline>
</glyph>
<glyph name="ordmasculine" format="1">
  <advance width="269"/>
  <unicode hex="00BA"/>
  <outline>
    <contour>
      <point x="89.5" y="580.5" type="curve" smooth="yes"/>
      <point x="99" y="649"/>
      <point x="160.5" y="700"/>
      <point x="231" y="699.5" type="curve" smooth="yes"/>
      <point x="301" y="699"/>
      <point x="349.5" y="647.5"/>
      <point x="340" y="579.5" type="curve" smooth="yes"/>
      <point x="330.5" y="511"/>
      <point x="267.5" y="460"/>
      <point x="197" y="460.5" type="curve" smooth="yes"/>
      <point x="127" y="461"/>
      <point x="80" y="512.5"/>
    </contour>
    <contour>
      <point x="155.5" y="579.5" type="curve" smooth="yes"/>
      <point x="151" y="547.5"/>
      <point x="167.5" y="517"/>
      <point x="200.5" y="516.5" type="curve" smooth="yes"/>
      <point x="234.5" y="516"/>
      <point x="268" y="546"/>
      <point x="273.5" y="580.5" type="curve" smooth="yes"/>
      <point x="278" y="612.5"/>
      <point x="260.5" y="643.5"/>
      <point x="227.5" y="644" type="curve" smooth="yes"/>
      <point x="193.5" y="644.5"/>
      <point x="161" y="614"/>
    </contour>
  </outline>
</glyph>
<glyph name="onequarter" format="1">
  <advance width="778"/>
  <unicode hex="00BC"/>
  <outline>
    <contour>
      <point x="697.5" y="699" type="line"/>
      <point x="788.5" y="699" type="line"/>
      <point x="164.5" y="0" type="line"/>
      <point x="74" y="0" type="line"/>
    </contour>
    <contour>
      <point x="96.5" y="583.5" type="line"/>
      <point x="110" y="662.5" type="line"/>
      <point x="300" y="702" type="line"/>
      <point x="226" y="274.5" type="line"/>
      <point x="141.5" y="274.5" type="line"/>
      <point x="198" y="608" type="line"/>
    </contour>
    <contour>
      <point x="375.5" y="78" type="line"/>
      <point x="455" y="141.5" type="line"/>
      <point x="634" y="142.5" type="line"/>
      <point x="646" y="151.5" type="line"/>
      <point x="748.5" y="151.5" type="line"/>
      <point x="735" y="77.5" type="line"/>
    </contour>
    <contour>
      <point x="470.5" y="99.5" type="line"/>
      <point x="373" y="76" type="line"/>
      <point x="668" y="419" type="line"/>
      <point x="730" y="419.5" type="line"/>
      <point x="658" y="0" type="line"/>
      <point x="568.5" y="0" type="line"/>
      <point x="585.5" y="99" type="line"/>
      <point x="594" y="105" type="line"/>
      <point x="623" y="275.5" type="line"/>
    </contour>
  </outline>
</glyph>
<glyph name="onehalf" format="1">
  <advance width="846"/>
  <unicode hex="00BD"/>
  <outline>
    <contour>
      <point x="697.5" y="699" type="line"/>
      <point x="788.5" y="699" type="line"/>
      <point x="164.5" y="0" type="line"/>
      <point x="74" y="0" type="line"/>
    </contour>
    <contour>
      <point x="96.5" y="583.5" type="line"/>
      <point x="110" y="662.5" type="line"/>
      <point x="300" y="702" type="line"/>
      <point x="226" y="274.5" type="line"/>
      <point x="141.5" y="274.5" type="line"/>
      <point x="198" y="608" type="line"/>
    </contour>
    <contour>
      <point x="458" y="3" type="line"/>
      <point x="676" y="201" type="line" smooth="yes"/>
      <point x="707" y="230"/>
      <point x="739" y="258"/>
      <point x="745" y="295" type="curve" smooth="yes"/>
      <point x="749" y="323"/>
      <point x="734" y="352"/>
      <point x="698" y="353.5" type="curve" smooth="yes"/>
      <point x="652.5" y="356"/>
      <point x="622" y="313"/>
      <point x="612" y="270.5" type="curve"/>
      <point x="526.5" y="271" type="line"/>
      <point x="544" y="356.5"/>
      <point x="606.5" y="430"/>
      <point x="706.5" y="429.5" type="curve" smooth="yes"/>
      <point x="794" y="429"/>
      <point x="844" y="365"/>
      <point x="833" y="296.5" type="curve" smooth="yes"/>
      <point x="826" y="251"/>
      <point x="794.5" y="214"/>
      <point x="758.5" y="183.5" type="curve" smooth="yes"/>
      <point x="637.5" y="83" type="line"/>
      <point x="804" y="82" type="line"/>
      <point x="790.5" y="2.5" type="line"/>
    </contour>
  </outline>
</glyph>
<glyph name="threequarters" format="2">
  <advance width="835"/>
  <unicode hex="00BE"/>
  <outline>
    <contour>
      <point x="760" y="699" type="line"/>
      <point x="851" y="699" type="line"/>
      <point x="227" y="0" type="line"/>
      <point x="137" y="0" type="line"/>
    </contour>
    <contour>
      <point x="209" y="485" type="curve"/>
      <point x="215" y="526" type="line"/>
      <point x="258" y="530"/>
      <point x="297" y="551"/>
      <point x="304" y="588" type="curve" smooth="yes"/>
      <point x="308" y="614"/>
      <point x="294" y="635"/>
      <point x="264" y="636" type="curve" smooth="yes"/>
      <point x="230" y="637"/>
      <point x="206" y="610"/>
      <point x="197" y="583" type="curve"/>
      <point x="115" y="584" type="line"/>
      <point x="131" y="653"/>
      <point x="189" y="707"/>
      <point x="270" y="707" type="curve" smooth="yes"/>
      <point x="347" y="707"/>
      <point x="400" y="657"/>
      <point x="389" y="591" type="curve" smooth="yes"/>
      <point x="377" y="516"/>
      <point x="293" y="488"/>
    </contour>
    <contour>
      <point x="199" y="272" type="curve" smooth="yes"/>
      <point x="109" y="272"/>
      <point x="63" y="333"/>
      <point x="67" y="407" type="curve"/>
      <point x="151" y="407" type="line"/>
      <point x="151" y="371"/>
      <point x="167" y="345"/>
      <point x="206" y="344" type="curve" smooth="yes"/>
      <point x="242" y="343"/>
      <point x="277" y="368"/>
      <point x="282" y="403" type="curve" smooth="yes"/>
      <point x="290" y="447"/>
      <point x="251" y="464"/>
      <point x="204" y="467" type="curve"/>
      <point x="212" y="512" type="line"/>
      <point x="299" y="509"/>
      <point x="380" y="480"/>
      <point x="367" y="393" type="curve" smooth="yes"/>
      <point x="356" y="319"/>
      <point x="284" y="272"/>
    </contour>
    <contour>
      <point x="434" y="78" type="line"/>
      <point x="514" y="142" type="line"/>
      <point x="692" y="142" type="line"/>
      <point x="704" y="152" type="line"/>
      <point x="807" y="151" type="line"/>
      <point x="794" y="78" type="line"/>
    </contour>
    <contour>
      <point x="529" y="99" type="line"/>
      <point x="432" y="76" type="line"/>
      <point x="727" y="419" type="line"/>
      <point x="788" y="420" type="line"/>
      <point x="716" y="0" type="line"/>
      <point x="627" y="0" type="line"/>
      <point x="644" y="99" type="line"/>
      <point x="653" y="105" type="line"/>
      <point x="682" y="276" type="line"/>
    </contour>
  </outline>
</glyph>
<glyph name="questiondown" format="1">
  <advance width="588"/>
  <unicode hex="00BF"/>
  <outline>
    <contour>
      <point x="189.5" y="200" type="curve" smooth="yes"/>
      <point x="179" y="138"/>
      <point x="218" y="97.5"/>
      <point x="286.5" y="97" type="curve" smooth="yes"/>
      <point x="351.5" y="96"/>
      <point x="410" y="134"/>
      <point x="451.5" y="181.5" type="curve"/>
      <point x="532.5" y="108" type="line"/>
      <point x="461.5" y="35"/>
      <point x="379" y="-17.5"/>
      <point x="266" y="-16.5" type="curve" smooth="yes"/>
      <point x="141" y="-15.5"/>
      <point x="41.5" y="74.5"/>
      <point x="60" y="200.5" type="curve" smooth="yes"/>
      <point x="78.5" y="320.5"/>
      <point x="189" y="393.5"/>
      <point x="301" y="413.5" type="curve"/>
      <point x="323.5" y="507.5" type="line"/>
      <point x="428.5" y="507.5" type="line"/>
      <point x="419" y="330.5" type="line"/>
      <point x="390.5" y="330.5" type="line"/>
      <point x="289.5" y="328.5"/>
      <point x="204.5" y="271"/>
    </contour>
    <contour>
      <point x="481" y="645.5" type="curve" smooth="yes"/>
      <point x="476" y="606"/>
      <point x="432.5" y="571"/>
      <point x="389" y="572" type="curve" smooth="yes"/>
      <point x="345" y="573"/>
      <point x="313" y="607"/>
      <point x="318" y="647.5" type="curve" smooth="yes"/>
      <point x="323" y="687"/>
      <point x="365.5" y="722.5"/>
      <point x="409" y="721.5" type="curve" smooth="yes"/>
      <point x="453" y="720.5"/>
      <point x="486" y="686"/>
    </contour>
  </outline>
</glyph>
<glyph name="Agrave" format="1">
  <advance width="691"/>
  <unicode hex="00C0"/>
  <outline>
    <contour>
      <point x="167" y="156.5" type="line"/>
      <point x="202.5" y="271" type="line"/>
      <point x="532.5" y="271.5" type="line"/>
      <point x="528" y="156" type="line"/>
    </contour>
    <contour>
      <point x="402" y="470.5" type="line"/>
      <point x="259.5" y="230" type="line"/>
      <point x="257.5" y="197.5" type="line"/>
      <point x="135.5" y="0" type="line"/>
      <point x="-30" y="0" type="line"/>
      <point x="445" y="744" type="line"/>
      <point x="664" y="0" type="line"/>
      <point x="506" y="0" type="line"/>
      <point x="451" y="191.5" type="line"/>
      <point x="460" y="228.5" type="line"/>
    </contour>
    <contour>
      <point x="333.5" y="954" type="line"/>
      <point x="440.5" y="1000.5" type="line"/>
      <point x="561.5" y="838.5" type="line"/>
      <point x="486" y="802" type="line"/>
    </contour>
  </outline>
</glyph>
<glyph name="Aacute" format="1">
  <advance width="691"/>
  <unicode hex="00C1"/>
  <outline>
    <contour>
      <point x="167" y="156.5" type="line"/>
      <point x="202.5" y="271" type="line"/>
      <point x="532.5" y="271.5" type="line"/>
      <point x="528" y="156" type="line"/>
    </contour>
    <contour>
      <point x="402" y="470.5" type="line"/>
      <point x="259.5" y="230" type="line"/>
      <point x="257.5" y="197.5" type="line"/>
      <point x="135.5" y="0" type="line"/>
      <point x="-30" y="0" type="line"/>
      <point x="445" y="744" type="line"/>
      <point x="664" y="0" type="line"/>
      <point x="506" y="0" type="line"/>
      <point x="451" y="191.5" type="line"/>
      <point x="460" y="228.5" type="line"/>
    </contour>
    <contour>
      <point x="628.5" y="949" type="line"/>
      <point x="430.5" y="802.5" type="line"/>
      <point x="361" y="843" type="line"/>
      <point x="531.5" y="999.5" type="line"/>
    </contour>
  </outline>
</glyph>
<glyph name="Acircumflex" format="2">
  <advance width="691"/>
  <unicode hex="00C2"/>
  <outline>
    <contour>
      <point x="167" y="157" type="line"/>
      <point x="203" y="271" type="line"/>
      <point x="532" y="271" type="line"/>
      <point x="528" y="157" type="line"/>
    </contour>
    <contour>
      <point x="402" y="471" type="line"/>
      <point x="260" y="230" type="line"/>
      <point x="258" y="198" type="line"/>
      <point x="135" y="0" type="line"/>
      <point x="-30" y="0" type="line"/>
      <point x="445" y="744" type="line"/>
      <point x="664" y="0" type="line"/>
      <point x="506" y="0" type="line"/>
      <point x="451" y="192" type="line"/>
      <point x="460" y="228" type="line"/>
    </contour>
    <contour>
      <point x="471" y="867" type="line"/>
      <point x="361" y="780" type="line"/>
      <point x="281" y="844" type="line"/>
      <point x="483" y="982" type="line"/>
      <point x="644" y="840" type="line"/>
      <point x="549" y="779" type="line"/>
    </contour>
  </outline>
</glyph>
<glyph name="Atilde" format="1">
  <advance width="691"/>
  <unicode hex="00C3"/>
  <outline>
    <contour>
      <point x="167" y="156.5" type="line"/>
      <point x="202.5" y="271" type="line"/>
      <point x="532.5" y="271.5" type="line"/>
      <point x="528" y="156" type="line"/>
    </contour>
    <contour>
      <point x="402" y="470.5" type="line"/>
      <point x="259.5" y="230" type="line"/>
      <point x="257.5" y="197.5" type="line"/>
      <point x="135.5" y="0" type="line"/>
      <point x="-30" y="0" type="line"/>
      <point x="445" y="744" type="line"/>
      <point x="664" y="0" type="line"/>
      <point x="506" y="0" type="line"/>
      <point x="451" y="191.5" type="line"/>
      <point x="460" y="228.5" type="line"/>
    </contour>
    <contour>
      <point x="281" y="850" type="line"/>
      <point x="301.5" y="895.5"/>
      <point x="348" y="940"/>
      <point x="405.5" y="938.5" type="curve" smooth="yes"/>
      <point x="459.5" y="937.5"/>
      <point x="476.5" y="888"/>
      <point x="525.5" y="889.5" type="curve" smooth="yes"/>
      <point x="552.5" y="890.5"/>
      <point x="576" y="914"/>
      <point x="597" y="939.5" type="curve"/>
      <point x="651.5" y="873" type="line"/>
      <point x="626.5" y="836.5"/>
      <point x="575" y="791.5"/>
      <point x="518" y="793.5" type="curve" smooth="yes"/>
      <point x="470" y="795"/>
      <point x="441.5" y="846"/>
      <point x="396.5" y="843.5" type="curve" smooth="yes"/>
      <point x="362" y="842"/>
      <point x="348.5" y="811.5"/>
      <point x="340" y="793.5" type="curve"/>
    </contour>
  </outline>
</glyph>
<glyph name="Adieresis" format="1">
  <advance width="691"/>
  <unicode hex="00C4"/>
  <outline>
    <contour>
      <point x="167" y="156.5" type="line"/>
      <point x="202.5" y="271" type="line"/>
      <point x="532.5" y="271.5" type="line"/>
      <point x="528" y="156" type="line"/>
    </contour>
    <contour>
      <point x="402" y="470.5" type="line"/>
      <point x="259.5" y="230" type="line"/>
      <point x="257.5" y="197.5" type="line"/>
      <point x="135.5" y="0" type="line"/>
      <point x="-30" y="0" type="line"/>
      <point x="445" y="744" type="line"/>
      <point x="664" y="0" type="line"/>
      <point x="506" y="0" type="line"/>
      <point x="451" y="191.5" type="line"/>
      <point x="460" y="228.5" type="line"/>
    </contour>
    <contour>
      <point x="510" y="837" type="curve" smooth="yes"/>
      <point x="515" y="877"/>
      <point x="556.5" y="910.5"/>
      <point x="597" y="909.5" type="curve" smooth="yes"/>
      <point x="638.5" y="908.5"/>
      <point x="669" y="875.5"/>
      <point x="664" y="834.5" type="curve" smooth="yes"/>
      <point x="659" y="794.5"/>
      <point x="617.5" y="761"/>
      <point x="577" y="762" type="curve" smooth="yes"/>
      <point x="535.5" y="763"/>
      <point x="505" y="796"/>
    </contour>
    <contour>
      <point x="255.5" y="841" type="curve" smooth="yes"/>
      <point x="260.5" y="881"/>
      <point x="302.5" y="915"/>
      <point x="343" y="914" type="curve" smooth="yes"/>
      <point x="384.5" y="913"/>
      <point x="415.5" y="880"/>
      <point x="410.5" y="839" type="curve" smooth="yes"/>
      <point x="405.5" y="799"/>
      <point x="363" y="765"/>
      <point x="322.5" y="766" type="curve" smooth="yes"/>
      <point x="281" y="767"/>
      <point x="250.5" y="800"/>
    </contour>
  </outline>
</glyph>
<glyph name="Aring" format="1">
  <advance width="691"/>
  <unicode hex="00C5"/>
  <outline>
    <contour>
      <point x="167" y="156.5" type="line"/>
      <point x="202.5" y="271" type="line"/>
      <point x="532.5" y="271.5" type="line"/>
      <point x="528" y="156" type="line"/>
    </contour>
    <contour>
      <point x="402" y="470.5" type="line"/>
      <point x="259.5" y="230" type="line"/>
      <point x="257.5" y="197.5" type="line"/>
      <point x="135.5" y="0" type="line"/>
      <point x="-30" y="0" type="line"/>
      <point x="445" y="744" type="line"/>
      <point x="664" y="0" type="line"/>
      <point x="506" y="0" type="line"/>
      <point x="451" y="191.5" type="line"/>
      <point x="460" y="228.5" type="line"/>
    </contour>
    <contour>
      <point x="339.5" y="801" type="curve" smooth="yes"/>
      <point x="348" y="863.5"/>
      <point x="408" y="911"/>
      <point x="471" y="910.5" type="curve" smooth="yes"/>
      <point x="534" y="910"/>
      <point x="580.5" y="861.5"/>
      <point x="572" y="799" type="curve" smooth="yes"/>
      <point x="563.5" y="736.5"/>
      <point x="502.5" y="688.5"/>
      <point x="439.5" y="689" type="curve" smooth="yes"/>
      <point x="376.5" y="689.5"/>
      <point x="331" y="738.5"/>
    </contour>
    <contour>
      <point x="409" y="799" type="curve" smooth="yes"/>
      <point x="406" y="774.5"/>
      <point x="421.5" y="753"/>
      <point x="444.5" y="751.5" type="curve" smooth="yes"/>
      <point x="468.5" y="750"/>
      <point x="499" y="774.5"/>
      <point x="502" y="800.5" type="curve" smooth="yes"/>
      <point x="505" y="825"/>
      <point x="489" y="847"/>
      <point x="466" y="848.5" type="curve" smooth="yes"/>
      <point x="442" y="850"/>
      <point x="412" y="825"/>
    </contour>
  </outline>
</glyph>
<glyph name="AE" format="1">
  <advance width="1018"/>
  <unicode hex="00C6"/>
  <outline>
    <contour>
      <point x="247.5" y="167.5" type="line"/>
      <point x="275.5" y="301" type="line"/>
      <point x="569" y="301" type="line"/>
      <point x="545.5" y="167.5" type="line"/>
    </contour>
    <contour>
      <point x="519.5" y="700" type="line"/>
      <point x="643.5" y="657.5" type="line"/>
      <point x="161.5" y="0" type="line"/>
      <point x="-18" y="0" type="line"/>
    </contour>
    <contour>
      <point x="558.5" y="0" type="line"/>
      <point x="579.5" y="122.5" type="line"/>
      <point x="946.5" y="122.5" type="line"/>
      <point x="925" y="0" type="line"/>
    </contour>
    <contour>
      <point x="669" y="577.5" type="line"/>
      <point x="519.5" y="700" type="line"/>
      <point x="1044.5" y="700" type="line"/>
      <point x="1023.5" y="577.5" type="line"/>
    </contour>
    <contour>
      <point x="611.5" y="311" type="line"/>
      <point x="632" y="431" type="line"/>
      <point x="979.5" y="431" type="line"/>
      <point x="958.5" y="310.5" type="line"/>
    </contour>
    <contour>
      <point x="607.5" y="699.5" type="line"/>
      <point x="760.5" y="700" type="line"/>
      <point x="640" y="0" type="line"/>
      <point x="489" y="0" type="line"/>
    </contour>
  </outline>
</glyph>
<glyph name="Ccedilla" format="1">
  <advance width="675"/>
  <unicode hex="00C7"/>
  <outline>
    <contour>
      <point x="221" y="350" type="curve" smooth="yes"/>
      <point x="202" y="228"/>
      <point x="272.5" y="127"/>
      <point x="395" y="125.5" type="curve" smooth="yes"/>
      <point x="489" y="124.5"/>
      <point x="563" y="169.5"/>
      <point x="621.5" y="220" type="curve"/>
      <point x="597" y="57.5" type="line"/>
      <point x="533.5" y="13"/>
      <point x="465.5" y="-15"/>
      <point x="373" y="-14.5" type="curve" smooth="yes"/>
      <point x="163" y="-14"/>
      <point x="36.5" y="150.5"/>
      <point x="66" y="350" type="curve" smooth="yes"/>
      <point x="97.5" y="557.5"/>
      <point x="274" y="714"/>
      <point x="488.5" y="714.5" type="curve" smooth="yes"/>
      <point x="577" y="715"/>
      <point x="638" y="689"/>
      <point x="694" y="641.5" type="curve"/>
      <point x="669" y="479" type="line"/>
      <point x="627" y="536"/>
      <point x="566" y="574.5"/>
      <point x="480" y="574.5" type="curve" smooth="yes"/>
      <point x="355.5" y="574"/>
      <point x="243" y="478.5"/>
    </contour>
    <contour>
      <point x="332.5" y="50" type="line"/>
      <point x="430.5" y="48" type="line"/>
      <point x="329.5" y="-70.5" type="line"/>
      <point x="337.5" y="-69"/>
      <point x="347" y="-68.5"/>
      <point x="355.5" y="-68.5" type="curve" smooth="yes"/>
      <point x="398.5" y="-71.5"/>
      <point x="434" y="-106.5"/>
      <point x="427.5" y="-159.5" type="curve" smooth="yes"/>
      <point x="419" y="-224.5"/>
      <point x="352.5" y="-262"/>
      <point x="292" y="-263" type="curve" smooth="yes"/>
      <point x="244.5" y="-263.5"/>
      <point x="207.5" y="-249.5"/>
      <point x="169" y="-223" type="curve"/>
      <point x="218" y="-165" type="line"/>
      <point x="238.5" y="-180"/>
      <point x="261" y="-189.5"/>
      <point x="284" y="-189.5" type="curve" smooth="yes"/>
      <point x="311" y="-189.5"/>
      <point x="342" y="-174.5"/>
      <point x="344.5" y="-151.5" type="curve" smooth="yes"/>
      <point x="347" y="-128"/>
      <point x="320.5" y="-120"/>
      <point x="297" y="-119.5" type="curve" smooth="yes"/>
      <point x="278.5" y="-118.5"/>
      <point x="247" y="-124"/>
      <point x="218.5" y="-134.5" type="curve"/>
    </contour>
  </outline>
</glyph>
<glyph name="Eacute" format="1">
  <advance width="570"/>
  <unicode hex="00C9"/>
  <outline>
    <contour>
      <point x="136.5" y="0" type="line"/>
      <point x="158" y="122.5" type="line"/>
      <point x="503" y="122.5" type="line"/>
      <point x="481.5" y="0" type="line"/>
    </contour>
    <contour>
      <point x="235.5" y="577.5" type="line"/>
      <point x="256.5" y="700" type="line"/>
      <point x="601" y="700" type="line"/>
      <point x="580" y="577.5" type="line"/>
    </contour>
    <contour>
      <point x="189.5" y="311" type="line"/>
      <point x="210.5" y="431" type="line"/>
      <point x="536" y="431" type="line"/>
      <point x="515" y="310.5" type="line"/>
    </contour>
    <contour>
      <point x="164.5" y="699.5" type="line"/>
      <point x="304.5" y="700" type="line"/>
      <point x="184" y="0" type="line"/>
      <point x="46" y="0" type="line"/>
    </contour>
    <contour>
      <point x="568.5" y="926" type="line"/>
      <point x="371" y="780" type="line"/>
      <point x="300.5" y="820.5" type="line"/>
      <point x="471.5" y="977.5" type="line"/>
    </contour>
  </outline>
</glyph>
<glyph name="Ecircumflex" format="1">
  <advance width="570"/>
  <unicode hex="00CA"/>
  <outline>
    <contour>
      <point x="136.5" y="0" type="line"/>
      <point x="158" y="122.5" type="line"/>
      <point x="503" y="122.5" type="line"/>
      <point x="481.5" y="0" type="line"/>
    </contour>
    <contour>
      <point x="235.5" y="577.5" type="line"/>
      <point x="256.5" y="700" type="line"/>
      <point x="601" y="700" type="line"/>
      <point x="580" y="577.5" type="line"/>
    </contour>
    <contour>
      <point x="189.5" y="311" type="line"/>
      <point x="210.5" y="431" type="line"/>
      <point x="536" y="431" type="line"/>
      <point x="515" y="310.5" type="line"/>
    </contour>
    <contour>
      <point x="164.5" y="699.5" type="line"/>
      <point x="304.5" y="700" type="line"/>
      <point x="184" y="0" type="line"/>
      <point x="46" y="0" type="line"/>
    </contour>
    <contour>
      <point x="422" y="877.5" type="line"/>
      <point x="298" y="783.5" type="line"/>
      <point x="252.5" y="825.5" type="line"/>
      <point x="429.5" y="963.5" type="line"/>
      <point x="565" y="821.5" type="line"/>
      <point x="512" y="783.5" type="line"/>
    </contour>
  </outline>
</glyph>
<glyph name="Edieresis" format="1">
  <advance width="570"/>
  <unicode hex="00CB"/>
  <outline>
    <contour>
      <point x="136.5" y="0" type="line"/>
      <point x="158" y="122.5" type="line"/>
      <point x="503" y="122.5" type="line"/>
      <point x="481.5" y="0" type="line"/>
    </contour>
    <contour>
      <point x="235.5" y="577.5" type="line"/>
      <point x="256.5" y="700" type="line"/>
      <point x="601" y="700" type="line"/>
      <point x="580" y="577.5" type="line"/>
    </contour>
    <contour>
      <point x="189.5" y="311" type="line"/>
      <point x="210.5" y="431" type="line"/>
      <point x="536" y="431" type="line"/>
      <point x="515" y="310.5" type="line"/>
    </contour>
    <contour>
      <point x="164.5" y="699.5" type="line"/>
      <point x="304.5" y="700" type="line"/>
      <point x="184" y="0" type="line"/>
      <point x="46" y="0" type="line"/>
    </contour>
    <contour>
      <point x="450.5" y="861" type="curve" smooth="yes"/>
      <point x="455.5" y="901"/>
      <point x="497.5" y="934.5"/>
      <point x="538" y="933.5" type="curve" smooth="yes"/>
      <point x="579.5" y="932.5"/>
      <point x="609.5" y="900"/>
      <point x="604.5" y="859" type="curve" smooth="yes"/>
      <point x="599.5" y="819"/>
      <point x="558" y="785"/>
      <point x="517.5" y="786" type="curve" smooth="yes"/>
      <point x="476" y="787"/>
      <point x="445.5" y="820"/>
    </contour>
    <contour>
      <point x="226" y="861" type="curve" smooth="yes"/>
      <point x="231" y="901"/>
      <point x="272.5" y="934.5"/>
      <point x="313" y="933.5" type="curve" smooth="yes"/>
      <point x="354.5" y="932.5"/>
      <point x="385" y="900"/>
      <point x="380" y="859" type="curve" smooth="yes"/>
      <point x="375" y="819"/>
      <point x="333.5" y="785"/>
      <point x="293" y="786" type="curve" smooth="yes"/>
      <point x="251.5" y="787"/>
      <point x="221" y="820"/>
    </contour>
  </outline>
</glyph>
<glyph name="Igrave" format="1">
  <advance width="289"/>
  <unicode hex="00CC"/>
  <outline>
    <contour>
      <point x="164.5" y="699.5" type="line"/>
      <point x="310.5" y="700" type="line"/>
      <point x="190" y="0" type="line"/>
      <point x="46" y="0" type="line"/>
    </contour>
    <contour>
      <point x="124" y="931" type="line"/>
      <point x="231" y="978.5" type="line"/>
      <point x="351.5" y="816" type="line"/>
      <point x="276" y="779" type="line"/>
    </contour>
  </outline>
</glyph>
<glyph name="Iacute" format="1">
  <advance width="289"/>
  <unicode hex="00CD"/>
  <outline>
    <contour>
      <point x="164.5" y="699.5" type="line"/>
      <point x="310.5" y="700" type="line"/>
      <point x="190" y="0" type="line"/>
      <point x="46" y="0" type="line"/>
    </contour>
    <contour>
      <point x="418.5" y="926" type="line"/>
      <point x="220.5" y="779.5" type="line"/>
      <point x="151.5" y="820.5" type="line"/>
      <point x="322" y="977.5" type="line"/>
    </contour>
  </outline>
</glyph>
<glyph name="Icircumflex" format="1">
  <advance width="289"/>
  <unicode hex="00CE"/>
  <outline>
    <contour>
      <point x="164.5" y="699.5" type="line"/>
      <point x="310.5" y="700" type="line"/>
      <point x="190" y="0" type="line"/>
      <point x="46" y="0" type="line"/>
    </contour>
    <contour>
      <point x="266.5" y="877.5" type="line"/>
      <point x="142.5" y="783.5" type="line"/>
      <point x="97.5" y="825.5" type="line"/>
      <point x="274.5" y="963.5" type="line"/>
      <point x="409.5" y="821.5" type="line"/>
      <point x="357" y="783.5" type="line"/>
    </contour>
  </outline>
</glyph>
<glyph name="Idieresis" format="2">
  <advance width="289"/>
  <unicode hex="00CF"/>
  <outline>
    <contour>
      <point x="164" y="700" type="line"/>
      <point x="310" y="700" type="line"/>
      <point x="190" y="0" type="line"/>
      <point x="46" y="0" type="line"/>
    </contour>
    <contour>
      <point x="298" y="850" type="curve" smooth="yes"/>
      <point x="303" y="890"/>
      <point x="344" y="923"/>
      <point x="385" y="922" type="curve" smooth="yes"/>
      <point x="426" y="921"/>
      <point x="457" y="888"/>
      <point x="452" y="847" type="curve" smooth="yes"/>
      <point x="447" y="807"/>
      <point x="406" y="774"/>
      <point x="365" y="775" type="curve" smooth="yes"/>
      <point x="323" y="776"/>
      <point x="293" y="809"/>
    </contour>
    <contour>
      <point x="74" y="850" type="curve" smooth="yes"/>
      <point x="79" y="890"/>
      <point x="119" y="923"/>
      <point x="160" y="922" type="curve" smooth="yes"/>
      <point x="201" y="921"/>
      <point x="233" y="888"/>
      <point x="228" y="847" type="curve" smooth="yes"/>
      <point x="223" y="807"/>
      <point x="181" y="774"/>
      <point x="140" y="775" type="curve" smooth="yes"/>
      <point x="98" y="776"/>
      <point x="69" y="809"/>
    </contour>
  </outline>
</glyph>
<glyph name="Eth" format="2">
  <advance width="695"/>
  <unicode hex="00D0"/>
  <outline>
    <contour>
      <point x="29" y="305" type="line"/>
      <point x="46" y="397" type="line"/>
      <point x="373" y="397" type="line"/>
      <point x="357" y="305" type="line"/>
    </contour>
    <contour>
      <point x="164" y="700" type="line"/>
      <point x="312" y="700" type="line"/>
      <point x="192" y="0" type="line"/>
      <point x="46" y="0" type="line"/>
    </contour>
    <contour>
      <point x="282" y="0" type="curve"/>
      <point x="135" y="0" type="line"/>
      <point x="159" y="132" type="line"/>
      <point x="292" y="132" type="line"/>
      <point x="420" y="135"/>
      <point x="526" y="211"/>
      <point x="549" y="350" type="curve" smooth="yes"/>
      <point x="570" y="483"/>
      <point x="500" y="565"/>
      <point x="375" y="568" type="curve"/>
      <point x="232" y="568" type="line"/>
      <point x="256" y="700" type="line"/>
      <point x="393" y="700" type="line"/>
      <point x="604" y="697"/>
      <point x="726" y="550"/>
      <point x="696" y="350" type="curve" smooth="yes"/>
      <point x="664" y="143"/>
      <point x="498" y="3"/>
    </contour>
  </outline>
</glyph>
<glyph name="Ntilde" format="2">
  <advance width="764"/>
  <unicode hex="00D1"/>
  <outline>
    <contour>
      <point x="647" y="700" type="line"/>
      <point x="786" y="700" type="line"/>
      <point x="660" y="-34" type="line"/>
      <point x="258" y="431" type="line"/>
      <point x="184" y="0" type="line"/>
      <point x="45" y="0" type="line"/>
      <point x="170" y="734" type="line"/>
      <point x="572" y="269" type="line"/>
    </contour>
    <contour>
      <point x="291" y="823" type="line"/>
      <point x="311" y="868"/>
      <point x="357" y="914"/>
      <point x="415" y="912" type="curve" smooth="yes"/>
      <point x="469" y="911"/>
      <point x="486" y="860"/>
      <point x="535" y="862" type="curve" smooth="yes"/>
      <point x="562" y="863"/>
      <point x="585" y="887"/>
      <point x="606" y="913" type="curve"/>
      <point x="660" y="846" type="line"/>
      <point x="635" y="809"/>
      <point x="584" y="765"/>
      <point x="527" y="767" type="curve" smooth="yes"/>
      <point x="479" y="769"/>
      <point x="451" y="819"/>
      <point x="406" y="817" type="curve" smooth="yes"/>
      <point x="372" y="815"/>
      <point x="357" y="785"/>
      <point x="349" y="767" type="curve"/>
    </contour>
  </outline>
</glyph>
<glyph name="Oacute" format="1">
  <advance width="788"/>
  <unicode hex="00D3"/>
  <outline>
    <contour>
      <point x="217.5" y="350" type="curve" smooth="yes"/>
      <point x="199" y="232.5"/>
      <point x="255" y="122.5"/>
      <point x="383.5" y="121.5" type="curve" smooth="yes"/>
      <point x="513.5" y="120.5"/>
      <point x="614.5" y="225.5"/>
      <point x="636" y="350" type="curve" smooth="yes"/>
      <point x="654.5" y="467.5"/>
      <point x="599.5" y="577.5"/>
      <point x="470" y="578.5" type="curve" smooth="yes"/>
      <point x="340" y="579.5"/>
      <point x="238.5" y="474.5"/>
    </contour>
    <contour>
      <point x="66" y="350" type="curve" smooth="yes"/>
      <point x="97" y="554.5"/>
      <point x="273.5" y="715"/>
      <point x="484.5" y="714.5" type="curve" smooth="yes"/>
      <point x="693" y="714"/>
      <point x="816" y="547"/>
      <point x="787.5" y="350" type="curve" smooth="yes"/>
      <point x="756.5" y="145"/>
      <point x="582" y="-19.5"/>
      <point x="368" y="-19" type="curve" smooth="yes"/>
      <point x="157.5" y="-18.5"/>
      <point x="37.5" y="153"/>
    </contour>
    <contour>
      <point x="673.5" y="926" type="line"/>
      <point x="475.5" y="780" type="line"/>
      <point x="405.5" y="820.5" type="line"/>
      <point x="576" y="977.5" type="line"/>
    </contour>
  </outline>
</glyph>
<glyph name="Ocircumflex" format="1">
  <advance width="788"/>
  <unicode hex="00D4"/>
  <outline>
    <contour>
      <point x="217.5" y="350" type="curve" smooth="yes"/>
      <point x="199" y="232.5"/>
      <point x="255" y="122.5"/>
      <point x="383.5" y="121.5" type="curve" smooth="yes"/>
      <point x="513.5" y="120.5"/>
      <point x="614.5" y="225.5"/>
      <point x="636" y="350" type="curve" smooth="yes"/>
      <point x="654.5" y="467.5"/>
      <point x="599.5" y="577.5"/>
      <point x="470" y="578.5" type="curve" smooth="yes"/>
      <point x="340" y="579.5"/>
      <point x="238.5" y="474.5"/>
    </contour>
    <contour>
      <point x="66" y="350" type="curve" smooth="yes"/>
      <point x="97" y="554.5"/>
      <point x="273.5" y="715"/>
      <point x="484.5" y="714.5" type="curve" smooth="yes"/>
      <point x="693" y="714"/>
      <point x="816" y="547"/>
      <point x="787.5" y="350" type="curve" smooth="yes"/>
      <point x="756.5" y="145"/>
      <point x="582" y="-19.5"/>
      <point x="368" y="-19" type="curve" smooth="yes"/>
      <point x="157.5" y="-18.5"/>
      <point x="37.5" y="153"/>
    </contour>
    <contour>
      <point x="527.5" y="877.5" type="line"/>
      <point x="403.5" y="783.5" type="line"/>
      <point x="358" y="825.5" type="line"/>
      <point x="535.5" y="963.5" type="line"/>
      <point x="670.5" y="821.5" type="line"/>
      <point x="618" y="783.5" type="line"/>
    </contour>
  </outline>
</glyph>
<glyph name="Otilde" format="1">
  <advance width="788"/>
  <unicode hex="00D5"/>
  <outline>
    <contour>
      <point x="217.5" y="350" type="curve" smooth="yes"/>
      <point x="199" y="232.5"/>
      <point x="255" y="122.5"/>
      <point x="383.5" y="121.5" type="curve" smooth="yes"/>
      <point x="513.5" y="120.5"/>
      <point x="614.5" y="225.5"/>
      <point x="636" y="350" type="curve" smooth="yes"/>
      <point x="654.5" y="467.5"/>
      <point x="599.5" y="577.5"/>
      <point x="470" y="578.5" type="curve" smooth="yes"/>
      <point x="340" y="579.5"/>
      <point x="238.5" y="474.5"/>
    </contour>
    <contour>
      <point x="66" y="350" type="curve" smooth="yes"/>
      <point x="97" y="554.5"/>
      <point x="273.5" y="715"/>
      <point x="484.5" y="714.5" type="curve" smooth="yes"/>
      <point x="693" y="714"/>
      <point x="816" y="547"/>
      <point x="787.5" y="350" type="curve" smooth="yes"/>
      <point x="756.5" y="145"/>
      <point x="582" y="-19.5"/>
      <point x="368" y="-19" type="curve" smooth="yes"/>
      <point x="157.5" y="-18.5"/>
      <point x="37.5" y="153"/>
    </contour>
    <contour>
      <point x="350" y="834" type="line"/>
      <point x="350.5" y="878.5"/>
      <point x="425.5" y="914"/>
      <point x="462" y="913.5" type="curve" smooth="yes"/>
      <point x="514" y="912.5"/>
      <point x="527.5" y="866.5"/>
      <point x="574.5" y="868" type="curve" smooth="yes"/>
      <point x="598" y="869"/>
      <point x="619" y="890.5"/>
      <point x="638.5" y="915" type="curve"/>
      <point x="679" y="870.5" type="line"/>
      <point x="656.5" y="836.5"/>
      <point x="615.5" y="797.5"/>
      <point x="567" y="799.5" type="curve" smooth="yes"/>
      <point x="520.5" y="801"/>
      <point x="499.5" y="846.5"/>
      <point x="457.5" y="845.5" type="curve" smooth="yes"/>
      <point x="422" y="844.5"/>
      <point x="407" y="813.5"/>
      <point x="398.5" y="795.5" type="curve"/>
    </contour>
  </outline>
</glyph>
<glyph name="Odieresis" format="1">
  <advance width="788"/>
  <unicode hex="00D6"/>
  <outline>
    <contour>
      <point x="217.5" y="350" type="curve" smooth="yes"/>
      <point x="199" y="232.5"/>
      <point x="255" y="122.5"/>
      <point x="383.5" y="121.5" type="curve" smooth="yes"/>
      <point x="513.5" y="120.5"/>
      <point x="614.5" y="225.5"/>
      <point x="636" y="350" type="curve" smooth="yes"/>
      <point x="654.5" y="467.5"/>
      <point x="599.5" y="577.5"/>
      <point x="470" y="578.5" type="curve" smooth="yes"/>
      <point x="340" y="579.5"/>
      <point x="238.5" y="474.5"/>
    </contour>
    <contour>
      <point x="66" y="350" type="curve" smooth="yes"/>
      <point x="97" y="554.5"/>
      <point x="273.5" y="715"/>
      <point x="484.5" y="714.5" type="curve" smooth="yes"/>
      <point x="693" y="714"/>
      <point x="816" y="547"/>
      <point x="787.5" y="350" type="curve" smooth="yes"/>
      <point x="756.5" y="145"/>
      <point x="582" y="-19.5"/>
      <point x="368" y="-19" type="curve" smooth="yes"/>
      <point x="157.5" y="-18.5"/>
      <point x="37.5" y="153"/>
    </contour>
    <contour>
      <point x="547" y="850" type="curve" smooth="yes"/>
      <point x="552" y="890"/>
      <point x="593.5" y="923.5"/>
      <point x="634" y="922.5" type="curve" smooth="yes"/>
      <point x="675.5" y="921.5"/>
      <point x="706.5" y="888.5"/>
      <point x="701.5" y="847.5" type="curve" smooth="yes"/>
      <point x="696.5" y="807.5"/>
      <point x="654.5" y="774"/>
      <point x="614" y="775" type="curve" smooth="yes"/>
      <point x="572.5" y="776"/>
      <point x="542" y="809"/>
    </contour>
    <contour>
      <point x="322.5" y="850" type="curve" smooth="yes"/>
      <point x="327.5" y="890"/>
      <point x="369.5" y="923.5"/>
      <point x="410" y="922.5" type="curve" smooth="yes"/>
      <point x="451.5" y="921.5"/>
      <point x="482" y="888.5"/>
      <point x="477" y="847.5" type="curve" smooth="yes"/>
      <point x="472" y="807.5"/>
      <point x="430.5" y="774"/>
      <point x="390" y="775" type="curve" smooth="yes"/>
      <point x="348.5" y="776"/>
      <point x="317.5" y="809"/>
    </contour>
  </outline>
</glyph>
<glyph name="multiply" format="1">
  <advance width="578"/>
  <unicode hex="00D7"/>
  <outline>
    <contour>
      <point x="107" y="8.5" type="line"/>
      <point x="38.5" y="95" type="line"/>
      <point x="230" y="258" type="line"/>
      <point x="94.5" y="422" type="line"/>
      <point x="186" y="502" type="line"/>
      <point x="316" y="334.5" type="line"/>
      <point x="504" y="501.5" type="line"/>
      <point x="572.5" y="415" type="line"/>
      <point x="381" y="252" type="line"/>
      <point x="516.5" y="88" type="line"/>
      <point x="425" y="8" type="line"/>
      <point x="295" y="175.5" type="line"/>
    </contour>
  </outline>
</glyph>
<glyph name="Oslash" format="2">
  <advance width="766"/>
  <unicode hex="00D8"/>
  <outline>
    <contour>
      <point x="217" y="350" type="curve" smooth="yes"/>
      <point x="198" y="231"/>
      <point x="254" y="122"/>
      <point x="383" y="121" type="curve" smooth="yes"/>
      <point x="513" y="120"/>
      <point x="615" y="224"/>
      <point x="636" y="350" type="curve" smooth="yes"/>
      <point x="655" y="469"/>
      <point x="599" y="578"/>
      <point x="470" y="579" type="curve" smooth="yes"/>
      <point x="340" y="580"/>
      <point x="238" y="476"/>
    </contour>
    <contour>
      <point x="66" y="350" type="curve" smooth="yes"/>
      <point x="97" y="554"/>
      <point x="273" y="714"/>
      <point x="485" y="714" type="curve" smooth="yes"/>
      <point x="693" y="714"/>
      <point x="817" y="547"/>
      <point x="788" y="350" type="curve" smooth="yes"/>
      <point x="757" y="146"/>
      <point x="581" y="-19"/>
      <point x="368" y="-19" type="curve" smooth="yes"/>
      <point x="159" y="-19"/>
      <point x="37" y="153"/>
    </contour>
    <contour>
      <point x="772" y="754" type="line"/>
      <point x="834" y="702" type="line"/>
      <point x="76" y="-54" type="line"/>
      <point x="16" y="-5" type="line"/>
    </contour>
  </outline>
</glyph>
<glyph name="Ugrave" format="1">
  <advance width="658"/>
  <unicode hex="00D9"/>
  <outline>
    <contour>
      <point x="160.5" y="700" type="line"/>
      <point x="303.5" y="700" type="line"/>
      <point x="223" y="239" type="line" smooth="yes"/>
      <point x="214" y="170"/>
      <point x="238" y="109.5"/>
      <point x="317" y="108.5" type="curve" smooth="yes"/>
      <point x="397" y="107.5"/>
      <point x="449" y="167"/>
      <point x="462.5" y="239.5" type="curve"/>
      <point x="542" y="700" type="line"/>
      <point x="685" y="700" type="line"/>
      <point x="605" y="230" type="line" smooth="yes"/>
      <point x="579.5" y="76.5"/>
      <point x="458.5" y="-23"/>
      <point x="303" y="-23" type="curve" smooth="yes"/>
      <point x="151.5" y="-23"/>
      <point x="60" y="78.5"/>
      <point x="80" y="230" type="curve"/>
    </contour>
    <contour>
      <point x="312.5" y="926" type="line"/>
      <point x="419.5" y="973.5" type="line"/>
      <point x="540" y="811" type="line"/>
      <point x="465" y="774.5" type="line"/>
    </contour>
  </outline>
</glyph>
<glyph name="Uacute" format="1">
  <advance width="658"/>
  <unicode hex="00DA"/>
  <outline>
    <contour>
      <point x="160.5" y="700" type="line"/>
      <point x="303.5" y="700" type="line"/>
      <point x="223" y="239" type="line" smooth="yes"/>
      <point x="214" y="170"/>
      <point x="238" y="109.5"/>
      <point x="317" y="108.5" type="curve" smooth="yes"/>
      <point x="397" y="107.5"/>
      <point x="449" y="167"/>
      <point x="462.5" y="239.5" type="curve"/>
      <point x="542" y="700" type="line"/>
      <point x="685" y="700" type="line"/>
      <point x="605" y="230" type="line" smooth="yes"/>
      <point x="579.5" y="76.5"/>
      <point x="458.5" y="-23"/>
      <point x="303" y="-23" type="curve" smooth="yes"/>
      <point x="151.5" y="-23"/>
      <point x="60" y="78.5"/>
      <point x="80" y="230" type="curve"/>
    </contour>
    <contour>
      <point x="609" y="921.5" type="line"/>
      <point x="411" y="775" type="line"/>
      <point x="341.5" y="815.5" type="line"/>
      <point x="512.5" y="972.5" type="line"/>
    </contour>
  </outline>
</glyph>
<glyph name="Ucircumflex" format="1">
  <advance width="658"/>
  <unicode hex="00DB"/>
  <outline>
    <contour>
      <point x="160.5" y="700" type="line"/>
      <point x="303.5" y="700" type="line"/>
      <point x="223" y="239" type="line" smooth="yes"/>
      <point x="214" y="170"/>
      <point x="238" y="109.5"/>
      <point x="317" y="108.5" type="curve" smooth="yes"/>
      <point x="397" y="107.5"/>
      <point x="449" y="167"/>
      <point x="462.5" y="239.5" type="curve"/>
      <point x="542" y="700" type="line"/>
      <point x="685" y="700" type="line"/>
      <point x="605" y="230" type="line" smooth="yes"/>
      <point x="579.5" y="76.5"/>
      <point x="458.5" y="-23"/>
      <point x="303" y="-23" type="curve" smooth="yes"/>
      <point x="151.5" y="-23"/>
      <point x="60" y="78.5"/>
      <point x="80" y="230" type="curve"/>
    </contour>
    <contour>
      <point x="453" y="862" type="line"/>
      <point x="344.5" y="774.5" type="line"/>
      <point x="264" y="839" type="line"/>
      <point x="466" y="976.5" type="line"/>
      <point x="627.5" y="834.5" type="line"/>
      <point x="531.5" y="774" type="line"/>
    </contour>
  </outline>
</glyph>
<glyph name="Udieresis" format="1">
  <advance width="658"/>
  <unicode hex="00DC"/>
  <outline>
    <contour>
      <point x="160.5" y="700" type="line"/>
      <point x="303.5" y="700" type="line"/>
      <point x="223" y="239" type="line" smooth="yes"/>
      <point x="214" y="170"/>
      <point x="238" y="109.5"/>
      <point x="317" y="108.5" type="curve" smooth="yes"/>
      <point x="397" y="107.5"/>
      <point x="449" y="167"/>
      <point x="462.5" y="239.5" type="curve"/>
      <point x="542" y="700" type="line"/>
      <point x="685" y="700" type="line"/>
      <point x="605" y="230" type="line" smooth="yes"/>
      <point x="579.5" y="76.5"/>
      <point x="458.5" y="-23"/>
      <point x="303" y="-23" type="curve" smooth="yes"/>
      <point x="151.5" y="-23"/>
      <point x="60" y="78.5"/>
      <point x="80" y="230" type="curve"/>
    </contour>
    <contour>
      <point x="496" y="850" type="curve" smooth="yes"/>
      <point x="501" y="890"/>
      <point x="542.5" y="923.5"/>
      <point x="583" y="922.5" type="curve" smooth="yes"/>
      <point x="624.5" y="921.5"/>
      <point x="655" y="888.5"/>
      <point x="650" y="847.5" type="curve" smooth="yes"/>
      <point x="645" y="807.5"/>
      <point x="603.5" y="774"/>
      <point x="563" y="775" type="curve" smooth="yes"/>
      <point x="521.5" y="776"/>
      <point x="491" y="809"/>
    </contour>
    <contour>
      <point x="245" y="850" type="curve" smooth="yes"/>
      <point x="250" y="890"/>
      <point x="292" y="923.5"/>
      <point x="332.5" y="922.5" type="curve" smooth="yes"/>
      <point x="374" y="921.5"/>
      <point x="404.5" y="888.5"/>
      <point x="399.5" y="847.5" type="curve" smooth="yes"/>
      <point x="394.5" y="807.5"/>
      <point x="352.5" y="774"/>
      <point x="312" y="775" type="curve" smooth="yes"/>
      <point x="270.5" y="776"/>
      <point x="240" y="809"/>
    </contour>
  </outline>
</glyph>
<glyph name="Yacute" format="2">
  <advance width="612"/>
  <unicode hex="00DD"/>
  <outline>
    <contour>
      <point x="586" y="922" type="line"/>
      <point x="388" y="775" type="line"/>
      <point x="319" y="816" type="line"/>
      <point x="489" y="973" type="line"/>
    </contour>
    <contour>
      <point x="541" y="700" type="line"/>
      <point x="708" y="700" type="line"/>
      <point x="401" y="286" type="line"/>
      <point x="352" y="0" type="line"/>
      <point x="207" y="0" type="line"/>
      <point x="258" y="293" type="line"/>
      <point x="94" y="700" type="line"/>
      <point x="254" y="700" type="line"/>
      <point x="349" y="422" type="line"/>
    </contour>
  </outline>
</glyph>
<glyph name="Thorn" format="1">
  <advance width="576"/>
  <unicode hex="00DE"/>
  <outline>
    <contour>
      <point x="168.5" y="699.5" type="line"/>
      <point x="297.5" y="700" type="line"/>
      <point x="177" y="0" type="line"/>
      <point x="50" y="0" type="line"/>
    </contour>
    <contour>
      <point x="204.5" y="455.5" type="line"/>
      <point x="225.5" y="573.5" type="line"/>
      <point x="357" y="573.5" type="line"/>
      <point x="505" y="571"/>
      <point x="600.5" y="489"/>
      <point x="579.5" y="351.5" type="curve" smooth="yes"/>
      <point x="558" y="212.5"/>
      <point x="443" y="133.5"/>
      <point x="290" y="131" type="curve"/>
      <point x="149" y="131" type="line"/>
      <point x="170.5" y="249.5" type="line"/>
      <point x="301.5" y="249.5" type="line" smooth="yes"/>
      <point x="376.5" y="251"/>
      <point x="437" y="281.5"/>
      <point x="450" y="352.5" type="curve" smooth="yes"/>
      <point x="462" y="422"/>
      <point x="415.5" y="453"/>
      <point x="344.5" y="455" type="curve"/>
    </contour>
  </outline>
</glyph>
<glyph name="germandbls" format="1">
  <advance width="568"/>
  <unicode hex="00DF"/>
  <outline>
    <contour>
      <point x="260.5" y="109.5" type="line"/>
      <point x="341" y="116.5"/>
      <point x="411.5" y="166.5"/>
      <point x="426" y="249" type="curve" smooth="yes"/>
      <point x="441" y="325"/>
      <point x="384" y="373"/>
      <point x="292.5" y="378" type="curve"/>
      <point x="306.5" y="468.5" type="line"/>
      <point x="456.5" y="463.5"/>
      <point x="574.5" y="372"/>
      <point x="552" y="224.5" type="curve" smooth="yes"/>
      <point x="528.5" y="74"/>
      <point x="397.5" y="-4.5"/>
      <point x="242.5" y="-9.5" type="curve"/>
    </contour>
    <contour>
      <point x="298.5" y="416.5" type="curve"/>
      <point x="311.5" y="498" type="line"/>
      <point x="386.5" y="502"/>
      <point x="435.5" y="532.5"/>
      <point x="445.5" y="587.5" type="curve" smooth="yes"/>
      <point x="453" y="637"/>
      <point x="425" y="674"/>
      <point x="366" y="674.5" type="curve" smooth="yes"/>
      <point x="311" y="675"/>
      <point x="268" y="644"/>
      <point x="259.5" y="592.5" type="curve" smooth="yes"/>
      <point x="157.5" y="0" type="line"/>
      <point x="31" y="0" type="line"/>
      <point x="134.5" y="606.5" type="line" smooth="yes"/>
      <point x="153.5" y="721"/>
      <point x="258.5" y="794"/>
      <point x="379.5" y="794" type="curve" smooth="yes"/>
      <point x="509" y="794"/>
      <point x="591" y="717.5"/>
      <point x="574" y="605.5" type="curve" smooth="yes"/>
      <point x="553.5" y="478.5"/>
      <point x="444.5" y="420"/>
    </contour>
  </outline>
</glyph>
<glyph name="agrave" format="1">
  <advance width="585"/>
  <unicode hex="00E0"/>
  <outline>
    <contour>
      <point x="451.5" y="459.5" type="line"/>
      <point x="580" y="460" type="line"/>
      <point x="500" y="0" type="line"/>
      <point x="373.5" y="0" type="line"/>
    </contour>
    <contour>
      <point x="42.5" y="230" type="curve" smooth="yes"/>
      <point x="61" y="366.5"/>
      <point x="171" y="470.5"/>
      <point x="295.5" y="470" type="curve" smooth="yes"/>
      <point x="419" y="469.5"/>
      <point x="467" y="354.5"/>
      <point x="451" y="230" type="curve" smooth="yes"/>
      <point x="433" y="98.5"/>
      <point x="344.5" y="-9"/>
      <point x="222" y="-9.5" type="curve" smooth="yes"/>
      <point x="97.5" y="-10"/>
      <point x="25.5" y="99"/>
    </contour>
    <contour>
      <point x="177" y="230" type="curve" smooth="yes"/>
      <point x="166.5" y="161.5"/>
      <point x="202" y="99.5"/>
      <point x="271" y="99" type="curve" smooth="yes"/>
      <point x="335" y="98.5"/>
      <point x="398.5" y="157"/>
      <point x="410" y="230" type="curve" smooth="yes"/>
      <point x="419.5" y="298.5"/>
      <point x="385" y="359"/>
      <point x="322.5" y="361" type="curve" smooth="yes"/>
      <point x="252.5" y="363"/>
      <point x="189" y="302.5"/>
    </contour>
    <contour>
      <point x="212" y="682" type="line"/>
      <point x="318.5" y="729.5" type="line"/>
      <point x="439" y="567" type="line"/>
      <point x="364" y="530" type="line"/>
    </contour>
  </outline>
</glyph>
<glyph name="atilde" format="2">
  <advance width="585"/>
  <unicode hex="00E3"/>
  <outline>
    <contour>
      <point x="452" y="460" type="line"/>
      <point x="580" y="460" type="line"/>
      <point x="500" y="0" type="line"/>
      <point x="374" y="0" type="line"/>
    </contour>
    <contour>
      <point x="43" y="230" type="curve" smooth="yes"/>
      <point x="62" y="367"/>
      <point x="170" y="471"/>
      <point x="295" y="470" type="curve" smooth="yes"/>
      <point x="419" y="469"/>
      <point x="467" y="355"/>
      <point x="451" y="230" type="curve" smooth="yes"/>
      <point x="433" y="99"/>
      <point x="345" y="-10"/>
      <point x="222" y="-10" type="curve" smooth="yes"/>
      <point x="97" y="-10"/>
      <point x="26" y="99"/>
    </contour>
    <contour>
      <point x="177" y="230" type="curve" smooth="yes"/>
      <point x="167" y="161"/>
      <point x="201" y="100"/>
      <point x="270" y="99" type="curve" smooth="yes"/>
      <point x="334" y="98"/>
      <point x="398" y="157"/>
      <point x="410" y="230" type="curve" smooth="yes"/>
      <point x="420" y="298"/>
      <point x="384" y="359"/>
      <point x="322" y="361" type="curve" smooth="yes"/>
      <point x="252" y="363"/>
      <point x="189" y="303"/>
    </contour>
    <contour>
      <point x="191" y="589" type="line"/>
      <point x="211" y="636"/>
      <point x="257" y="678"/>
      <point x="315" y="678" type="curve" smooth="yes"/>
      <point x="369" y="678"/>
      <point x="387" y="627"/>
      <point x="436" y="629" type="curve" smooth="yes"/>
      <point x="463" y="630"/>
      <point x="486" y="654"/>
      <point x="507" y="680" type="curve"/>
      <point x="561" y="613" type="line"/>
      <point x="536" y="576"/>
      <point x="485" y="531"/>
      <point x="428" y="533" type="curve" smooth="yes"/>
      <point x="380" y="535"/>
      <point x="351" y="585"/>
      <point x="306" y="583" type="curve" smooth="yes"/>
      <point x="272" y="581"/>
      <point x="259" y="551"/>
      <point x="250" y="533" type="curve"/>
    </contour>
  </outline>
</glyph>
<glyph name="aring" format="1">
  <advance width="585"/>
  <unicode hex="00E5"/>
  <outline>
    <contour>
      <point x="451.5" y="459.5" type="line"/>
      <point x="580" y="460" type="line"/>
      <point x="500" y="0" type="line"/>
      <point x="373.5" y="0" type="line"/>
    </contour>
    <contour>
      <point x="42.5" y="230" type="curve" smooth="yes"/>
      <point x="61" y="366.5"/>
      <point x="171" y="470.5"/>
      <point x="295.5" y="470" type="curve" smooth="yes"/>
      <point x="419" y="469.5"/>
      <point x="467" y="354.5"/>
      <point x="451" y="230" type="curve" smooth="yes"/>
      <point x="433" y="98.5"/>
      <point x="344.5" y="-9"/>
      <point x="222" y="-9.5" type="curve" smooth="yes"/>
      <point x="97.5" y="-10"/>
      <point x="25.5" y="99"/>
    </contour>
    <contour>
      <point x="177" y="230" type="curve" smooth="yes"/>
      <point x="166.5" y="161.5"/>
      <point x="202" y="99.5"/>
      <point x="271" y="99" type="curve" smooth="yes"/>
      <point x="335" y="98.5"/>
      <point x="398.5" y="157"/>
      <point x="410" y="230" type="curve" smooth="yes"/>
      <point x="419.5" y="298.5"/>
      <point x="385" y="359"/>
      <point x="322.5" y="361" type="curve" smooth="yes"/>
      <point x="252.5" y="363"/>
      <point x="189" y="302.5"/>
    </contour>
    <contour>
      <point x="244" y="642" type="curve" smooth="yes"/>
      <point x="252.5" y="704.5"/>
      <point x="312" y="752.5"/>
      <point x="375" y="752" type="curve" smooth="yes"/>
      <point x="438" y="751.5"/>
      <point x="484.5" y="702.5"/>
      <point x="476" y="640" type="curve" smooth="yes"/>
      <point x="467.5" y="577.5"/>
      <point x="407" y="530"/>
      <point x="344" y="530.5" type="curve" smooth="yes"/>
      <point x="281" y="531"/>
      <point x="235.5" y="579.5"/>
    </contour>
    <contour>
      <point x="313.5" y="640.5" type="curve" smooth="yes"/>
      <point x="310.5" y="616"/>
      <point x="326" y="593"/>
      <point x="349" y="592.5" type="curve" smooth="yes"/>
      <point x="373" y="592"/>
      <point x="403" y="616"/>
      <point x="406" y="642" type="curve" smooth="yes"/>
      <point x="409" y="666.5"/>
      <point x="393.5" y="689.5"/>
      <point x="370.5" y="690" type="curve" smooth="yes"/>
      <point x="346" y="690.5"/>
      <point x="316.5" y="666.5"/>
    </contour>
  </outline>
</glyph>
<glyph name="ae" format="1">
  <advance width="849"/>
  <unicode hex="00E6"/>
  <outline>
    <contour>
      <point x="149" y="136.5" type="curve" smooth="yes"/>
      <point x="143.5" y="100.5"/>
      <point x="170" y="82.5"/>
      <point x="209" y="81.5" type="curve" smooth="yes"/>
      <point x="274" y="79.5"/>
      <point x="321.5" y="119"/>
      <point x="337" y="184" type="curve"/>
      <point x="393" y="128.5" type="line"/>
      <point x="371" y="39.5"/>
      <point x="292.5" y="-9.5"/>
      <point x="184" y="-9.5" type="curve" smooth="yes"/>
      <point x="83.5" y="-9.5"/>
      <point x="5" y="37"/>
      <point x="18.5" y="127.5" type="curve" smooth="yes"/>
      <point x="32.5" y="225.5"/>
      <point x="128.5" y="280.5"/>
      <point x="234" y="280.5" type="curve" smooth="yes"/>
      <point x="298.5" y="280.5"/>
      <point x="351" y="256"/>
      <point x="379.5" y="228" type="curve"/>
      <point x="369.5" y="164.5" type="line"/>
      <point x="335" y="191"/>
      <point x="301" y="205"/>
      <point x="253.5" y="204.5" type="curve" smooth="yes"/>
      <point x="202" y="204"/>
      <point x="156" y="180"/>
    </contour>
    <contour>
      <point x="142.5" y="327.5" type="curve"/>
      <point x="109" y="419.5" type="line"/>
      <point x="164" y="446"/>
      <point x="233" y="472.5"/>
      <point x="309.5" y="472" type="curve" smooth="yes"/>
      <point x="415" y="471"/>
      <point x="457.5" y="417"/>
      <point x="445.5" y="325.5" type="curve"/>
      <point x="413" y="130.5" type="line"/>
      <point x="328.5" y="130.5" type="line"/>
      <point x="359.5" y="299" type="line"/>
      <point x="364" y="339"/>
      <point x="336" y="367.5"/>
      <point x="291" y="369.5" type="curve" smooth="yes"/>
      <point x="232.5" y="372"/>
      <point x="176.5" y="344.5"/>
    </contour>
    <contour>
      <point x="410.5" y="201.5" type="line"/>
      <point x="423" y="280.5" type="line"/>
      <point x="820" y="281" type="line"/>
      <point x="824" y="201" type="line"/>
    </contour>
    <contour>
      <point x="697.5" y="245.5" type="line" smooth="yes"/>
      <point x="705.5" y="311.5"/>
      <point x="695" y="375"/>
      <point x="623" y="377" type="curve" smooth="yes"/>
      <point x="553.5" y="379"/>
      <point x="503.5" y="323"/>
      <point x="489.5" y="255.5" type="curve"/>
      <point x="482.5" y="230" type="line"/>
      <point x="472" y="153"/>
      <point x="496.5" y="92.5"/>
      <point x="569" y="90" type="curve" smooth="yes"/>
      <point x="624.5" y="88.5"/>
      <point x="668" y="118.5"/>
      <point x="699" y="155" type="curve"/>
      <point x="809.5" y="118.5" type="line"/>
      <point x="752" y="42.5"/>
      <point x="674.5" y="-10.5"/>
      <point x="558.5" y="-9.5" type="curve" smooth="yes"/>
      <point x="412.5" y="-8"/>
      <point x="357.5" y="101.5"/>
      <point x="379" y="230" type="curve" smooth="yes"/>
      <point x="382.5" y="247"/>
      <point x="390" y="263"/>
      <point x="396" y="279" type="curve" smooth="yes"/>
      <point x="434" y="387"/>
      <point x="523.5" y="470"/>
      <point x="651.5" y="469.5" type="curve" smooth="yes"/>
      <point x="782" y="469"/>
      <point x="847" y="364.5"/>
      <point x="831.5" y="236" type="curve" smooth="yes"/>
      <point x="830" y="226"/>
      <point x="827" y="214.5"/>
      <point x="824.5" y="201.5" type="curve"/>
      <point x="693" y="221.5" type="line"/>
    </contour>
  </outline>
</glyph>
<glyph name="ccedilla" format="2">
  <advance width="474"/>
  <unicode hex="00E7"/>
  <outline>
    <contour>
      <point x="172" y="230" type="curve" smooth="yes"/>
      <point x="161" y="159"/>
      <point x="200" y="100"/>
      <point x="274" y="98" type="curve" smooth="yes"/>
      <point x="335" y="97"/>
      <point x="391" y="129"/>
      <point x="427" y="169" type="curve"/>
      <point x="408" y="36" type="line"/>
      <point x="368" y="8"/>
      <point x="317" y="-10"/>
      <point x="255" y="-10" type="curve" smooth="yes"/>
      <point x="113" y="-10"/>
      <point x="20" y="94"/>
      <point x="40" y="230" type="curve" smooth="yes"/>
      <point x="61" y="369"/>
      <point x="184" y="470"/>
      <point x="329" y="470" type="curve" smooth="yes"/>
      <point x="388" y="470"/>
      <point x="435" y="452"/>
      <point x="471" y="424" type="curve"/>
      <point x="451" y="290" type="line"/>
      <point x="428" y="335"/>
      <point x="381" y="362"/>
      <point x="327" y="362" type="curve" smooth="yes"/>
      <point x="252" y="362"/>
      <point x="185" y="303"/>
    </contour>
    <contour>
      <point x="217" y="59" type="line"/>
      <point x="314" y="57" type="line"/>
      <point x="214" y="-62" type="line"/>
      <point x="222" y="-60"/>
      <point x="230" y="-59"/>
      <point x="239" y="-59" type="curve" smooth="yes"/>
      <point x="282" y="-62"/>
      <point x="317" y="-98"/>
      <point x="311" y="-151" type="curve" smooth="yes"/>
      <point x="302" y="-216"/>
      <point x="236" y="-253"/>
      <point x="176" y="-254" type="curve" smooth="yes"/>
      <point x="128" y="-255"/>
      <point x="92" y="-241"/>
      <point x="53" y="-214" type="curve"/>
      <point x="102" y="-156" type="line"/>
      <point x="123" y="-171"/>
      <point x="146" y="-180"/>
      <point x="168" y="-180" type="curve" smooth="yes"/>
      <point x="195" y="-180"/>
      <point x="227" y="-165"/>
      <point x="229" y="-142" type="curve" smooth="yes"/>
      <point x="231" y="-119"/>
      <point x="205" y="-110"/>
      <point x="181" y="-110" type="curve" smooth="yes"/>
      <point x="163" y="-109"/>
      <point x="131" y="-116"/>
      <point x="103" y="-126" type="curve"/>
    </contour>
  </outline>
</glyph>
<glyph name="ecircumflex" format="2">
  <advance width="539"/>
  <unicode hex="00EA"/>
  <outline>
    <contour>
      <point x="113" y="202" type="line"/>
      <point x="125" y="280" type="line"/>
      <point x="390" y="281" type="line"/>
      <point x="390" y="334"/>
      <point x="372" y="376"/>
      <point x="313" y="377" type="curve" smooth="yes"/>
      <point x="243" y="379"/>
      <point x="193" y="322"/>
      <point x="179" y="255" type="curve"/>
      <point x="172" y="230" type="line"/>
      <point x="161" y="153"/>
      <point x="187" y="93"/>
      <point x="259" y="90" type="curve" smooth="yes"/>
      <point x="314" y="88"/>
      <point x="359" y="118"/>
      <point x="390" y="155" type="curve"/>
      <point x="500" y="119" type="line"/>
      <point x="442" y="43"/>
      <point x="365" y="-11"/>
      <point x="249" y="-10" type="curve" smooth="yes"/>
      <point x="102" y="-9"/>
      <point x="24" y="98"/>
      <point x="43" y="230" type="curve" smooth="yes"/>
      <point x="45" y="247"/>
      <point x="49" y="263"/>
      <point x="54" y="279" type="curve" smooth="yes"/>
      <point x="90" y="391"/>
      <point x="191" y="470"/>
      <point x="324" y="470" type="curve" smooth="yes"/>
      <point x="469" y="470"/>
      <point x="538" y="371"/>
      <point x="521" y="236" type="curve" smooth="yes"/>
      <point x="520" y="226"/>
      <point x="518" y="215"/>
      <point x="515" y="202" type="curve"/>
    </contour>
    <contour>
      <point x="356" y="618" type="line"/>
      <point x="247" y="531" type="line"/>
      <point x="167" y="595" type="line"/>
      <point x="369" y="733" type="line"/>
      <point x="530" y="591" type="line"/>
      <point x="435" y="530" type="line"/>
    </contour>
  </outline>
</glyph>
<glyph name="edieresis" format="1">
  <advance width="540"/>
  <unicode hex="00EB"/>
  <outline>
    <contour>
      <point x="113" y="201.5" type="line"/>
      <point x="125.5" y="280.5" type="line"/>
      <point x="390" y="281" type="line"/>
      <point x="390" y="334"/>
      <point x="372.5" y="375.5"/>
      <point x="313" y="377" type="curve" smooth="yes"/>
      <point x="243.5" y="379"/>
      <point x="193.5" y="322.5"/>
      <point x="179.5" y="255.5" type="curve"/>
      <point x="172.5" y="230" type="line"/>
      <point x="162" y="153"/>
      <point x="187" y="92.5"/>
      <point x="259" y="90" type="curve" smooth="yes"/>
      <point x="314.5" y="88.5"/>
      <point x="359" y="118.5"/>
      <point x="390" y="155" type="curve"/>
      <point x="499.5" y="118.5" type="line"/>
      <point x="441.5" y="42"/>
      <point x="366" y="-10"/>
      <point x="249.5" y="-9.5" type="curve" smooth="yes"/>
      <point x="103" y="-8.5"/>
      <point x="24.5" y="97.5"/>
      <point x="43" y="230" type="curve" smooth="yes"/>
      <point x="45.5" y="247"/>
      <point x="49" y="263"/>
      <point x="54.5" y="279" type="curve" smooth="yes"/>
      <point x="90.5" y="391"/>
      <point x="191" y="470"/>
      <point x="323.5" y="469.5" type="curve" smooth="yes"/>
      <point x="469" y="469"/>
      <point x="538.5" y="371"/>
      <point x="521.5" y="236" type="curve" smooth="yes"/>
      <point x="520" y="226"/>
      <point x="518" y="214.5"/>
      <point x="515.5" y="201.5" type="curve"/>
    </contour>
    <contour>
      <point x="386" y="605.5" type="curve" smooth="yes"/>
      <point x="391" y="645.5"/>
      <point x="432.5" y="679.5"/>
      <point x="473" y="678.5" type="curve" smooth="yes"/>
      <point x="514.5" y="677.5"/>
      <point x="545.5" y="644.5"/>
      <point x="540.5" y="603.5" type="curve" smooth="yes"/>
      <point x="535.5" y="563.5"/>
      <point x="493.5" y="529.5"/>
      <point x="453" y="530.5" type="curve" smooth="yes"/>
      <point x="411.5" y="531.5"/>
      <point x="381" y="564.5"/>
    </contour>
    <contour>
      <point x="161.5" y="605.5" type="curve" smooth="yes"/>
      <point x="166.5" y="645.5"/>
      <point x="208" y="679.5"/>
      <point x="248.5" y="678.5" type="curve" smooth="yes"/>
      <point x="290" y="677.5"/>
      <point x="321" y="644.5"/>
      <point x="316" y="603.5" type="curve" smooth="yes"/>
      <point x="311" y="563.5"/>
      <point x="268.5" y="529.5"/>
      <point x="228" y="530.5" type="curve" smooth="yes"/>
      <point x="186.5" y="531.5"/>
      <point x="156.5" y="564.5"/>
    </contour>
  </outline>
</glyph>
<glyph name="igrave" format="2">
  <advance width="263"/>
  <unicode hex="00EC"/>
  <outline>
    <contour>
      <point x="119" y="460" type="line"/>
      <point x="247" y="460" type="line"/>
      <point x="167" y="0" type="line"/>
      <point x="42" y="0" type="line"/>
    </contour>
    <contour>
      <point x="53" y="693" type="line"/>
      <point x="160" y="741" type="line"/>
      <point x="281" y="578" type="line"/>
      <point x="205" y="542" type="line"/>
    </contour>
  </outline>
</glyph>
<glyph name="iacute" format="2">
  <advance width="263"/>
  <unicode hex="00ED"/>
  <outline>
    <contour>
      <point x="119" y="460" type="line"/>
      <point x="247" y="460" type="line"/>
      <point x="167" y="0" type="line"/>
      <point x="42" y="0" type="line"/>
    </contour>
    <contour>
      <point x="387" y="689" type="line"/>
      <point x="189" y="542" type="line"/>
      <point x="120" y="583" type="line"/>
      <point x="290" y="740" type="line"/>
    </contour>
  </outline>
</glyph>
<glyph name="idieresis" format="1">
  <advance width="263"/>
  <unicode hex="00EF"/>
  <outline>
    <contour>
      <point x="119.5" y="459.5" type="line"/>
      <point x="247" y="460" type="line"/>
      <point x="167" y="0" type="line"/>
      <point x="41.5" y="0" type="line"/>
    </contour>
    <contour>
      <point x="246" y="622.5" type="curve" smooth="yes"/>
      <point x="251" y="662.5"/>
      <point x="292.5" y="696"/>
      <point x="333" y="695" type="curve" smooth="yes"/>
      <point x="374.5" y="694"/>
      <point x="405" y="661"/>
      <point x="400" y="620" type="curve" smooth="yes"/>
      <point x="395" y="580"/>
      <point x="353.5" y="546.5"/>
      <point x="313" y="547.5" type="curve" smooth="yes"/>
      <point x="271.5" y="548.5"/>
      <point x="241" y="581.5"/>
    </contour>
    <contour>
      <point x="21.5" y="622.5" type="curve" smooth="yes"/>
      <point x="26.5" y="662.5"/>
      <point x="68" y="696"/>
      <point x="108.5" y="695" type="curve" smooth="yes"/>
      <point x="150" y="694"/>
      <point x="181" y="661"/>
      <point x="176" y="620" type="curve" smooth="yes"/>
      <point x="171" y="580"/>
      <point x="129" y="546.5"/>
      <point x="88.5" y="547.5" type="curve" smooth="yes"/>
      <point x="47" y="548.5"/>
      <point x="16.5" y="581.5"/>
    </contour>
  </outline>
</glyph>
<glyph name="eth" format="1">
  <advance width="623"/>
  <unicode hex="00F0"/>
  <outline>
    <contour>
      <point x="450.5" y="241.5" type="curve" smooth="yes"/>
      <point x="461.5" y="309.5"/>
      <point x="425" y="372.5"/>
      <point x="352" y="373" type="curve" smooth="yes"/>
      <point x="277.5" y="374"/>
      <point x="214" y="313.5"/>
      <point x="201.5" y="241" type="curve" smooth="yes"/>
      <point x="190.5" y="172.5"/>
      <point x="228" y="112"/>
      <point x="300.5" y="111.5" type="curve" smooth="yes"/>
      <point x="374.5" y="111"/>
      <point x="438" y="169"/>
    </contour>
    <contour>
      <point x="392" y="698" type="line"/>
      <point x="550.5" y="422" type="line" smooth="yes"/>
      <point x="581.5" y="367"/>
      <point x="600.5" y="306.5"/>
      <point x="591" y="241" type="curve" smooth="yes"/>
      <point x="569" y="87.5"/>
      <point x="438" y="-14"/>
      <point x="287" y="-14" type="curve" smooth="yes"/>
      <point x="139" y="-14"/>
      <point x="39.5" y="91.5"/>
      <point x="61" y="241.5" type="curve" smooth="yes"/>
      <point x="79" y="368"/>
      <point x="189" y="467.5"/>
      <point x="305" y="468.5" type="curve" smooth="yes"/>
      <point x="351.5" y="469"/>
      <point x="381.5" y="456"/>
      <point x="413.5" y="423.5" type="curve"/>
      <point x="390" y="434" type="line"/>
      <point x="217.5" y="698" type="line"/>
    </contour>
    <contour>
      <point x="199.5" y="520.5" type="line"/>
      <point x="211" y="594" type="line"/>
      <point x="599.5" y="594" type="line"/>
      <point x="588" y="520.5" type="line"/>
    </contour>
  </outline>
</glyph>
<glyph name="ntilde" format="1">
  <advance width="543"/>
  <unicode hex="00F1"/>
  <outline>
    <contour>
      <point x="242.5" y="460" type="line"/>
      <point x="163.5" y="0" type="line"/>
      <point x="33" y="0" type="line"/>
      <point x="112.5" y="460" type="line"/>
    </contour>
    <contour>
      <point x="371.5" y="280" type="line"/>
      <point x="377" y="329"/>
      <point x="369" y="369.5"/>
      <point x="316.5" y="372" type="curve" smooth="yes"/>
      <point x="261.5" y="374.5"/>
      <point x="224" y="329.5"/>
      <point x="211.5" y="281" type="curve"/>
      <point x="178.5" y="276.5" type="line"/>
      <point x="197.5" y="377.5"/>
      <point x="263.5" y="469.5"/>
      <point x="373.5" y="470" type="curve" smooth="yes"/>
      <point x="480.5" y="470.5"/>
      <point x="518.5" y="395.5"/>
      <point x="506" y="294.5" type="curve"/>
      <point x="455.5" y="0" type="line"/>
      <point x="322.5" y="0" type="line"/>
    </contour>
    <contour>
      <point x="163.5" y="590" type="line"/>
      <point x="184" y="635.5"/>
      <point x="229.5" y="679.5"/>
      <point x="287" y="678" type="curve" smooth="yes"/>
      <point x="341" y="677"/>
      <point x="358.5" y="627.5"/>
      <point x="407.5" y="629" type="curve" smooth="yes"/>
      <point x="434.5" y="630"/>
      <point x="457.5" y="654"/>
      <point x="478.5" y="679.5" type="curve"/>
      <point x="533" y="612.5" type="line"/>
      <point x="507.5" y="576"/>
      <point x="456" y="531.5"/>
      <point x="399" y="533.5" type="curve" smooth="yes"/>
      <point x="351" y="535"/>
      <point x="323.5" y="586"/>
      <point x="278.5" y="583.5" type="curve" smooth="yes"/>
      <point x="244" y="582"/>
      <point x="229.5" y="551.5"/>
      <point x="221" y="533.5" type="curve"/>
    </contour>
  </outline>
</glyph>
<glyph name="oacute" format="1">
  <advance width="559"/>
  <unicode hex="00F3"/>
  <outline>
    <contour>
      <point x="42.5" y="230" type="curve" smooth="yes"/>
      <point x="63" y="368"/>
      <point x="185" y="470"/>
      <point x="328.5" y="470" type="curve" smooth="yes"/>
      <point x="469" y="470"/>
      <point x="561.5" y="364.5"/>
      <point x="542" y="230" type="curve" smooth="yes"/>
      <point x="521.5" y="92"/>
      <point x="399" y="-9.5"/>
      <point x="255.5" y="-9.5" type="curve" smooth="yes"/>
      <point x="115" y="-9.5"/>
      <point x="23" y="95.5"/>
    </contour>
    <contour>
      <point x="175" y="230" type="curve" smooth="yes"/>
      <point x="164.5" y="163.5"/>
      <point x="197.5" y="102"/>
      <point x="266.5" y="101" type="curve" smooth="yes"/>
      <point x="336.5" y="100"/>
      <point x="397.5" y="159.5"/>
      <point x="409.5" y="230" type="curve" smooth="yes"/>
      <point x="420" y="296.5"/>
      <point x="386.5" y="358"/>
      <point x="317.5" y="359" type="curve" smooth="yes"/>
      <point x="247.5" y="360"/>
      <point x="187" y="300.5"/>
    </contour>
    <contour>
      <point x="527" y="688.5" type="line"/>
      <point x="329.5" y="542.5" type="line"/>
      <point x="259.5" y="582.5" type="line"/>
      <point x="430.5" y="739.5" type="line"/>
    </contour>
  </outline>
</glyph>
<glyph name="ocircumflex" format="2">
  <advance width="559"/>
  <unicode hex="00F4"/>
  <outline>
    <contour>
      <point x="43" y="230" type="curve" smooth="yes"/>
      <point x="63" y="368"/>
      <point x="185" y="470"/>
      <point x="329" y="470" type="curve" smooth="yes"/>
      <point x="470" y="470"/>
      <point x="561" y="365"/>
      <point x="542" y="230" type="curve" smooth="yes"/>
      <point x="522" y="92"/>
      <point x="398" y="-10"/>
      <point x="255" y="-10" type="curve" smooth="yes"/>
      <point x="114" y="-10"/>
      <point x="24" y="95"/>
    </contour>
    <contour>
      <point x="175" y="230" type="curve" smooth="yes"/>
      <point x="165" y="163"/>
      <point x="197" y="102"/>
      <point x="266" y="101" type="curve" smooth="yes"/>
      <point x="336" y="100"/>
      <point x="398" y="159"/>
      <point x="410" y="230" type="curve" smooth="yes"/>
      <point x="420" y="297"/>
      <point x="387" y="358"/>
      <point x="318" y="359" type="curve" smooth="yes"/>
      <point x="248" y="360"/>
      <point x="187" y="301"/>
    </contour>
    <contour>
      <point x="364" y="629" type="line"/>
      <point x="255" y="542" type="line"/>
      <point x="174" y="606" type="line"/>
      <point x="377" y="744" type="line"/>
      <point x="537" y="602" type="line"/>
      <point x="442" y="541" type="line"/>
    </contour>
  </outline>
</glyph>
<glyph name="otilde" format="1">
  <advance width="559"/>
  <unicode hex="00F5"/>
  <outline>
    <contour>
      <point x="42.5" y="230" type="curve" smooth="yes"/>
      <point x="63" y="368"/>
      <point x="185" y="470"/>
      <point x="328.5" y="470" type="curve" smooth="yes"/>
      <point x="469" y="470"/>
      <point x="561.5" y="364.5"/>
      <point x="542" y="230" type="curve" smooth="yes"/>
      <point x="521.5" y="92"/>
      <point x="399" y="-9.5"/>
      <point x="255.5" y="-9.5" type="curve" smooth="yes"/>
      <point x="115" y="-9.5"/>
      <point x="23" y="95.5"/>
    </contour>
    <contour>
      <point x="175" y="230" type="curve" smooth="yes"/>
      <point x="164.5" y="163.5"/>
      <point x="197.5" y="102"/>
      <point x="266.5" y="101" type="curve" smooth="yes"/>
      <point x="336.5" y="100"/>
      <point x="397.5" y="159.5"/>
      <point x="409.5" y="230" type="curve" smooth="yes"/>
      <point x="420" y="296.5"/>
      <point x="386.5" y="358"/>
      <point x="317.5" y="359" type="curve" smooth="yes"/>
      <point x="247.5" y="360"/>
      <point x="187" y="300.5"/>
    </contour>
    <contour>
      <point x="170.5" y="589.5" type="line"/>
      <point x="171" y="637"/>
      <point x="249" y="678.5"/>
      <point x="294.5" y="678" type="curve" smooth="yes"/>
      <point x="348.5" y="677"/>
      <point x="365.5" y="627.5"/>
      <point x="415" y="629" type="curve" smooth="yes"/>
      <point x="442" y="630"/>
      <point x="465" y="654"/>
      <point x="486" y="679.5" type="curve"/>
      <point x="540.5" y="612.5" type="line"/>
      <point x="515.5" y="576"/>
      <point x="465" y="531.5"/>
      <point x="408" y="533.5" type="curve" smooth="yes"/>
      <point x="360" y="535"/>
      <point x="330.5" y="586"/>
      <point x="285.5" y="583.5" type="curve" smooth="yes"/>
      <point x="251" y="582"/>
      <point x="238" y="551.5"/>
      <point x="229.5" y="533.5" type="curve"/>
    </contour>
  </outline>
</glyph>
<glyph name="odieresis" format="1">
  <advance width="559"/>
  <unicode hex="00F6"/>
  <outline>
    <contour>
      <point x="42.5" y="230" type="curve" smooth="yes"/>
      <point x="63" y="368"/>
      <point x="185" y="470"/>
      <point x="328.5" y="470" type="curve" smooth="yes"/>
      <point x="469" y="470"/>
      <point x="561.5" y="364.5"/>
      <point x="542" y="230" type="curve" smooth="yes"/>
      <point x="521.5" y="92"/>
      <point x="399" y="-9.5"/>
      <point x="255.5" y="-9.5" type="curve" smooth="yes"/>
      <point x="115" y="-9.5"/>
      <point x="23" y="95.5"/>
    </contour>
    <contour>
      <point x="175" y="230" type="curve" smooth="yes"/>
      <point x="164.5" y="163.5"/>
      <point x="197.5" y="102"/>
      <point x="266.5" y="101" type="curve" smooth="yes"/>
      <point x="336.5" y="100"/>
      <point x="397.5" y="159.5"/>
      <point x="409.5" y="230" type="curve" smooth="yes"/>
      <point x="420" y="296.5"/>
      <point x="386.5" y="358"/>
      <point x="317.5" y="359" type="curve" smooth="yes"/>
      <point x="247.5" y="360"/>
      <point x="187" y="300.5"/>
    </contour>
    <contour>
      <point x="394" y="622.5" type="curve" smooth="yes"/>
      <point x="399" y="662.5"/>
      <point x="441" y="696"/>
      <point x="481.5" y="695" type="curve" smooth="yes"/>
      <point x="523" y="694"/>
      <point x="553.5" y="661"/>
      <point x="548.5" y="620" type="curve" smooth="yes"/>
      <point x="543.5" y="580"/>
      <point x="501.5" y="546.5"/>
      <point x="461" y="547.5" type="curve" smooth="yes"/>
      <point x="419.5" y="548.5"/>
      <point x="389" y="581.5"/>
    </contour>
    <contour>
      <point x="170" y="622.5" type="curve" smooth="yes"/>
      <point x="175" y="662.5"/>
      <point x="216.5" y="696"/>
      <point x="257" y="695" type="curve" smooth="yes"/>
      <point x="298.5" y="694"/>
      <point x="328.5" y="661"/>
      <point x="323.5" y="620" type="curve" smooth="yes"/>
      <point x="318.5" y="580"/>
      <point x="277" y="546.5"/>
      <point x="236.5" y="547.5" type="curve" smooth="yes"/>
      <point x="195" y="548.5"/>
      <point x="165" y="581.5"/>
    </contour>
  </outline>
</glyph>
<glyph name="divide" format="1">
  <advance width="615"/>
  <unicode hex="00F7"/>
  <outline>
    <contour>
      <point x="288.5" y="525" type="curve" smooth="yes"/>
      <point x="294" y="567.5"/>
      <point x="336" y="606"/>
      <point x="381" y="605" type="curve" smooth="yes"/>
      <point x="427" y="604"/>
      <point x="457" y="566"/>
      <point x="451.5" y="523" type="curve" smooth="yes"/>
      <point x="446" y="480.5"/>
      <point x="404" y="441.5"/>
      <point x="359" y="442.5" type="curve" smooth="yes"/>
      <point x="313" y="443.5"/>
      <point x="283" y="482"/>
    </contour>
    <contour>
      <point x="214" y="91" type="curve" smooth="yes"/>
      <point x="219.5" y="133.5"/>
      <point x="262.5" y="172.5"/>
      <point x="307.5" y="171.5" type="curve" smooth="yes"/>
      <point x="353.5" y="170.5"/>
      <point x="382.5" y="132"/>
      <point x="377" y="89" type="curve" smooth="yes"/>
      <point x="371.5" y="46.5"/>
      <point x="329.5" y="7.5"/>
      <point x="284.5" y="8.5" type="curve" smooth="yes"/>
      <point x="238.5" y="9.5"/>
      <point x="208.5" y="48"/>
    </contour>
    <contour>
      <point x="49.5" y="250" type="line"/>
      <point x="70" y="370" type="line"/>
      <point x="618.5" y="370" type="line"/>
      <point x="597.5" y="249.5" type="line"/>
    </contour>
  </outline>
</glyph>
<glyph name="oslash" format="1">
  <advance width="529"/>
  <unicode hex="00F8"/>
  <outline>
    <contour>
      <point x="42.5" y="230" type="curve" smooth="yes"/>
      <point x="63" y="371"/>
      <point x="186" y="469.5"/>
      <point x="328.5" y="469.5" type="curve" smooth="yes"/>
      <point x="468.5" y="469.5"/>
      <point x="561.5" y="367.5"/>
      <point x="542" y="230" type="curve" smooth="yes"/>
      <point x="521.5" y="89"/>
      <point x="398" y="-9.5"/>
      <point x="255.5" y="-9.5" type="curve" smooth="yes"/>
      <point x="115.5" y="-9.5"/>
      <point x="23" y="92.5"/>
    </contour>
    <contour>
      <point x="166.5" y="230" type="curve" smooth="yes"/>
      <point x="155.5" y="158.5"/>
      <point x="193" y="97.5"/>
      <point x="265.5" y="97" type="curve" smooth="yes"/>
      <point x="339.5" y="96"/>
      <point x="406" y="154.5"/>
      <point x="418.5" y="230" type="curve" smooth="yes"/>
      <point x="429.5" y="298"/>
      <point x="390.5" y="362"/>
      <point x="318.5" y="363" type="curve" smooth="yes"/>
      <point x="245" y="364"/>
      <point x="179" y="302.5"/>
    </contour>
    <contour>
      <point x="493.5" y="503.5" type="line"/>
      <point x="545.5" y="473" type="line"/>
      <point x="79.5" y="-47.5" type="line"/>
      <point x="28" y="-18" type="line"/>
    </contour>
  </outline>
</glyph>
<glyph name="ugrave" format="2">
  <advance width="543"/>
  <unicode hex="00F9"/>
  <outline>
    <contour>
      <point x="326" y="0" type="line"/>
      <point x="405" y="460" type="line"/>
      <point x="535" y="460" type="line"/>
      <point x="456" y="0" type="line"/>
    </contour>
    <contour>
      <point x="197" y="180" type="line"/>
      <point x="192" y="131"/>
      <point x="199" y="91"/>
      <point x="251" y="88" type="curve" smooth="yes"/>
      <point x="306" y="85"/>
      <point x="345" y="130"/>
      <point x="357" y="179" type="curve"/>
      <point x="390" y="183" type="line"/>
      <point x="371" y="82"/>
      <point x="305" y="-10"/>
      <point x="195" y="-10" type="curve" smooth="yes"/>
      <point x="88" y="-10"/>
      <point x="50" y="65"/>
      <point x="62" y="166" type="curve"/>
      <point x="113" y="460" type="line"/>
      <point x="246" y="460" type="line"/>
    </contour>
    <contour>
      <point x="229" y="693" type="line"/>
      <point x="336" y="741" type="line"/>
      <point x="456" y="578" type="line"/>
      <point x="381" y="542" type="line"/>
    </contour>
  </outline>
</glyph>
